<svg xmlns:dc="http://purl.org/dc/elements/1.1/" xmlns:rdf="http://www.w3.org/1999/02/22-rdf-syntax-ns#" xmlns:cc="http://creativecommons.org/ns#" xmlns:svg="http://www.w3.org/2000/svg" xmlns="http://www.w3.org/2000/svg" xmlns:xlink="http://www.w3.org/1999/xlink" id="svg2" x="0px" y="0px" viewBox="0 0 1163.9 534.4" style="enable-background:new 0 0 1163.9 534.4;" xml:space="preserve"><style type="text/css">	.st0{fill-rule:evenodd;clip-rule:evenodd;fill:#FFFFFF;}	.st1{fill:#FFFFFF;}</style><g id="g10" transform="matrix(1.3333333,0,0,-1.3333333,0,534.36)">	<g id="g12" transform="scale(0.1)">		<path id="path14" class="st0" d="M7370.5,1402.6v1646.5l-1652.7-594.5v-410.9l547.8,199.2V1007.4L7370.5,1402.6"></path>		<path id="path16" class="st0" d="M6740.3,4007.7c-679.7,0-1288.2-340-1650.5-857.5l291.4-203.6   c297.8,424.3,792.3,708.3,1350.4,708.3c905.7,0,1625.5-742.2,1625.5-1651c0-908.8-719.8-1651-1625.5-1651   c-558.3,0-1049.8,286.1-1347.6,710.5l-296.8-207.1C5449.7,338.6,6040.1,0,6719.9,0c1111.7,0,2009,899.7,2009,2006.4   C8728.9,3113.1,7847,4007.7,6740.3,4007.7"></path>		<path id="path18" class="st1" d="M4176.7,1398.1c-69,0-162.1,3.5-211.3,11.3V2613c52.9,3.1,131,4.9,211.3,4.9   c365.1,0,542.6-200.7,542.6-613.6C4719.3,1590.7,4546.9,1398.1,4176.7,1398.1 M4200.4,2930.8c-195.8,0-325.4-3.4-429.4-6.1   c-64.7-1.7-115.7-3-164-3h-9V1092.6l72.3-1.8c144.3-3.6,307.8-7.5,471.9-7.5c631.1,0,964.7,323.5,964.7,935.6   C5106.8,2615.5,4793.4,2930.8,4200.4,2930.8"></path>		<path id="path20" class="st1" d="M588.8,1774.9l178.7,561.7c24,75,48.1,161.8,66.4,239.1c17.2-66.2,40.4-147,69.3-240.9   l179.2-559.9H588.8z M1086,2915.6l-2.1,6.1H625.1L0,1088.8h370.5l119.9,376.8h691.1l120.6-376.8H1709L1086,2915.6"></path>		<path id="path22" class="st1" d="M2296.7,2617c28.1,0.8,122.6,3.4,260.7,3.4c202.2,0,300.5-86,300.5-262.9   c0-174.4-104.8-262.9-311.4-262.9h-249.8L2296.7,2617z M2960.2,1719.4c-27.9,47.8-61,96.2-87.2,133   c232.9,82.2,372.4,268.4,372.4,519.6c0,365.5-229.1,558.8-662.5,558.8c-191.8,0-366.9-3.8-494.8-6.5   c-66.4-1.4-118.8-2.6-148.6-2.6h-9v-1833h366.3v699.1h202.7l412.7-699.1h440.6L2960.2,1719.4"></path>	</g></g></svg>