<svg xmlns:dc="http://purl.org/dc/elements/1.1/" xmlns:rdf="http://www.w3.org/1999/02/22-rdf-syntax-ns#" xmlns:sodipodi="http://sodipodi.sourceforge.net/DTD/sodipodi-0.dtd" xmlns:cc="http://creativecommons.org/ns#" xmlns:svg="http://www.w3.org/2000/svg" xmlns:inkscape="http://www.inkscape.org/namespaces/inkscape" xmlns="http://www.w3.org/2000/svg" xmlns:xlink="http://www.w3.org/1999/xlink" id="svg2105" inkscape:version="1.0 (4035a4fb49, 2020-05-01)" sodipodi:docname="brand eins (2020-06-26).svg" x="0px" y="0px" viewBox="0 0 300 57.9" style="enable-background:new 0 0 300 57.9;" xml:space="preserve"><style type="text/css">	.st0{fill:#FFFFFF;}</style><g>	<path id="path3795" class="st0" d="M9.3,0C5.7,2,4,2.6,0,3.9v0.9c3.4,1.3,3.9,1.9,3.9,5.7v31.3c-0.1,1.9-0.1,3.8-0.2,5.7  c-0.1,2.8-0.4,5.6-0.6,8.4c0.1,0.4,0.2,0.4,0.6,0.7l2.7-1.4c3.1,1.1,6.3,2.2,9.6,2.2c8,0,14.2-5,17-12.2c0.4-1.1,1.3-3.7,1.3-7  c0-1.9-0.4-7.8-5-11.9c-3.1-2.8-6.3-3.2-7.9-3.2c-4.8,0-8,2.4-11.6,5.1V0.4L9.3,0z M9.5,30.3c2.3-1.7,4.4-3.2,7-3.2  c3.1,0,5.6,1.8,6.4,2.4c5.1,4.1,5.5,10.8,5.5,12.8c-0.1,4.8-2,9.8-6.4,12.1c-1.9,1-3.6,1.1-4.4,1.1c-3.8,0-5.9-2.4-6.7-3.6  c-1-1.6-1.2-3.6-1.3-5.6V30.3z"></path>	<path id="path3791" class="st0" d="M43,49.3c-0.1,4.7-1.3,5.3-5.7,5.5v1.9h19.5v-1.9c-2.7-0.1-4.7-0.1-5.7-0.5  c-2.5-0.8-2.2-4.4-2.2-4.8V37.4c0-2.1,0-4,1.2-5.9c1.5-2.4,3.7-2.7,4.7-2.7c1.1,0,1.9,0.4,2.3,0.7c1,0.6,1.1,1.1,2.2,1.1  c2.1,0,3.6-1.8,3.7-3.9c0-3.3-3.4-3.6-4.3-3.6c-3.7-0.1-6.8,3.5-7.3,4.1c-0.9,1-1.7,2-2.5,3.1v-7.9L48.4,22c-3.9,2.4-5,3-9.3,4.8  V28c3.6,1.3,3.8,2.1,3.9,4.4L43,49.3z"></path>	<path id="path3787" class="st0" d="M75.5,41.1c-5.3,2.2-7.9,3.2-9.6,5.4c-0.8,1.1-1.3,2.4-1.3,3.7c0,2.7,1.9,5.7,4.5,6.7  c1.3,0.4,2.5,0.5,3,0.5c5.3,0,9.4-3.5,10.6-4.5c0.3-0.3,0.7-0.6,1-0.9c0.4,2,0.7,3.5,2.4,4.7c0.4,0.2,1.3,0.8,2.5,0.8  c2.7,0,5.2-2.1,7.1-3.5l-0.2-1c-1.3,0.4-1.9,0.5-2.5,0.5c-2.3,0-2.8-1.4-3-2.2c-0.1-0.4-0.1-0.8-0.1-1.9v-19  c-0.1-1.1-0.1-4.4-3.1-6.2c-1.3-0.8-4.2-1.6-5.7-1.6c-1.5,0-3.1,0.7-3.6,0.8L74.2,25c-3.4,1.9-5.3,2.8-6.5,4.1  c-1.3,1.5-1.6,3.1-1.6,3.9c0,1,0.4,1.6,1.3,1.6c0.5,0,1.7-0.3,2.2-0.5c1.9-0.8,1.5-2.1,2.1-4.1c1.1-3.3,4.7-3.6,5.7-3.6  c2.9,0,5.6,1.6,6.3,4.4c0.2,0.8,0.2,1.3,0.2,2.1v5.5L75.5,41.1z M83.9,49.6c-2.4,2.1-3.9,3.4-5.3,4C77.7,54,76.9,54,76.5,54  c-2.3,0-4.7-1.3-5.6-3.4c-0.4-0.8-0.4-1.6-0.4-1.9c0-1.6,0.9-2.7,1.3-3c1.7-2.1,4.2-2.9,6.7-3.8l5.5-1.7L83.9,49.6z"></path>	<path id="path3783" class="st0" d="M102,50.5c-0.1,3.1-0.4,3.8-2.2,4.1c-1,0.1-1.9,0.2-2.8,0.3v1.8h16.3v-1.7  c-0.8-0.1-3.3-0.4-4-0.7c-1-0.4-1.3-1.3-1.3-3.6V30.3c2.7-1.7,5.5-3.5,8.9-3.5c2.8,0,5.3,1.5,6.2,4.1c0.4,1.3,0.5,3.2,0.5,3.6v15.1  c-0.3,5.1,0.1,4.8-5,5.3v1.8h15.7V55c-4.2-0.4-4.5-0.2-4.8-3V33.2c-0.1-2.5-0.2-5-1.7-7.1c-1.6-2.2-4-3-6.5-3  c-5,0-9.6,2.9-13.4,5.4v-5.8l-0.7-0.3c-2.8,1.3-3.9,1.9-9.2,3.6V27c3,1.2,3.6,1.7,4,5V50.5z"></path>	<path id="path3779" class="st0" d="M163.7,24.3c-2.4-0.8-3.7-1.3-6.4-1.3c-7.1,0-14,4.5-17,10.8c-1.3,2.5-1.8,5.2-1.8,8.1  c0,2.2,0.4,9.7,6.8,13.6c0.9,0.6,3.5,1.9,6.8,1.9c4.8,0,8.2-2.6,9.4-3.5c0.7-0.6,1.5-1.2,2.2-1.9v5.2l0.6,0.4  c1.6-0.4,3.2-1,4.8-1.4c1.9-0.4,3.8-0.9,5.7-1.3v-1.5h-3c-1.4,0-1.9,0-2.1-2.5V0.5L169.2,0c-4.5,2.1-5.7,2.4-10.5,3.6v1.3  c1.8,0.5,4.2,1.3,4.8,3.4c0.2,0.7,0.1,1.3,0.1,1.6V24.3z M163.9,46.8c-0.1,1.6-0.2,2.4-0.6,3c-1.1,2.5-4.3,3.6-6.8,3.6  c-1.3,0-3.3-0.2-5.9-2c-2.3-1.6-5.9-5.4-5.9-12.5c0-7.3,3.9-11,6.5-12.5c1.9-1.1,3.9-1.3,4.8-1.3c4.5,0,6.3,2.8,7,4.2  c0.3,0.4,0.6,1,0.9,1.5V46.8z"></path>	<path id="path3811" class="st0" d="M212.2,36.1c0.1,0,0.6,0,0.9-0.1c0.7-0.3,0.7-1.4,0.7-1.5c0-0.4-0.2-1.6-0.2-1.9  c-0.2-1.3-1-4.7-4.3-7.3c-2.7-2.1-6-2.2-7.2-2.2c-1.4,0-4.5,0.2-7.9,2c-7.7,4.3-8.4,13.4-8.4,15.9c0,1.3,0.3,8.2,4.1,12.5  c1.3,1.5,4.5,4.4,10.1,4.4c4.6,0,7.7-2,8.9-3c1.5-1.2,2.5-2.3,5-5.1l-0.7-1.3c-3,2.6-5.7,4.8-9.9,4.8c-7.2,0-9.8-6.5-10.5-8.5  c-0.4-1.5-0.7-3-1-6.3v-2.4H212.2z M191.8,34c1-3.1,1.9-5.9,4.9-7.6c1.8-1.1,3.3-1.3,4.2-1.3c3.7,0,6.6,3.1,6.6,6.8  c0,1.7-0.8,1.9-2.4,2.1H191.8z"></path>	<path id="path3807" class="st0" d="M222.7,51c0,1.1-0.1,2.7-1.2,3.3c-0.6,0.4-2.1,0.4-4.1,0.6l-0.1,1.6h16.4V55  c-1.9-0.2-3.2-0.4-3.8-0.6c-1.7-0.7-1.3-3.3-1.3-3.7V22.4l-0.6-0.4c-4,2-4.9,2.4-9.4,3.6v1c1.4,0.8,2.2,1.3,2.8,1.9  c1,1,1.2,2.2,1.3,3.6L222.7,51z M222.5,6.5c-0.4,1.5,0.3,3.2,1.5,3.9c0.5,0.4,1,0.4,1.6,0.4c1.9,0,3.8-1.4,3.8-3.4  c0-1.9-1.6-3.5-3.5-3.5C224.2,3.9,222.9,4.9,222.5,6.5L222.5,6.5z"></path>	<path id="path3803" class="st0" d="M240.6,50.5c-0.1,3.1-0.4,3.8-2.2,4.1c-1,0.1-1.9,0.2-2.8,0.3v1.8h16.3v-1.7  c-0.8-0.1-3.3-0.4-4-0.7c-1-0.4-1.3-1.3-1.3-3.6V30.3c2.7-1.7,5.5-3.5,8.9-3.5c2.8,0,5.3,1.5,6.2,4.1c0.4,1.3,0.5,3.2,0.5,3.6v15.1  c-0.3,5.1,0.1,4.8-5,5.3v1.8h15.7V55c-4.2-0.4-4.5-0.2-4.8-3V33.2c-0.1-2.5-0.2-5-1.7-7.1c-1.6-2.2-4-3-6.5-3  c-5,0-9.6,2.9-13.4,5.4v-5.8l-0.7-0.3c-2.8,1.3-3.9,1.9-9.2,3.6V27c3,1.2,3.6,1.7,4,5V50.5z"></path>	<path id="path3799" class="st0" d="M298.4,24.6c-4.3-1.4-6-1.8-8.5-1.8c-1,0-5.6,0.1-8.7,2.7c-1.9,1.6-3,4.3-3,7  c0,5,4.3,7.7,5.6,8.4c2,1.3,4,2,4.8,2.4c2.3,1,4.4,2.1,5.4,4.4c0.3,0.9,0.4,1.9,0.4,2.2c0,1.4-0.5,2.5-0.7,2.9  c-0.7,1.1-2.2,2.9-5.4,2.9c-0.7,0-2.4-0.1-4.2-1.1c-3.2-1.8-4.3-5.1-5.3-8.4l-1.3,0.3l0.7,8.5c3.2,1.8,5.4,2.8,9.3,2.8  c6.8,0,10.5-3.7,11.6-6c0.9-1.7,1-3.3,1-4c0-5-3.5-7.5-4.9-8.4c-1.3-0.7-2.2-1.2-3.6-1.8c-2.3-1-4.3-1.6-6.2-3.3  c-0.6-0.5-2.2-2.1-2.3-4.4c0-2.1,1.6-4.1,3.6-4.8c0.9-0.4,1.9-0.4,2.2-0.4c0.7,0,2.2,0.1,3.9,1c2.4,1.5,3.3,3.8,3.6,4.7  c0.2,0.7,0.4,1.4,0.6,2.1l1.3,0.1V24.6z"></path></g></svg>