<svg xmlns:dc="http://purl.org/dc/elements/1.1/" xmlns:rdf="http://www.w3.org/1999/02/22-rdf-syntax-ns#" xmlns:sodipodi="http://sodipodi.sourceforge.net/DTD/sodipodi-0.dtd" xmlns:cc="http://creativecommons.org/ns#" xmlns:svg="http://www.w3.org/2000/svg" xmlns:inkscape="http://www.inkscape.org/namespaces/inkscape" xmlns="http://www.w3.org/2000/svg" xmlns:xlink="http://www.w3.org/1999/xlink" id="svg4545" inkscape:version="0.48.1 " sodipodi:docname="Neues Dokument 3" x="0px" y="0px" viewBox="0 0 1096.9 500" style="enable-background:new 0 0 1096.9 500;" xml:space="preserve"><style type="text/css">	.st0{fill:#FFFFFF;}</style><g>	<g id="g1166" transform="translate(457.0277,309.8069)">		<path id="path1168" inkscape:connector-curvature="0" class="st0" d="M-363.2-190.7h-26.3v96.2c6.4,1.3,17.9,2.4,27.7,2.4   c35.8,0,51.6-19.2,51.6-50.3C-310.2-171.1-325.8-190.7-363.2-190.7 M-361.9-200.2c25.6,0,40.8-16.5,40.8-45.9   c0-32-21.6-43.5-43.2-43.5c-9.5,0-18.9,0.7-25.3,2v87.4C-389.5-200.2-361.9-200.2-361.9-200.2z M-348.4-83.4H-457v-5.7l33.7-6.1   v-191.3l-33.7-6.1v-5.7h99.9c46.9,0,71.2,21.3,71.2,48.2c0,22.6-14.8,43.2-48.6,50.3v1.7c42.8,4.7,62.8,28.3,62.8,53   C-271.8-112.1-299.8-83.4-348.4-83.4"></path>	</g>	<g id="g1170" transform="translate(466.1183,306.4372)">		<path id="path1172" inkscape:connector-curvature="0" class="st0" d="M-110.1-90.2v3.4L-157.4-75l-1.4-0.7l0.7-26.6l-1.4-0.7   c-20.2,18.9-39.5,28.3-57.7,28.3c-30.4,0-41.5-22.9-41.5-46.9v-88.4l-21.9-11.8v-3l49.3-12.2l1.3,1v99.9c0,26,9.1,38.1,31.4,38.1   c14.2,0,24.3-3,37.8-10.8v-101.3l-22.3-11.8v-3l49.3-12.2l1.4,1v137L-110.1-90.2z"></path>	</g>	<g id="g1174" transform="translate(467.8732,305.9106)">		<path id="path1176" inkscape:connector-curvature="0" class="st0" d="M-61.3-74.4c-16.9,0-30.7-2.4-46.2-9.1v-42.5l7.1-0.7   c11.1,31.1,26.6,43.9,44.9,43.9c17.9,0,29.4-10.5,29.4-28.3c0-18.2-17.9-25.3-36.8-33.1c-20.6-8.8-42.2-18.5-42.2-44.9   c0-26.6,20.6-47.2,53-47.2c13.2,0,30.7,3,39.8,6.4l1,38.1l-6.1,1.7c-13.2-27-26-37.8-40.8-37.8c-15.2,0-25.3,8.8-25.3,23   c0,18.2,18.2,25.3,37.4,33.4c20.9,8.8,43.2,18.6,43.2,45.9C-2.9-94.3-28.2-74.4-61.3-74.4"></path>	</g>	<g id="g1178" transform="translate(471.5586,313.9371)">		<path id="path1180" inkscape:connector-curvature="0" class="st0" d="M41.3-313.9c10.5,0,18.2,7.8,18.2,18.2   c0,10.8-8.8,20.6-20.2,20.6c-10.5,0-17.9-7.8-17.9-18.5C21.4-304.2,30.2-313.9,41.3-313.9 M3.8-229.2v-3.1l49.3-12.1l1.3,1V-98   l22.6,6.1v4.4H2.5v-4.4L26.1-98v-117.1L3.8-229.2L3.8-229.2z"></path>	</g>	<g id="g1182" transform="translate(478.1224,306.4488)">		<path id="path1184" inkscape:connector-curvature="0" class="st0" d="M224-90.5l22.3,6.1v4.4h-71.9v-4.4l21.3-6.1v-84.7   c0-25.6-9.1-37.8-31.7-37.8c-14.2,0-24.3,2.7-37.8,10.4v112l20.9,6.1v4.4H75.2v-4.4l22.3-6.1v-117.1l-21.9-14.2v-3.1l47.2-12.1   l1.4,1l-0.7,27l1.4,0.7c20.2-18.9,39.5-28.3,57.7-28.3c30.4,0,41.5,22.9,41.5,46.9V-90.5z"></path>	</g>	<g id="g1186" transform="translate(482.615,309.5728)">		<path id="path1188" inkscape:connector-curvature="0" class="st0" d="M349.1-183.7c-2.4-29-11.8-48.6-32.7-48.6   c-21.6,0-39.1,20.2-41.2,51L349.1-183.7z M274.9-174.3c0,44.9,15.2,75.6,53.3,75.6c16.5,0,30.4-3.7,49.6-13.5l2,4.1   c-20.9,19.9-39.8,30.4-61.7,30.4c-43.2,0-73.9-31.7-73.9-78.6c0-47.6,32.7-83.3,74.6-83.3s62.8,28,62.8,65.5   C381.5-174.3,274.9-174.3,274.9-174.3z"></path>	</g>	<g id="g1190" transform="translate(485.7505,305.9106)">		<path id="path1192" inkscape:connector-curvature="0" class="st0" d="M436.4-74.4c-16.9,0-30.7-2.4-46.2-9.1v-42.5l7.1-0.7   c11.1,31.1,26.6,43.9,44.9,43.9c17.9,0,29.4-10.5,29.4-28.3c0-18.2-17.9-25.3-36.8-33.1c-20.6-8.8-42.2-18.5-42.2-44.9   c0-26.6,20.6-47.2,53-47.2c13.2,0,30.7,3,39.8,6.4l1,38.1l-6.1,1.7c-13.2-27-26-37.8-40.8-37.8c-15.2,0-25.3,8.8-25.3,23   c0,18.2,18.2,25.3,37.5,33.4c20.9,8.8,43.2,18.6,43.2,45.9C494.7-94.3,469.5-74.4,436.4-74.4"></path>	</g>	<g id="g1194" transform="translate(489.7868,305.9106)">		<path id="path1196" inkscape:connector-curvature="0" class="st0" d="M548.7-74.4c-16.9,0-30.7-2.4-46.2-9.1v-42.5l7.1-0.7   c11.1,31.1,26.6,43.9,44.9,43.9c17.9,0,29.4-10.5,29.4-28.3c0-18.2-17.9-25.3-36.8-33.1c-20.6-8.8-42.2-18.5-42.2-44.9   c0-26.6,20.6-47.2,53-47.2c13.2,0,30.7,3,39.8,6.4l1,38.1l-6.1,1.7c-13.2-27-26-37.8-40.8-37.8c-15.2,0-25.3,8.8-25.3,23   c0,18.2,18.2,25.3,37.5,33.4c20.9,8.8,43.2,18.6,43.2,45.9C607.1-94.3,581.8-74.4,548.7-74.4"></path>	</g>	<g id="g1198" transform="translate(456.9224,303.9351)">		<path id="path1200" inkscape:connector-curvature="0" class="st0" d="M-366.1-15.5c-8.4,0-16.5,0.7-23.3,2v99.6   c6.1,1,12.5,1.7,22.6,1.7c31,0,47.2-16.9,47.2-51.9C-319.6,3.7-336.1-15.5-366.1-15.5 M-354,97.2c-11.1,0-24.6-1.4-35.4-3v84.7   l33.4,6.1v5.7h-100.6v-5.7l33.4-6.1V-12.5l-33.4-6.1v-5.7h97.5c51.6,0,77.3,26,77.3,59C-281.8,64.8-305.1,97.2-354,97.2"></path>	</g>	<g id="g1202" transform="translate(465.9549,297.1371)">		<path id="path1204" inkscape:connector-curvature="0" class="st0" d="M-114.7,187.3v3.4l-47.2,11.8l-1.4-0.7l0.7-26.6l-1.4-0.7   c-20.2,18.9-39.5,28.3-57.7,28.3c-30.4,0-41.5-22.9-41.5-46.9V67.6l-21.9-11.8v-3l49.3-12.2l1.4,1v99.9c0,26,9.1,38.1,31.4,38.1   c14.2,0,24.3-3,37.8-10.8V67.6l-22.3-11.8v-3l49.3-12.2l1.4,1v137L-114.7,187.3z"></path>	</g>	<g id="g1206" transform="translate(471.1613,297.1488)">		<path id="path1208" inkscape:connector-curvature="0" class="st0" d="M30.2,187l22.3,6.1v4.4h-71.9v-4.4L1.9,187v-84.7   c0-25.6-9.1-37.8-31.7-37.8c-14.2,0-24.3,2.7-37.8,10.4v112l20.9,6.1v4.4h-71.9v-4.4l22.3-6.1V69.9l-21.9-14.2v-3L-71,40.6l1.4,1   l-0.7,27l1.4,0.7c20.2-18.9,39.5-28.3,57.7-28.3c30.4,0,41.5,22.9,41.5,46.9V187z"></path>	</g>	<g id="g1210" transform="translate(476.9177,297.1839)">		<path id="path1212" inkscape:connector-curvature="0" class="st0" d="M190.5,186l18.9,7.1v4.4h-66.1V193l13.5-7.1l-44.2-62.1H99   V187l18.9,6.1v4.4H46.8V193l23.6-6.1V-21.6L45.7-36.1v-3.4l52-13.2l1.4,0.7v165.7h15.2l44.2-52.3l-17.9-11.8v-3.4h62.1v4.4   L180,59.4l-48.6,49.3L190.5,186z"></path>	</g></g></svg>