<svg xmlns="http://www.w3.org/2000/svg" xmlns:xlink="http://www.w3.org/1999/xlink" id="layer" x="0px" y="0px" viewBox="0 0 600.1 190" style="enable-background:new 0 0 600.1 190;" xml:space="preserve"><style type="text/css">	.st0{fill:#FFFFFF;}</style><g>	<path class="st0" d="M186.1,1.1c4.7-1.4,9.9-1.4,15.2-0.5c5.7,0.9,10.9,2.4,15.6,5.7c0,4.3,0,8.5,0,13.3c-2.8-2.4-6.2-4.3-9.5-5.7  c-4.7-1.9-9.5-2.8-14.2-2.4c-2.4,0-4.7,0.5-6.6,1.9c-1.4,0.9-2.4,1.9-3.3,3.3c-0.9,1.9-0.9,3.8-0.9,5.7c0,1.4,0.9,2.8,2.4,4.3  c1.9,1.4,3.8,2.4,6.2,3.3c4.3,1.4,9,3.3,13.3,4.7c3.8,1.4,7.6,3.3,10.4,6.2c2.8,2.4,4.7,6.2,5.7,9.9c0.9,3.8,0.9,8.1,0,11.8  c-0.9,3.3-2.8,6.6-5.7,9c-2.8,2.4-6.6,4.3-9.9,5.2c-5.2,1.4-10.4,1.4-15.6,0.9c-6.6-0.9-12.8-2.4-18.5-6.2c0-4.3,0-9,0-13.3  c6.6,5.2,14.7,8.5,22.7,8.5c3.3,0,7.1-0.5,10.4-1.9c1.9-0.9,3.3-2.4,4.3-4.3s0.9-4.3,0-6.6c-0.5-1.9-2.4-3.8-4.3-4.7  c-3.3-1.9-7.1-2.8-10.4-4.3c-4.3-1.4-9-2.8-12.8-5.2c-2.8-1.9-5.7-3.8-7.6-7.1c-2.4-3.8-3.3-9-2.8-13.7c0.5-4.3,2.4-8.5,5.7-11.4  C178.5,4,182.3,2.1,186.1,1.1L186.1,1.1z"></path>	<path class="st0" d="M481.6,4.4c5.2-3.3,11.4-4.3,17-4.3c7.6,0,15.2,1.9,21.3,6.2c0,4.3,0,8.5,0,13.3c-2.8-1.9-5.7-3.8-8.5-5.2  c-5.2-2.4-11.4-3.3-17-2.4c-3.3,0.5-6.6,1.9-8.1,4.7c-1.4,3.3-0.9,7.6,1.4,9.9c2.4,1.9,4.7,2.8,7.6,3.8c4.3,1.4,8.5,3.3,12.8,4.7  c3.8,1.4,7.6,3.8,10.4,6.6s4.3,6.2,4.7,9.9c0.5,4.3,0.5,8.5-1.4,12.3c-1.4,3.3-3.8,6.2-6.6,8.1c-3.3,2.4-7.6,3.8-11.8,4.7  c-5.7,0.9-11.8,0.5-17.5-0.5c-4.7-0.9-9.5-2.8-13.3-5.7c0-4.3,0-9,0-13.3c5.2,4.3,10.9,7.1,17.5,8.1c2.8,0.5,5.7,0.5,8.5,0.5  s5.7-0.9,8.1-2.4c1.9-1.4,3.3-3.3,3.8-5.2c0.5-2.4,0-5.7-1.9-7.6c-1.4-1.9-3.8-2.8-5.7-3.8c-3.3-1.4-7.1-2.8-10.9-3.8  c-3.3-1.4-7.1-2.4-9.9-4.3s-5.7-3.8-7.1-7.1c-1.9-2.8-2.8-6.2-2.8-9.5c0-2.8,0-6.2,1.4-9C475.4,9.6,478.2,6.8,481.6,4.4L481.6,4.4z  "></path>	<path class="st0" d="M562.5,2.1c3.3-1.4,7.1-1.9,10.9-1.9c7.6,0,15.6,1.9,22.3,5.7c0.5,0,0.5,0.5,0.5,0.5c0,4.3,0,8.5,0,12.8  c-2.8-2.4-6.2-4.3-9.9-5.7c-4.3-1.9-9-2.4-14.2-2.4c-2.4,0-4.7,0.5-7.1,1.9c-1.4,0.9-2.8,2.4-3.3,3.8c-1.4,3.3-0.5,7.1,2.4,9.5  c2.8,2.4,6.6,3.3,10.4,4.7c4.3,1.4,8.5,2.8,12.3,4.7c3.8,1.9,7.1,4.3,9.5,7.6c2.4,3.8,3.8,8.1,3.8,12.3c0,3.8-0.9,8.1-3.3,10.9  c-2.4,3.3-5.7,5.7-9,7.6c-3.8,1.9-8.1,2.4-12.3,2.8c-4.7,0-9.5,0-14.2-1.4c-4.3-0.9-8.5-2.8-11.8-5.2c0-4.3,0-9,0-13.3  c6.6,5.2,14.7,8.5,23.2,8.5c3.8,0,7.6-0.5,10.4-1.9c1.9-0.9,3.3-2.4,3.8-4.3c0.9-2.4,0.9-4.7,0-6.6s-2.4-3.8-4.3-4.7  c-3.3-1.9-7.1-3.3-10.9-4.3c-4.3-1.4-8.5-2.8-12.8-5.2c-3.3-1.9-6.2-4.3-8.1-7.6c-1.9-3.3-2.8-7.6-2.4-11.4c0-3.8,1.4-7.6,3.3-10.4  C555,5.9,558.8,3.5,562.5,2.1L562.5,2.1z"></path>	<path class="st0" d="M301.6,0.2c17,16.1,34.1,32.7,51.1,48.8c0-16.1,0-31.7,0-47.8c4.3,0,8.1,0,12.3,0c0,25.1,0,50.7,0,75.8  c-11.4-11.4-23.2-22.3-34.6-33.6c-5.7-5.2-10.9-10.9-16.6-16.1c0,16.1,0,32.2,0,48.3c-4.3,0-8.1,0-12.3,0  C301.6,50.8,301.6,25.7,301.6,0.2L301.6,0.2z"></path>	<path class="st0" d="M0,1.6c6.6,0,13.3,0,19.4,0c4.7,0,9,0,13.7,0.5c4.7,0.5,9,2.4,12.3,5.2c2.8,2.4,4.7,5.7,5.2,9  c0.9,3.8,0.9,8.1-0.5,11.8c-1.4,4.3-4.3,7.6-8.5,9.5c0.9,0.5,1.9,0.5,2.4,0.9c3.8,1.9,6.6,5.2,8.1,9c1.4,2.8,1.4,6.2,1.4,9.5  c-0.5,4.3-1.4,8.1-4.3,11.4c-2.8,3.8-7.1,5.7-11.8,7.1C34.1,76,29.8,76.4,26,76c-8.5,0-17.5,0-26,0C0,51.3,0,26.2,0,1.6L0,1.6z   M12.3,12.5c0,6.6,0,13.7,0,20.4c5.2,0,9.9,0,15.2,0c3.3,0,6.6-0.9,9-2.8c1.9-1.4,2.8-3.8,2.8-6.2s-0.5-5.2-1.9-7.6  c-1.9-1.9-3.8-2.8-6.2-3.3c-2.8-0.5-5.2-0.5-8.1-0.5C19.8,12.5,16.1,12.5,12.3,12.5L12.3,12.5z M12.3,43.3c0,7.1,0,14.7,0,21.8  c5.2,0,10.4,0,16.1,0c2.8,0,6.2-0.5,8.5-2.4c2.4-1.4,3.8-3.8,4.3-6.2c0.5-2.8,0-5.7-1.4-8.1c-0.9-1.9-3.3-3.3-5.2-4.3  c-1.9-0.5-4.3-0.9-6.2-0.9C22.7,43.3,17.5,43.3,12.3,43.3L12.3,43.3z"></path>	<path class="st0" d="M80.9,1.6c4.3,0,8.5,0,12.8,0c0,12.8,0,25.6,0,38.4c0,4.7,0,9,0.9,13.7c0.9,3.8,2.8,7.1,5.7,9.5  c2.9,2.4,6.6,2.8,10.4,2.8s7.6-0.9,10.9-3.3c2.4-1.9,4.3-4.7,5.2-7.6c0.9-3.3,0.9-7.1,0.9-10.9c0-14.2,0-28.4,0-42.6  c4.3,0,8.5,0,12.8,0c0,14.7,0,29.8,0,44.5c0,6.2-0.9,12.3-3.8,18c-2.4,4.7-6.6,8.5-11.8,10.9c-5.7,2.4-11.8,3.3-18,2.8  c-4.3-0.5-8.5-1.4-12.3-3.3c-2.8-1.4-5.2-3.3-7.1-5.7c-2.4-2.8-4.3-6.2-5.2-9.9c-1.4-4.3-1.9-8.1-1.4-12.3  C80.9,31,80.9,16.3,80.9,1.6L80.9,1.6z"></path>	<path class="st0" d="M253.3,1.6c4.3,0,8.5,0,12.8,0c0,25.1,0,49.7,0,74.8c-4.3,0-8.5,0-12.8,0C253.3,51.3,253.3,26.2,253.3,1.6  L253.3,1.6z"></path>	<path class="st0" d="M398.7,1.6c15.2,0,30.3,0,45,0c0,3.8,0,7.6,0,11.4c-10.9,0-21.8,0-32.7,0c0,6.2,0,11.8,0,18  c9.9,0,19.4,0,29.4,0c0,3.8,0,7.6,0,10.9c-9.9,0-19.4,0-29.4,0c0,7.6,0,15.6,0,23.2c10.9,0,21.8,0,32.7,0c0,3.8,0,7.6,0,11.4  c-15.2,0-30.3,0-45,0c0-20.4,0-40.3,0-60.6C398.7,11.1,398.7,6.3,398.7,1.6L398.7,1.6z"></path>	<path class="st0" d="M98.5,113.8c17,16.1,34.1,32.2,50.7,48.3c0-15.6,0-31.3,0-46.9c4.3,0,8.1,0,12.3,0c0,25.1,0,49.7,0,74.8  c-17-16.1-34.1-32.7-50.7-48.8c0,16.1,0,31.7,0,47.8c-4.3,0-8.1,0-12.3,0C98.5,163.6,98.5,138.5,98.5,113.8L98.5,113.8z"></path>	<path class="st0" d="M204.5,116.2c4.7-2.4,9.9-2.8,15.2-2.8c7.1,0.5,14.2,2.4,19.9,6.2c0,4.3,0,8.5,0,12.8  c-2.8-2.4-6.2-4.3-9.5-5.7c-4.7-1.9-9.5-2.8-14.7-2.4c-2.4,0-4.7,0.9-6.6,1.9c-1.4,0.9-2.8,2.4-3.3,3.8c-0.9,2.8-0.5,6.2,1.9,8.5  c1.9,1.9,3.8,2.8,6.2,3.3c4.3,1.4,9,3.3,13.3,4.7c3.3,1.4,7.1,2.8,9.9,5.2c2.8,2.4,4.7,5.7,5.7,9c0.9,3.8,0.9,7.6,0.5,11.4  c-0.9,3.8-2.8,6.6-5.2,9.5c-2.8,2.8-6.2,4.3-9.9,5.7c-4.7,1.4-9.5,1.4-14.2,1.4c-4.7-0.5-9.9-1.4-14.2-3.3  c-1.9-0.9-3.8-1.9-5.7-2.8c0-4.3,0-8.5,0-13.3c6.6,5.2,14.7,8.5,22.7,8.5c3.8,0,7.1-0.5,10.4-1.9c1.9-0.9,3.3-2.8,3.8-4.7  c0.5-1.9,0.5-4.3,0-6.2c-0.9-1.9-2.4-3.8-4.3-4.7c-3.3-1.9-6.6-2.8-10.4-4.3c-3.8-1.4-8.1-2.8-11.8-4.7c-3.3-1.9-6.6-4.3-8.5-7.6  c-1.9-3.3-2.8-7.1-2.8-10.9s0.9-7.1,2.8-10.4C198.4,120,201.2,118.1,204.5,116.2L204.5,116.2z"></path>	<path class="st0" d="M50.1,114.8c4.3,0,8.5,0,12.8,0c0,24.6,0,48.8,0,73.4c-4.3,0-8.5,0-12.8,0C50.1,164,50.1,139.4,50.1,114.8  L50.1,114.8z"></path>	<path class="st0" d="M276,114.8c4.3,0,8.5,0,12.8,0c0,24.6,0,48.8,0,73.4c-4.3,0-8.5,0-12.8,0C276,164,276,139.4,276,114.8  L276,114.8z"></path>	<path class="st0" d="M325.3,114.8c9.9,0,19.4,0,29.4,0c7.6,0,15.2,1.9,21.3,6.6c5.2,3.8,9,9,11.4,15.2c1.9,5.2,2.4,10.4,2.4,15.6  c0,7.6-1.9,15.2-6.2,21.8c-3.3,5.2-8.5,9.5-14.7,11.8c-4.7,1.9-9.5,2.8-14.7,2.8c-9.9,0-19.4,0-29.4,0  C325.3,164,325.3,139.4,325.3,114.8L325.3,114.8z M338.1,126.1c0,17,0,34.1,0,51.1c3.8,0,8.1,0,11.8,0c2.4,0,4.7,0,7.1,0  c4.7-0.5,9-2.4,12.8-5.7c2.8-2.8,5.2-6.6,6.2-10.4c0.9-3.8,1.4-8.1,0.9-11.8c-0.5-3.8-0.9-7.1-2.4-10.4c-1.4-3.3-3.8-6.2-6.6-8.1  c-3.3-2.4-7.1-3.8-11.4-3.8c-2.4-0.5-4.7,0-7.1,0C345.6,126.1,341.9,126.1,338.1,126.1L338.1,126.1z"></path>	<path class="st0" d="M416.2,114.8c15.2,0,29.8,0,45,0c0,3.8,0,7.6,0,10.9c-10.9,0-21.8,0-32.7,0c0,5.7,0,11.8,0,17.5  c9.9,0,19.4,0,29.4,0c0,3.8,0,7.1,0,10.9c-9.9,0-19.4,0-29.4,0c0,7.6,0,15.2,0,22.7c10.9,0,21.8,0,32.7,0c0,3.8,0,7.6,0,11.4  c-15.2,0-29.8,0-45,0C416.2,164,416.2,139.4,416.2,114.8L416.2,114.8z"></path>	<path class="st0" d="M498.6,114.8c9,0,18.5,0,27.5,0c4.7,0,9,0.9,13.3,2.8c3.3,1.4,6.2,3.8,8.1,7.1c2.4,3.8,3.3,8.1,3.3,12.3  c0,4.3-0.5,9-2.8,12.8c-1.9,2.8-4.3,5.2-7.1,6.6c-2.4,0.9-4.7,1.4-7.1,1.9c9,9.9,17.5,20.4,26.5,30.3c-4.7,0-9.5,0-14.2,0  c-8.5-9.9-17-19.9-25.6-29.8c-2.8,0-5.7,0-9,0c0,9.9,0,19.9,0,29.8c-4.3,0-8.5,0-12.3,0C498.6,164,498.6,139.4,498.6,114.8  L498.6,114.8z M510.9,125.7c0,7.6,0,15.2,0,22.3c4.7,0,9.5,0,14.7,0c3.3,0,6.6-0.9,9-3.3c1.9-1.4,2.8-3.8,2.8-5.7  c0.5-2.8,0-5.7-1.4-8.5c-1.4-2.4-3.8-3.8-6.6-4.3c-2.8-0.9-5.2-0.5-8.1-0.5C518,125.7,514.7,125.7,510.9,125.7L510.9,125.7z"></path></g></svg>