<svg xmlns:svg="http://www.w3.org/2000/svg" xmlns="http://www.w3.org/2000/svg" xmlns:xlink="http://www.w3.org/1999/xlink" id="svg2697" x="0px" y="0px" viewBox="0 0 850.4 151.8" style="enable-background:new 0 0 850.4 151.8;" xml:space="preserve"><style type="text/css">	.st0{fill:#FFFFFF;}	.st1{fill-rule:evenodd;clip-rule:evenodd;fill:#FFFFFF;}	.st2{fill:#FFFFFF;stroke:#231F20;stroke-width:0.2274;stroke-miterlimit:3.864;}</style><g>	<path id="path10227" class="st0" d="M68.7,3.2C68,11,59.1,22.5,48.6,23.1c-10.8,0.4-22.2-10.2-33.5-9.8c-6,0.2-13,2.8-13.3,10.2  c-0.1,6,4.9,8.8,12.4,8.7c6.4-0.4,7.8-1.2,12.9-4.3c-2.5,4.3-7.5,7.1-12.9,7.6c-9-0.2-13.4-6-14.2-12.6C-0.6,15.3,6.6,1,22.4,1  c14.1,0,25.5,8.8,33.5,9C61.5,9.9,65,6.8,68.7,3.2"></path>	<path id="path10229" class="st0" d="M53.2,35.9c3.4,0,6.5,3,6.5,7.1c0,3.7-3.3,6.6-6.5,6.6c-3.4,0-8.6-3.8-4.9-9.5  c0,0-5.4,2.4-3.9,8.6c5.1,3.9,12.3,9.9,10.9,20.1C53.7,80.3,36.8,83,34.1,93c-3-7.1-7.5-10.5-13.3-10.4c-9.9,0.1-15.7,8-15.5,13.8  c0.4,9.2,6.3,13,19,12.7c12-0.6,19.2-5.8,24.2-13.9c-1.6,5.7-7.9,19.1-25,19.3C7.5,114.4,2.3,102.6,2.2,94  C2.4,78.1,15,71.8,23.5,71.7c9.2-0.1,13.1,4.1,18.5,9.7c0,0,3-6.4-0.5-12.3c-6.2-10.7-16.5-8.5-18.9-21.7c-2-11,13-22.6,17.5-23.9  c-3.4,3.6-9,7.6-5.5,16.6c1.5,4,7.9,7.1,7.9,7.1C42.5,43.8,45.4,35.8,53.2,35.9"></path>	<path id="path10231" class="st0" d="M65.5,42.2l8.2-11.6c0,0,6.5,0.9,9.9,9l6.7-8.7c0,0,5,8,11.9,0.5c0,0-3.2,12.7-11.5,13.1  c-3,0.1-6.3-2.3-6.3-2.3l0,35.1c0,0-0.6,4.1,5.1,5.4c0,0-5.7,5.9-9.5,11.6c-4.8-5.9-10.6-10.6-10.6-10.6s2.7-1,2.7-4.9l0-34.2  C72.1,44.4,71.5,39.1,65.5,42.2"></path>	<path id="path10233" class="st1" d="M124.7,30.9c0,0-9.1,7.6-17.1,10.4c-6.2,2.2-6.1,8.1-6.1,8.1l0,32c0,0-1.5,6.1,11.3,13.1  c0,0,3.7-6.6,8.9-11.9c0,0,0.8,8.1,9.3,11.3c0,0,2.4-6.7,7.8-10.6c-2.4-1.1-5.7-2.4-5.7-7.5l-0.1-31.3c0,0-0.3-1.2,2.1-3.8  L124.7,30.9z M116.4,39.3c-2.7,1.3-3.4,3.8-3.4,6.2v30.6c-0.1,2.8,1.6,6,4.4,6c3.9,0,4-4.4,4-4.4l0-31.8  C121.4,45.9,121.7,42.8,116.4,39.3"></path>	<path id="path10235" class="st0" d="M153,31.3c-4,5.7-9.4,12.1-9.4,12.1s5.7,0.8,5.5,4.9l0.1,30c0,4.6-2.9,4.8-2.9,4.8  s5.5,4.5,9.2,11.1c0,0,4-7,8.4-11.3c0,0-2.9,0.1-2.9-5l-0.1-29.6c0.1-1.8,2.4-4.6,4.3-4.6c4.1,0,4.8,3.3,4.7,5.8v30.7  c-0.1,4.2-0.1,8.3,8,13.9c0,0,4.2-6.7,9.4-11.2c0,0-5.6,0.6-5.6-5.8l-0.1-31c0,0,0-4.1,1.5-5.1c0,0-5.9-4.4-10.4-10.1l-11.7,13  C159,32.9,153,31.3,153,31.3"></path>	<path id="path10237" class="st1" d="M217.8,9.1c-1.1-1.4-2.7,0.7-2.7,0.7l-6,7.4l-0.1-4c-0.1-3.2,1.3-6.5,4.5-9.1  c0,0-9.2-0.8-12.1,10.5c0,0-3.5-2.2-5.7-1.9c0.7,1.4,0.7,3.6,0.7,3.6v16.8l-3.1,0v5.4l3.2,0l-0.1,39.8c0,3.7-2.7,4.7-2.7,4.7  s5.8,4.1,9.7,12.2c0,0,3.4-7.6,11.7-11.7c0,0-6-1.2-6.1-5.9l0-39.1l5.3,0v-5.4l-5.2,0l0-0.9l7.4-6.5C224.3,18.1,220,10.4,217.8,9.1  z M209,18.9v12C209,30.8,217.2,24.8,209,18.9"></path>	<path id="path10239" class="st0" d="M246.2,1.8c0,0-5.2,15.6-20.3,16.3l0.1,14.1h-3.7V38l3.5,0l0.1,78.9h2.5v-15.1  c0,0-0.2-6.6,3.8-7.3l3.5-0.5c0,0,3,0,2.9-3.2l-0.1-52.7l6.2,0v-5.8l-5.9,0l0-17.7c0,0,15,12.7,20.4-11.4C259,3,253,12.8,246.2,1.8  "></path>	<path id="path10241" class="st0" d="M259.4,31c-4.4,6.7-9.4,10.1-9.4,10.1s4,0.8,4.1,5.3l0.2,33.7c0,3.5-2.3,4.3-2.3,4.3  c4.5,3.6,9.9,10.5,9.9,10.5s9.2-11,13.7-13.9c-1.6,7.9,8.4,13.6,8.4,13.6l8-11.1c0,0-4.3-1.1-4.5-5.7l-0.1-32  c0.1-3.7,2.4-5.4,2.4-5.4c-6.1-3.9-8.1-9.9-8.1-9.9c-3.3,6.9-9.1,10.8-9.1,10.8s2.7,1.8,2.7,4.3l0.1,30.8c0,2.4-1.5,5.7-4.9,5.7  c-2.8,0-4.1-3.4-4.3-4.8L266,43.3C266,35.6,259.4,31,259.4,31"></path>	<path id="path10243" class="st0" d="M298.2,42.7l8.3-11.6c0,0,5.3,2,8.1,9.3l5.1-9.4c0,0,3.5,6.7,8.6,0.6c0,0,0.6,15-7.6,15.1  c-3.3,0-5.7-3-5.7-3l0,33.6c0,0-0.8,6.6,6.7,6.2c0,0-6.9,5-10.1,11.3c-4.8-5.9-11.5-10.5-11.5-10.5s3.2-0.8,3.3-4.5l-0.1-31.3  C303.2,48.3,303.6,43.5,298.2,42.7"></path>	<path id="path10245" class="st0" d="M335.2,32.8l-2.5,0l0,6.2l2.6,0l0.1,41.4c0.1,2.8-2,4.2-2,4.2s4.8,3.7,9.2,9.3  c4.6-6.6,11.2-10.1,11.2-10.1s-6.6-0.7-6.6-4.7l-0.1-40.2l6.5,0l0-6.1l-6.3,0l-0.1-18.3l-12,4.4L335.2,32.8"></path>	<path id="path10247" class="st1" d="M382.6,30.7c-4.5,4.6-7.9,4.8-10.8,6.3c-5,2.6-11.9,4.4-11.9,13.8l0,27.6  c0.1,11.7,9.8,12.6,15.7,15.8c3.9-7.5,12.5-13.6,12.5-13.6l-1.3-0.8c0,0-3.1,3.3-7.1,3.2c-7.5-0.3-7.6-8.1-7.6-8.1v-12  c0,0,9.9-4.2,15.1-9.8c2.2-2.4,3.1-4,3.2-7.4C390.6,39.9,385.8,36,382.6,30.7z M373.5,38.6c0,0-1.5,0.9-1.4,7.7l0,15.4  C372.1,61.7,388.1,55.4,373.5,38.6"></path>	<path id="path10249" class="st0" d="M392.8,40.9c3.9-3.1,9-10.7,9-10.7s4.6,1.6,7.9,9.6c2.8-3.6,5.5-9.7,5.5-9.7s5.1,8.9,10.9,0  c0,0-1.2,15-9.8,15.8c-3.3,0.3-6.3-4-6.3-4v34.3c0,5.6,6.8,6.5,6.8,6.5s-7,3.9-10.5,11c-4.8-5.9-10.4-10.5-10.4-10.5  s2.1-0.4,2.2-4.1l0-32.7C398.2,40.4,392.8,40.9,392.8,40.9"></path>	<path id="path10251" class="st1" d="M464.1,20.9c0,0-3.8,2.6-6.9,2.6c-2.9,0-5.2-2.5-5.2-5.1c0-3.8,4.1-5.7,7.9-5.7  c7.7,0,9.3,10.7,9.3,10.7l-18.1,51.9c-9.2,0.1-16.9,9.1-16.8,19.9c0.1,11.2,9.4,19.3,21.5,19.2c18.7-0.1,24.2-17.8,24.2-17.8  c-3.7,3.8-7.1,12.4-24.6,12.3c-8.7,0-18.2-3.6-18.4-11.2c-0.1-4.2,4.5-8.6,10-8.6c6.5,0,10.5,4.5,10.5,4.5l13.4-14.3l-1-1.1  l-3.2,3.2c-4.8-5.3-12.5-6.1-12.5-6.1l5.5-16.2l17.9,0l6.1,26c1.9,6.8,5.5,5.1,11.7,9.7L502,81c0,0-5.3,1.4-6.9-4.6l-14.4-61.3  c0,0-2.9-15.1-17.6-15.1C454.6,0,447,5.7,447,14.5c0,5.7,4.6,10.7,10.2,10.7C461.7,25.2,464.1,20.9,464.1,20.9z M470.2,28L461,54.8  l15.3,0L470.2,28"></path>	<path id="path10253" class="st0" d="M507.4,78.3c0.1,2.8-3.9,4-3.9,4s5.6,5.2,10.5,12.3c3.9-7.9,10.4-11.3,10.4-11.3  s-4.8-0.3-4.8-4.3V6.4l-12.3,5.8V78.3"></path>	<path id="path10255" class="st0" d="M534,77.9c0,3.2-2.6,4.8-2.6,4.8s5.5,5.5,9.5,12c4.1-8.3,10.7-11.4,10.7-11.4s-5.3-0.3-5.3-4.2  V5.3L534,12.3V77.9"></path>	<path id="path10257" class="st1" d="M583.4,30c-14,10.1-23.6,7.5-23.7,17.1l0.1,34.1c0,6.3,5,9.6,10.4,13.2l9.8-11.7l0,6.5  c-0.1,7.6,5.5,7.2,5.5,14.5c-0.1,5.4-4.4,8-8.7,8c-7.7,0-9.6-4.4-9.6-4.4s0.1,0.6,2.1,0.6c3.8-0.1,6.2-2.2,6.1-5.8  c0-3.5-2.8-5.8-6.2-5.8c-3.6,0.1-6.2,2.8-6.2,5.8c0,4.9,2.9,11.3,14.6,11.2c11.7,0,19.7-8.8,19.7-15.7c0-5.4-5-6.6-5-12.9L592.1,43  c0-2.5,2.1-4.5,2.1-4.5C587.8,34.9,583.4,30,583.4,30z M580,43.9l-6.1-6.2c0,0-2,1.2-2,6.2l0.1,33.6c0.2,3.6,1.4,5.1,4.4,5  c2.8-0.1,3.7-1.6,3.7-5.3L580,43.9"></path>	<path id="path10259" class="st1" d="M628.6,30c-3.2,2.6-9.8,6.1-12.8,7.2c-11.1,3.9-11.2,5.4-11.2,13.7l0,28.1  c0,12.6,9.8,10.7,16.1,15.3c1.4-6.3,10.2-13.7,10.2-13.7l-0.5-0.6c0,0-2.3,2-6.4,1.8c-7.5-0.3-7.4-7-7.4-7V63.9  c0,0,8.7-4.9,14.7-10.5c2.4-2.2,3.1-4.3,3.2-7.7C634.5,39.9,631.2,38.5,628.6,30z M618.1,37.9c0,0-1.7,1.6-1.6,8.4l0,16.3  C616.5,62.6,631.4,57.5,618.1,37.9"></path>	<path id="path10261" class="st0" d="M648.3,29.9l-9.8,11.6c0,0,5.7,0.4,5.7,4.4l0.2,32.6c-0.1,4.3-1.9,5.3-1.9,5.3  s4.8,4.2,8.6,10.7c2.8-6.3,8.4-11.4,8.4-11.4s-2.5-2.2-2.6-5.4L656.7,48c0.5-2.7,2.3-4.1,4-4.2c2.1-0.1,3.9,1.6,4,3.8l0.2,30.6  c0,2.9-1.8,4.3-1.8,4.3s4.5,5.6,7.6,12.1c3.4-7.6,9-11.7,9-11.7s-3-2.3-3-6.4L676.6,47c0.5-2.6,1.8-3.7,3.8-4.1  c2.1-0.4,3.9,1.2,4.3,3.3l0.3,35.9c0,5.9,4.9,8.8,10.1,11.9c2.3-6.7,8.3-11.9,8.3-11.9s-6.7,0.7-6.7-5.4L696.3,43  c0.1-2.8,2.4-4.4,2.4-4.4c-6.3-2.8-11.2-8.6-11.2-8.6l-11.1,13.5c0.5-7.1-7.7-13.3-7.7-13.3l-12,14.6  C655.7,32.3,648.3,29.9,648.3,29.9"></path>	<path id="path10263" class="st1" d="M732.3,29.8c-17.1,13.1-22.1,11.1-22.1,17.6l0,34.8c0,7.7,6.5,7.5,12.8,12.1  c3-5.6,8.6-10.4,13.5-13.8l-0.6-0.7c0,0-2.8,2.2-6.9,2.2c-8.3-0.2-7.4-7.1-7.4-7.1l0-11.1c0,0,6.5-3.5,12.7-8.9  c2.5-2.2,4.3-5.6,4.4-9C739.1,39.6,735.4,38.1,732.3,29.8z M722.1,38.5c0,0-0.5,1-0.4,7.8l0,15.9C723.4,61.1,735.7,54.8,722.1,38.5  "></path>	<path id="path10265" class="st1" d="M844.3,29.4c-10.2,10.5-23.2,9.7-23.4,20.1l0.1,32.8c0.3,6.2,5.7,7.3,12,11.9  c5.1-7.5,11.3-11,16.2-14.5l-0.6-0.7c0,0-4.9,3.9-9,3.8c-8.3-0.2-7.1-7.9-7.1-7.9v-12c0,0,5.3-2.6,12.7-7.9c2.7-1.9,5-4.7,5.2-8  C850.7,40.7,847.5,39.9,844.3,29.4z M833.8,38c0,0-1.4,1.5-1.3,8.3l0,15.3C839.6,58.5,843.3,46.6,833.8,38"></path>	<path id="path10267" class="st0" d="M778.3,30.3L770.2,41c0,0,6.1,0.9,5.8,5.1l0.1,32.9c0.1,1.5-2.2,3.7-2.2,3.7s5.2,5.5,7.2,11.2  c3.9-6.1,9.5-11.2,9.5-11.2s-3-1.6-3-4.7V48.2c0.9-2.6,2.5-4.3,4.5-4.4c1.9-0.1,4.2,1.7,4,3.8l0.1,32.5c0,10.1,9,13.7,9,13.7  l7.7-11.1c0,0-5,0-5.1-3.8l-0.1-34.6c0.3-3.1,2.1-4.7,2.1-4.7c-5.9-2.4-10-7.9-10-7.9l-11.7,12.9C787.5,32.7,778.3,30.3,778.3,30.3  "></path>	<path id="path10269" class="st0" d="M753.8,30.4c-3.2,4.9-10.1,9.9-10.1,9.9s4.7,0.7,4.7,4.6v33.6c0.1,2.8-2.7,4.5-2.7,4.5  s4.9,5.2,8,10.8c3.8-5.8,9-10.9,9-10.9s-2.7-1.7-2.6-4.5l-0.1-33.8c0.1-3.1,2.6-4.7,2.6-4.7C757.9,36.2,753.8,30.4,753.8,30.4"></path>	<path id="path10271" class="st0" d="M747.3,11.9c0-3.7,3-6.7,6.7-6.7c3.7,0,6.7,3,6.7,6.7s-3,6.7-6.7,6.7  C750.3,18.6,747.3,15.6,747.3,11.9"></path>	<path id="path10301" class="st2" d="M147.4,129.7l-0.3,5.3h0.6c0.4-3.4,1.3-4.1,4.7-4.1h7l-14.2,19.7v0.6h18.5l1-5.7h-0.5  c-1,3.6-1.8,4.4-5.2,4.4h-9.1l14.6-20.1H147.4z M187.2,129.7h-17v0.6c2.2,0,3.1,0.7,3.1,2.4V148c0,1.8-0.6,2.8-3.1,2.7v0.6h17.3  l1.7-5.4h-0.7c-1.3,3-3.1,4.1-5.2,4.1h-5.4c-0.9,0-1.3-0.5-1.3-1.7v-7.8h5.4c2.2,0,2.9,0.9,2.9,3.2h0.6v-7.6H185  c0,2.1-0.7,3.1-2.8,3.1h-5.5V131h6.7c2,0,3.1,0.9,3.6,3.5h0.5L187.2,129.7z M194.1,130.3c2.6,0,3.2,0.8,3.2,2.7v15  c0,2.1-0.6,2.7-3.2,2.7v0.6h9.9v-0.6c-2.5,0-3.2-0.6-3.2-2.7v-15c0-2.3,1-2.8,3.2-2.7v-0.6h-9.9V130.3z M216.5,131.1V148  c0,1.7-0.5,2.8-3.1,2.7v0.6h9.6v-0.6c-2.1,0-3.1-0.6-3.1-2.5v-17.1h3.5c2.4,0,3.6,1.3,3.8,3.5h0.6l-0.2-4.9h-19l-0.2,4.9h0.6  c0.2-2.3,1.5-3.5,3.5-3.5H216.5z M230.8,130.3c2.9-0.1,3.2,0.8,3.2,3.6v10.2c0,4.3,2.7,7.6,9,7.6c5.7,0,8.6-3.5,8.6-7.9V133  c0-2.1,0.7-2.8,3.3-2.7v-0.6h-7.9v0.6c2.4-0.1,3.2,0.8,3.2,2.6v10.5c0,4.6-2.3,6.9-7,6.9c-3.8,0-5.9-2.3-5.9-5.7V133  c0-2.1,0.8-2.7,3-2.7v-0.6h-9.6V130.3z M283.9,129.7H276v0.6h0.8c1.8,0,2.3,0.7,2.3,2.5v12.8l-13.9-15.9H259v0.6  c2,0,3.2,0.7,4.4,2.5V148c0,1.8-0.8,2.7-3.2,2.7v0.6h7.7v-0.6c-2.3,0-3.1-0.8-3.1-3.1v-13.4l15.3,17.3h0.4v-18.2c0-2.7,0.3-3,2.5-3  h0.8V129.7z M309.3,129.3h-0.6c-0.1,0.9-0.5,1.5-1,1.5c-0.7,0-3-1.5-6.6-1.5c-6.9,0-12.3,5.3-12.3,11.9c0,4.9,4.2,10.5,12.8,10.5  c3.6,0,5.5-0.6,8.5-2.2v-5.9c0-2.4,0.4-3.1,2.8-3.3v-0.6h-9.2v0.6c2.5,0,3,1,3,2.6v6.1c-1.7,1.1-3.1,1.6-4.8,1.6c-5,0-9.2-4-9.2-10  c0-6.6,4.1-10,8.7-10c3.3,0,7,2,8,5.7h0.6L309.3,129.3z M351.7,129.7h-18.2v0.6c2,0,3,0.6,3,2.5V148c0,1.8-0.6,2.8-3,2.7v0.6h9.5  v-0.6c-2.3,0-3.1-0.7-3.1-2.7v-7.5h5.6c2.1,0,2.9,0.9,2.8,3h0.6v-7.3h-0.6c0.2,2.4-0.9,3-3.1,3h-5.2v-8.5h6.7  c3.1,0,4.5,1.1,4.8,3.6h0.6L351.7,129.7z M356.4,130.3c2.9-0.1,3.2,0.8,3.2,3.6v10.2c0,4.3,2.7,7.6,9,7.6c5.7,0,8.6-3.5,8.6-7.9  V133c0-2.1,0.7-2.8,3.3-2.7v-0.6h-7.9v0.6c2.4-0.1,3.2,0.8,3.2,2.6v10.5c0,4.6-2.3,6.9-7,6.9c-3.8,0-5.9-2.3-5.9-5.7V133  c0-2.1,0.8-2.7,3-2.7v-0.6h-9.6V130.3z M365.6,123.4c-0.9,0-1.7,0.7-1.7,1.7s0.7,1.7,1.7,1.7s1.7-0.8,1.7-1.7  S366.5,123.4,365.6,123.4z M371,123.4c-0.9,0-1.7,0.7-1.7,1.7s0.7,1.7,1.7,1.7s1.7-0.8,1.7-1.7S371.9,123.4,371,123.4z   M397.6,140.9c3.7-0.9,5.4-2.9,5.4-5.5c0-3.2-2.9-5.6-6.6-5.6h-10.8v0.6c2.3,0,3,0.9,3,2.5v15.4c0,1.5-0.5,2.6-3,2.5v0.6h9.4v-0.6  c-2.6,0.1-3-1.2-3-2.7v-6.9h2.1l8.1,10.1h5.6v-0.6c-1.7-0.2-3.1-1.1-4.7-3.2L397.6,140.9z M392,131.4c1-0.4,1.6-0.6,2.4-0.6  c2.7,0,4.8,2,4.8,4.6c0,3-2.4,4.7-6.3,4.7H392V131.4z M426.1,130.3c2.3,0,3.2,0.7,3.2,2.6v15c0,1.8-0.5,2.7-3.2,2.7v0.6H437  c7.3,0,12.5-4.5,12.5-10.8c0-4.8-3.4-10.7-11.6-10.7h-11.9V130.3z M432.7,131.5c1.1-0.4,2.3-0.5,3.5-0.5c5.6,0,9.5,4,9.5,9.7  c0,5.7-3.8,9.5-9.6,9.5c-1.3,0-2.3-0.2-3.4-0.5V131.5z M472.4,129.7h-17v0.6c2.2,0,3.1,0.7,3.1,2.4V148c0,1.8-0.6,2.8-3.1,2.7v0.6  h17.3l1.7-5.4h-0.7c-1.3,3-3.1,4.1-5.2,4.1h-5.4c-0.9,0-1.3-0.5-1.3-1.7v-7.8h5.4c2.2,0,2.9,0.9,2.9,3.2h0.6v-7.6h-0.6  c0,2.1-0.8,3.1-2.8,3.1h-5.5V131h6.7c2,0,3.1,0.9,3.6,3.5h0.5L472.4,129.7z M479.2,130.3c2.9-0.1,3.2,0.8,3.2,3.6v10.2  c0,4.3,2.7,7.6,9,7.6c5.6,0,8.6-3.5,8.6-7.9V133c0-2.1,0.7-2.8,3.3-2.7v-0.6h-7.9v0.6c2.4-0.1,3.2,0.8,3.2,2.6v10.5  c0,4.6-2.3,6.9-7,6.9c-3.8,0-5.9-2.3-5.9-5.7V133c0-2.1,0.7-2.7,3-2.7v-0.6h-9.6V130.3z M514.7,131.1V148c0,1.7-0.5,2.8-3.1,2.7  v0.6h9.6v-0.6c-2.1,0-3.1-0.6-3.1-2.5v-17.1h3.5c2.4,0,3.6,1.3,3.9,3.5h0.6l-0.2-4.9h-19l-0.2,4.9h0.6c0.2-2.3,1.5-3.5,3.5-3.5  H514.7z M543.9,129.3h-0.6c-0.3,0.8-0.6,1.2-1.2,1.2c-1.2,0-2.3-1.2-4.9-1.2c-3.4,0-6.1,2.4-6.1,5.6c0,1.4,0.5,2.8,1.6,3.9  c1.5,1.5,6.1,3.6,8.2,5.6c0.8,0.8,1.2,1.8,1.2,2.7c0,2-1.7,3.4-4.1,3.4c-3.5,0-5.5-2.6-6.2-6h-0.6v7.2h0.6c0.3-0.8,0.7-1.1,1.3-1.1  c1.1,0,2.7,1.1,5.5,1.1c3.7,0,6.6-2.7,6.6-5.9c0-1.3-0.6-2.8-1.9-4.2c-2.1-2.1-7-4.3-8.4-5.7c-0.7-0.7-1-1.3-1-2.3  c0-1.7,1.7-3.2,3.7-3.2c2.8,0,5.3,2.6,5.7,5.9h0.6V129.3z M571.1,129.3h-0.5c-0.2,0.9-0.7,1.4-1.2,1.4c-0.7,0-2.6-1.4-6-1.4  c-6.5,0-11.7,5.1-11.7,11.5c0,6.1,5,10.9,11.3,10.9c4,0,7.1-1.8,9.1-5.3l-0.5-0.3c-1.2,2-3.9,4.3-7.6,4.3c-4.2,0-8.5-2.8-8.5-9.4  c0-7.6,3.6-10.5,8.1-10.5c3.5,0,6.9,2.1,7.5,6.1h0.5L571.1,129.3z M583.4,140.5H594v7.4c0,2.1-0.7,2.8-3.2,2.7v0.6h9.7v-0.6  c-2.3,0-3.1-0.5-3.1-2.7v-15c0-1.9,0.7-2.8,3.1-2.7v-0.6h-9.7v0.6c2.6-0.1,3.2,0.8,3.2,2.7v6.3h-10.6V133c0-1.8,0.6-2.8,3.2-2.7  v-0.6h-9.6v0.6c2.6-0.1,3.1,1,3.1,2.7v15c0,1.9-0.6,2.7-3.1,2.7v0.6h9.6v-0.6c-2.3,0-3.2-0.6-3.2-2.7V140.5z M624.9,145.5l-0.5-0.2  c-1.6,3.8-3.2,4.5-6.2,4.5h-4.4c-0.9,0-1.3-0.3-1.3-1.3V133c0-2,0.7-2.8,3-2.7v-0.6h-9.6v0.6c2.7-0.1,3.2,1,3.2,2.7v15  c0,1.8-0.5,2.8-3.2,2.7v0.6h17.1L624.9,145.5z M639.5,128.8h-0.6l-8.2,18.8c-1,2.2-1.6,2.8-2.9,3v0.6h6.2v-0.6  c-1.5,0-2.3-0.5-2.3-1.4c0-0.3,0.1-0.6,0.2-0.8l1.9-4.4h8.7l1.6,3.7c0.3,0.7,0.4,1.1,0.4,1.5c0,1-0.8,1.5-2.2,1.5h0v0.6h8.8v-0.6  c-1.5,0-2.1-0.3-3-2.3L639.5,128.8z M638.1,134.1l3.8,8.7h-7.6L638.1,134.1z M678.2,129.7h-7.9v0.6h0.8c1.8,0,2.3,0.7,2.3,2.5v12.8  l-13.9-15.9h-6.3v0.6c2,0,3.2,0.7,4.4,2.5V148c0,1.8-0.8,2.7-3.2,2.7v0.6h7.7v-0.6c-2.3,0-3.1-0.8-3.1-3.1v-13.4l15.3,17.3h0.4  v-18.2c0-2.7,0.3-3,2.5-3h0.8V129.7z M683.3,130.3c2.3,0,3.2,0.7,3.2,2.6v15c0,1.8-0.5,2.7-3.2,2.7v0.6h10.9  c7.3,0,12.5-4.5,12.5-10.8c0-4.8-3.4-10.7-11.6-10.7h-11.9V130.3z M689.9,131.5c1.1-0.4,2.3-0.5,3.5-0.5c5.6,0,9.5,4,9.5,9.7  c0,5.7-3.8,9.5-9.6,9.5c-1.3,0-2.3-0.2-3.4-0.5V131.5z"></path></g></svg>