<svg xmlns="http://www.w3.org/2000/svg" xmlns:xlink="http://www.w3.org/1999/xlink" id="svg2" x="0px" y="0px" viewBox="0 0 726.2 224.6" style="enable-background:new 0 0 726.2 224.6;" xml:space="preserve"><style type="text/css">	.st0{fill:#444444;}	.st1{fill:#FFFFFF;}</style><path id="FT-Pink" class="st0" d="M223.7,223.7H0V0h223.7V223.7L223.7,223.7z"></path><path id="FT" class="st1" d="M57.2,116.7c0,10.6,2.8,11.7,14.9,12.2v3.9H24.2v-3.9c10-0.4,12.8-1.6,12.8-12.2V47.8 c0-10.6-2.8-11.8-12.5-12.2v-3.9h84.4l0.6,22.3h-4.2c-3.6-11.3-7.4-14.9-27.2-14.9H62.8c-4.6,0-5.6,1-5.6,5.2v31.9h7.5 c15.8,0,19.2-2.8,21.1-13.4h3.9v35.7h-3.9c-2.1-11.9-8-14.9-21.1-14.9h-7.5L57.2,116.7L57.2,116.7z M204.5,31.7H116L113.9,54h5.1 c3.2-10.9,8-14.9,18.7-14.9h12.5v77.6c0,10.6-2.8,11.7-14.3,12.2v3.9h48.7v-3.9c-11.4-0.4-14.3-1.6-14.3-12.2V39.2h12.5 c10.7,0,15.4,3.9,18.7,14.9h5.1L204.5,31.7z"></path><path id="FinancialTimes" class="st1" d="M266,125.7c0,5.7,1.5,6.4,8.1,6.7v2H248v-2c5.4-0.3,7-0.9,7-6.7V88.1 c0-5.8-1.5-6.4-6.8-6.7v-2.1h46l0.3,12.1h-2.3c-1.9-6.1-4-8.1-14.8-8.1H269c-2.5,0-3.1,0.6-3.1,2.8v17.4h9.4 c8.6,0,10.4-1.5,11.5-7.3h2.1v19.5h-2.1c-1.1-6.5-4.4-8.1-11.5-8.1H266V125.7L266,125.7z M320.3,125.7c0,5.7,1.5,6.4,8.1,6.7v2 h-27.2v-2c6.6-0.3,8.1-0.9,8.1-6.7V88.1c0-5.8-1.5-6.4-8.1-6.7v-2.1h27.2v2.1c-6.6,0.2-8.1,0.9-8.1,6.7V125.7z M385.2,89.6 c0-5.4-1.5-7.5-7.5-8.2v-2.1h19.4v2.1c-6,0.7-7.4,2.8-7.4,8.2v46.1H387l-37.6-43.4v31.8c0,5.4,1.4,7.5,7.4,8.2v2h-19.5v-2 c6-0.7,7.5-2.8,7.5-8.2v-37c-1.9-3.3-4.1-4.8-7.5-5.6v-2.1h15l32.8,37.9V89.6H385.2z M414.6,114.7l8.3-21.8l8.2,21.8H414.6z  M454.1,134.4v-2c-4.1,0.1-5.2-1.7-7.3-6.9L427.4,78h-2.7l-20.2,49.1c-1.4,3.4-3.2,4.4-6.7,5.2v2h17.5v-2c-3.8,0-5.7-0.8-5.7-3.5 c0-2.3,2.5-8.4,3.2-10.1h19.9c0.6,1.8,3.3,7.9,3.3,10.1c0,2.7-2,3.5-5.8,3.5v2L454.1,134.4L454.1,134.4z M507.5,89.6 c0-5.4-1.5-7.5-7.4-8.2v-2.1h19.4v2.1c-6,0.7-7.5,2.8-7.5,8.2v46.1h-2.7l-37.6-43.4v31.8c0,5.4,1.5,7.5,7.5,8.2v2h-19.5v-2 c6-0.7,7.5-2.8,7.5-8.2v-37c-1.9-3.3-4.1-4.8-7.5-5.6v-2.1h15l32.8,37.9L507.5,89.6L507.5,89.6z M577.1,121.4 c-5.8,9.8-13.3,14.3-24.7,14.3c-17.9,0-28.5-11.8-28.5-29.4c0-12.5,9.9-28.3,29.1-28.3c5.7,0,13.9,3.2,15.1,3.2 c1.6,0,2.1-0.9,3.4-3.2h2.7l1.1,18.4h-2.4c-3.3-8.5-9-14.7-18.6-14.7c-13,0-18.6,14-18.6,24.6c0,14.9,6.4,24.8,20.1,24.8 c10.7,0,16.6-7.9,19.1-11.4L577.1,121.4z M603.8,125.7c0,5.7,1.5,6.4,8.1,6.7v2h-27.2v-2c6.6-0.3,8.1-0.9,8.1-6.7V88.1 c0-5.8-1.5-6.4-8.1-6.7v-2.1h27.2v2.1c-6.6,0.2-8.1,0.9-8.1,6.7V125.7z M634.4,114.7l8.3-21.8l8.2,21.8H634.4z M673.9,134.4v-2 c-4.1,0.1-5.2-1.7-7.3-6.9L647.2,78h-2.7l-20.2,49.1c-1.4,3.4-3.2,4.4-6.7,5.2v2h17.5v-2c-3.8,0-5.7-0.8-5.7-3.5 c0-2.3,2.5-8.4,3.2-10.1h19.9c0.6,1.8,3.3,7.9,3.3,10.1c0,2.7-2,3.5-5.8,3.5v2L673.9,134.4L673.9,134.4z M678.7,134.4v-2 c5.3-0.2,6.8-0.9,6.8-6.7V88.1c0-5.8-1.5-6.4-6.8-6.7v-2.1h25.4v2.1c-6.1,0.2-7.6,0.9-7.6,6.7v38.7c0,3.3,1,4.4,7.1,4.4 c9.9,0,15.7-1.8,20.4-11.5h2.1l-3.7,14.7C722.5,134.4,678.7,134.4,678.7,134.4z M260.1,221.2c6.3-0.3,7.8-0.9,7.8-6.7v-42.3h-6.8 c-6.4,0-8.9,2.6-10.7,10H248l1.3-14.1h48.3l1.3,14.1h-2.4c-1.8-7.5-4.3-10-10.7-10H279v42.3c0,5.7,1.5,6.4,7.8,6.7v2h-26.6 L260.1,221.2L260.1,221.2z M323.7,214.6c0,5.7,1.5,6.4,8.1,6.6v2.1h-27.2v-2.1c6.6-0.2,8.1-0.9,8.1-6.6V177c0-5.7-1.5-6.4-8.1-6.6 v-2.1h27.2v2.1c-6.6,0.2-8.1,0.9-8.1,6.6C323.7,176.9,323.7,214.6,323.7,214.6z M389.6,168.2h19v2.1c-5.3,0.2-6.8,0.9-6.8,6.6v37.6 c0,5.7,1.5,6.4,6.8,6.7v2h-24.8v-2c5.4-0.3,7-0.9,7-6.7v-38.7h-0.2L372.2,224h-2.5l-18-48.1h-0.2V213c0,5.4,1.5,7.5,7.5,8.2v2h-19.4 v-2c6-0.7,7.4-2.8,7.4-8.2v-37.4c0-3.8-1.6-5.3-7.4-5.3v-2.1h20l14.7,38.2C374.2,206.4,389.6,168.2,389.6,168.2z M416.4,223.3v-2 c5.3-0.3,6.8-0.9,6.8-6.7V177c0-5.7-1.5-6.4-6.8-6.6v-2.1h46l0.3,12.1h-2.3c-2-6.1-4.1-8.1-14.8-8.1h-8.3c-2.5,0-3.1,0.6-3.1,2.8 v17.4h9.4c8.6,0,10.4-1.5,11.5-7.3h2.1v19.4h-2.1c-1.1-6.5-4.4-8.1-11.5-8.1h-9.4v19.1c0,3.3,1,4.4,10.7,4.4 c9.9,0,15.7-1.8,20.4-11.5h2.1l-3.7,14.7h-47.3V223.3z M474.6,206h2.1c2.3,7.3,9.3,14.9,17.4,14.9c7,0,9.5-4.8,9.5-9.2 c0-12.6-28.5-15-28.5-30.7c0-7.6,7.4-14.1,15.8-14.1c8.3,0,11.2,2.9,14.8,2.9c1.5,0,2.5-1.2,2.9-2.9h2.1v17.5h-2.1 c-2.3-7.9-7.9-13.8-15.4-13.8c-6.1,0-8.4,4-8.4,7.7c0,11.2,28.5,11.6,28.5,30.9c0,8.7-7.1,15.3-17,15.3c-9.7,0-12.2-3.4-16-3.4 c-1.4,0-2.4,1-2.7,2.7h-2.9L474.6,206L474.6,206z"></path></svg>