<svg xmlns="http://www.w3.org/2000/svg" xmlns:xlink="http://www.w3.org/1999/xlink" id="Layer_1" x="0px" y="0px" viewBox="0 0 992.2 169.6" style="enable-background:new 0 0 992.2 169.6;" xml:space="preserve"><style type="text/css">	.st0{fill:#FFFFFF;}</style><g id="NwiLak.tif">	<g>		<path class="st0" d="M552,110.6c0.3-0.5,0.4-0.6,0.5-0.8c0.4-1.3,0.7-2.6,1.1-3.9c0.5-1.9,1.1-3.8,1.6-5.7c0.4-1.5,0.8-3,1.2-4.4   c0.3-1,0.6-2.1,0.8-3.1c0.5-1.8,0.9-3.5,1.4-5.3c0.5-1.8,1.1-3.7,1.6-5.5c0.4-1.6,0.9-3.2,1.3-4.8c0.6-2.2,1.2-4.3,1.8-6.5   c0.5-1.8,0.9-3.5,1.4-5.3c0.3-1.3,0.7-2.6,1.1-4c0.5-1.8,1-3.5,1.5-5.3c0.4-1.2,0.7-2.5,1-3.7c0.4-1.6,0.9-3.3,1.3-4.9   c0.5-1.8,0.9-3.6,1.4-5.4c0.6-2.1,1.1-4.2,1.7-6.2c0.5-1.8,1-3.5,1.5-5.3c0.2-0.6,0.3-1.2,0.5-1.8c0.3-1,0.6-2.1,1-3.1   c0.1-0.2,0.4-0.4,0.6-0.5c0.5-0.1,1-0.1,1.5-0.1c9.7,0,19.3,0,29,0c0.8,0,1.6,0.1,2.5,0.2c0.5,1.7,0.9,3.3,1.4,4.8   c0.5,1.9,1.1,3.7,1.6,5.6c0.1,0.2,0.1,0.4,0.2,0.6c0.4,1.8,0.8,3.6,1.3,5.4c0.5,1.7,1,3.4,1.5,5.1c0.4,1.5,0.8,3,1.2,4.6   c0.3,1,0.6,1.9,0.8,2.9c0.5,1.8,0.9,3.6,1.4,5.4c0.4,1.6,0.9,3.3,1.3,4.9c0.6,2.1,1.1,4.2,1.7,6.2c0.5,1.8,1,3.7,1.6,5.5   c0.1,0.2,0.1,0.4,0.2,0.6c0.4,1.9,0.9,3.7,1.3,5.6c0.4,1.7,1,3.3,1.5,5c0.3,1.2,0.6,2.3,1,3.5c0.5,1.9,1,3.9,1.5,5.8   c0.2,0.7,0.5,1.3,0.7,2c0.5,1.8,0.9,3.6,1.3,5.4c0.4,1.6,0.8,3.1,1.3,4.7c0.3,0.9,0.5,1.2,1.3,1.6c0.1-0.1,0.2-0.2,0.3-0.4   c0.4-1.8,0.8-3.6,1.3-5.4c0.5-1.8,1-3.6,1.5-5.4c0-0.2,0.1-0.3,0.2-0.5c0.5-2,0.9-4,1.4-5.9c0.5-1.8,1-3.6,1.5-5.4   c0.1-0.2,0.1-0.5,0.2-0.7c0.6-2.4,1.3-4.9,1.9-7.3c0.5-1.9,0.9-3.9,1.4-5.8c0.5-1.9,1-3.8,1.5-5.6c0.1-0.2,0.1-0.5,0.2-0.7   c0.6-2.4,1.3-4.8,1.9-7.2c0.5-1.9,0.9-3.8,1.4-5.7c0.5-1.9,1-3.8,1.6-5.8c0.4-1.6,0.8-3.1,1.2-4.7c0.9-3.7,1.9-7.3,2.8-11   c0.5-2,1-4,1.4-6c0.3-1.4,0.5-1.6,2-1.8c0.3,0,0.6,0,0.9,0c9,0,18.1,0,27.1,0c0.8,0,1.6-0.2,2.3,0.4c0,0.2-0.1,0.5-0.1,0.7   c-0.7,2.5-1.4,5-2,7.4c-0.5,1.8-0.9,3.5-1.4,5.3c-0.5,1.7-1,3.4-1.5,5.1c-0.5,1.6-0.9,3.2-1.3,4.8c-0.5,1.9-1.1,3.8-1.6,5.7   c-0.4,1.3-0.8,2.5-1.1,3.8c-0.4,1.6-0.8,3.3-1.3,4.9c-0.5,1.8-1.1,3.7-1.6,5.5c-0.4,1.2-0.7,2.5-1.1,3.7c-0.5,1.7-0.9,3.4-1.3,5   c-0.5,1.8-1.1,3.7-1.6,5.5c-0.4,1.5-0.9,3-1.3,4.5c-0.6,2.2-1.2,4.4-1.8,6.6c-0.5,1.6-0.9,3.3-1.3,4.9c-0.5,1.8-1,3.5-1.5,5.3   c-0.4,1.4-0.8,2.8-1.2,4.2c-0.5,1.7-0.9,3.5-1.4,5.2c-0.5,1.8-1,3.5-1.6,5.2c-0.4,1.2-0.7,2.5-1.1,3.7c-0.5,1.7-0.9,3.5-1.4,5.2   c-0.5,1.7-1,3.3-1.4,5c-0.4,1.5-0.9,3-1.3,4.5c-0.6,2.2-1.3,4.5-1.9,6.7c-0.3,1.2-0.6,2.3-1,3.5c-0.2,0.8-0.7,1.2-1.6,1.1   c-0.5,0-1,0-1.5,0c-10.8,0-21.6,0-32.4,0c-0.1,0-0.2,0-0.4,0c-1.7,0-2.2,0-2.6-2c-0.3-1.7-1-3.2-1.5-4.9c-0.4-1.4-0.8-2.9-1.2-4.3   c-0.6-2.1-1.2-4.1-1.8-6.2c-0.5-1.6-0.9-3.2-1.3-4.8c-0.5-1.7-1.1-3.5-1.6-5.2c-0.4-1.2-0.7-2.4-1.1-3.6c-0.4-1.5-0.8-3-1.3-4.4   c-0.6-1.9-1.1-3.8-1.7-5.7c-0.5-1.6-0.9-3.3-1.4-4.9c-0.1-0.5-0.3-1-0.5-1.5c-0.1-0.3-0.3-0.6-0.4-0.9c-0.7-2.2-1.3-4.4-1.9-6.7   c-0.5-1.7-0.9-3.4-1.3-5c-0.5-1.6-1-3.2-1.5-4.7c-0.5-1.7-0.9-3.4-1.4-5c-0.6-2-1.2-4-1.9-6c-0.1-0.3-0.3-0.5-0.6-0.9   c-0.2,0.3-0.4,0.5-0.5,0.7c-0.3,0.9-0.6,1.8-0.9,2.7c-0.5,1.7-0.9,3.4-1.4,5c-0.5,1.6-1,3.2-1.5,4.8c-0.4,1.2-0.8,2.5-1.1,3.7   c-0.8,2.9-1.6,5.8-2.4,8.6c-0.5,1.7-1.1,3.4-1.6,5.1c-0.5,1.6-0.9,3.3-1.4,4.9c-0.4,1.3-0.7,2.6-1.1,3.8c-0.5,1.7-1,3.3-1.5,5   c-0.5,1.6-0.9,3.3-1.4,4.9c-0.4,1.5-0.8,2.9-1.3,4.4c-0.6,2-1.2,4-1.8,6c-0.5,1.6-1,3.2-1.4,4.8c-0.5,1.5-0.9,3-1.3,4.5   c-0.7,2.4-1.4,4.8-2.1,7.1c-0.2,0.5-0.4,0.8-1,0.8c-0.5,0-1,0.1-1.5,0.1c-11,0-22,0-33,0c-0.2,0-0.5,0-0.7,0   c-1.5-0.1-1.4-0.1-1.8-1.5c-0.4-1.6-1-3.2-1.5-4.9c-0.5-1.8-1-3.6-1.5-5.4c-0.5-1.8-1-3.5-1.5-5.2c-0.1-0.2-0.2-0.5-0.2-0.7   c-0.8-2.9-1.5-5.9-2.3-8.8c-0.5-1.7-1-3.3-1.5-5c-0.5-1.8-0.9-3.5-1.4-5.3c-0.4-1.5-0.8-3-1.3-4.6c-0.6-2.2-1.2-4.3-1.8-6.5   c-0.5-1.7-1-3.3-1.5-5c-0.3-1.2-0.7-2.4-1-3.6c-0.5-1.7-0.9-3.4-1.4-5.2c-0.4-1.6-0.9-3.3-1.3-4.9c-0.6-2-1.1-4.1-1.7-6.1   c-0.5-1.7-1-3.4-1.5-5.1c-0.1-0.2-0.2-0.5-0.2-0.7c-0.8-3-1.5-5.9-2.4-8.9c-0.5-1.7-1.1-3.4-1.6-5.1c-0.5-1.7-0.9-3.4-1.3-5   c-0.5-1.8-1-3.5-1.5-5.3c-0.1-0.3-0.2-0.6-0.3-0.8c-0.6-2.3-1.3-4.5-1.9-6.8c-0.5-1.7-0.9-3.4-1.3-5c-0.5-1.8-1-3.5-1.6-5.2   c-0.3-0.9-0.6-1.8-0.3-2.9c0.5-0.1,1-0.2,1.4-0.2c9.9,0,19.8,0,29.7,0c0.1,0,0.2,0,0.4,0.1c0.5,0.9,1,1.8,1.2,2.9   c0.5,2.3,1.2,4.6,1.8,6.9c0,0.1,0.1,0.2,0.1,0.2c0.5,1.9,0.9,3.8,1.4,5.7c0.5,1.8,1,3.6,1.5,5.4c0,0.1,0.1,0.2,0.1,0.2   c0.5,2,0.9,4,1.4,5.9c0.5,1.8,1,3.6,1.5,5.4c0,0.1,0.1,0.2,0.1,0.4c0.5,2,0.9,4,1.4,5.9c0.4,1.6,0.9,3.3,1.3,4.9   c0.6,2.2,1.1,4.4,1.7,6.6c0.4,1.4,0.7,2.8,1.1,4.2c0.5,1.8,1,3.6,1.5,5.4c0.1,0.2,0.1,0.4,0.2,0.6c0.5,1.9,0.9,3.9,1.4,5.8   c0.5,1.8,1,3.5,1.5,5.3c0.3,1.3,0.7,2.6,1,3.9c0.5,2,0.9,3.9,1.5,5.9C551,107.8,551.4,109.1,552,110.6z"></path>		<path class="st0" d="M764.1,98.3c-13.5,0-27,0-40.5,0c-2,0-2.4,0.5-1.8,2.4c0.8,2.5,1.6,5.1,2.9,7.4c2.1,3.9,4.6,7.3,8.3,9.8   c1.7,1.2,3.6,2.2,5.6,3c2.3,0.9,4.7,1.6,7.2,1.9c1.7,0.2,3.4,0.5,5.1,0.7c2,0.2,4,0,6-0.4c0.5-0.1,1-0.2,1.5-0.2   c2.6,0,5.1-0.7,7.5-1.5c2.1-0.7,4.2-1.5,6.1-2.6c2.8-1.6,5.5-3.2,8.1-5.1c0.5-0.4,1-0.7,1.5-1.1c0.5-0.4,0.9-0.3,1.4,0.1   c0.2,0.2,0.4,0.4,0.6,0.6c5.3,5.9,10.7,11.8,16,17.6c0.4,0.4,0.8,0.8,1.2,1.3c0.6,0.8,0.6,1.1-0.2,1.8c-1.4,1.2-2.8,2.5-4.3,3.6   c-2.2,1.6-4.5,3.2-6.8,4.5c-2.4,1.4-4.9,2.5-7.4,3.6c-2.3,1-4.7,1.8-7.1,2.6c-1.8,0.6-3.6,0.9-5.4,1.3c-1,0.2-2,0.4-2.9,0.5   c-1.6,0.2-3.1,0.3-4.7,0.5c-2.1,0.2-4.1,0.5-6.2,0.7c-4.3,0.4-8.6,0.3-12.8-0.4c-0.7-0.1-1.5-0.2-2.2-0.3c-3.1-0.3-6.1-0.9-9-1.8   c-1.2-0.4-2.5-0.7-3.7-1.1c-5.1-1.6-9.8-4-14.3-7c-5.2-3.5-9.7-7.7-13.4-12.7c-2.2-2.9-4.1-5.9-5.6-9.2c-0.9-1.9-1.8-3.7-2.5-5.7   c-0.5-1.4-0.9-2.8-1.3-4.3c-0.5-1.8-1-3.5-1.4-5.3c0-0.1-0.1-0.2-0.1-0.2c-0.4-2.9-1-5.7-1.3-8.6c-0.2-2.6-0.2-5.1-0.2-7.7   c0-2.9-0.1-5.7,0.2-8.6c0.3-3,1-6,1.5-9c0.1-0.4,0.2-0.8,0.3-1.2c0.6-2.1,1.1-4.2,1.8-6.3c0.7-2,1.5-4.1,2.3-6   c0.6-1.5,1.4-3,2.2-4.4c1.5-2.5,3.1-4.9,4.8-7.3c3.3-4.5,7.3-8.2,11.9-11.5c2.5-1.8,5.2-3.3,7.9-4.7c1.1-0.5,2.3-0.9,3.5-1.4   c1.5-0.6,2.9-1.1,4.4-1.6c0.1,0,0.2-0.1,0.2-0.1c1.7-0.4,3.4-0.9,5.2-1.3c1.2-0.3,2.4-0.7,3.6-0.8c3.6-0.3,7.1-1.1,10.7-1   c2.7,0.1,5.3,0.1,8,0.5c1,0.2,2,0.2,3,0.3c0.8,0.1,1.6,0.3,2.5,0.4c0.9,0.2,1.7,0.3,2.6,0.6c1.6,0.4,3.1,0.9,4.6,1.4   c1.3,0.4,2.6,1,4,1.5c3,1.3,5.8,2.8,8.6,4.6c5.4,3.5,10,7.9,13.8,13.1c1.8,2.4,3.4,5,4.8,7.7c0.9,1.8,1.8,3.6,2.5,5.4   c0.6,1.3,0.9,2.7,1.4,4.1c0.5,1.5,1,3,1.5,4.5c0,0.1,0.1,0.2,0.1,0.2c0.5,2.3,1,4.6,1.3,7c0.3,2.1,0.6,4.2,0.8,6.3   c0.4,5.1,0.4,10.1,0,15.2c0,0.7-0.1,1.3-0.3,2c-0.2,1-0.6,1.4-1.7,1.5c-0.4,0-0.7,0-1.1,0C790.8,98.3,777.4,98.3,764.1,98.3   C764.1,98.3,764.1,98.3,764.1,98.3z M721.5,74.8c0.8,0,1.3,0,1.9,0c16.3,0,32.5,0,48.8,0c0.5,0,0.9,0,1.4-0.1   c0.2-0.1,0.5-0.4,0.6-0.6c0.1-0.3,0-0.7-0.1-1c-0.5-1.5-1-3-1.4-4.5c-0.9-2.9-2.2-5.5-4-8c-4.3-6.2-10.3-9.5-17.7-9.8   c-3.5-0.2-7.1-0.5-10.6,0.8c-1.1,0.4-2.3,0.7-3.4,1.1c-3.2,1.2-5.8,3.1-8.1,5.6c-1.9,2.1-3.4,4.5-4.5,7.1   c-0.5,1.1-0.9,2.2-1.3,3.3c-0.5,1.5-1,3.1-1.4,4.6C721.5,73.8,721.6,74.2,721.5,74.8z"></path>		<path class="st0" d="M0,86.8c0-19.7,0-39.4,0-59.1c0-0.2,0-0.4,0-0.6c0-2,0-2,2-2.2c0.3,0,0.6,0,0.9,0c16.9,0,33.9,0,50.8,0   c2.6,0,5.2,0.1,7.7,0.6c1,0.2,2.1,0.2,3.1,0.4c1,0.2,2,0.4,3.1,0.6c0.5,0.1,1,0.3,1.5,0.3c2.2,0.4,4.3,1,6.3,1.8   c1.2,0.5,2.5,0.8,3.7,1.3c1,0.4,2,0.8,3,1.3c6.3,3,12,6.8,16.8,11.9c3.2,3.3,6,6.9,8.2,10.9c1.1,2,2,4,3,6c1,2.2,1.8,4.5,2.5,6.7   c0.6,2.1,1,4.3,1.4,6.4c0.3,1.3,0.6,2.7,0.7,4c0.2,2.8,0.2,5.6,0.3,8.3c0.1,3.6,0.1,7.1-0.3,10.7c-0.1,0.7-0.2,1.3-0.3,2   c-0.2,1-0.3,2-0.6,3.1c-0.5,2.2-1.1,4.3-1.7,6.5c-0.3,1.2-0.7,2.4-1.2,3.5c-0.8,2-1.7,4-2.7,6c-1.2,2.4-2.6,4.7-4.2,6.9   c-2.5,3.5-5.4,6.7-8.6,9.5c-3.8,3.3-8,5.9-12.5,8.2c-2.9,1.4-5.9,2.5-8.9,3.5c-2.7,0.9-5.4,1.6-8.2,2.1c-4.2,0.6-8.4,1.2-12.6,1.2   c-16.8-0.1-33.6,0-50.5,0c-0.5,0-0.9,0-1.4,0c-1.1-0.1-1.3-0.2-1.3-1.3c0-0.7,0-1.5,0-2.2C0,125.7,0,106.2,0,86.8   C0,86.8,0,86.8,0,86.8z M29.9,86.8C29.9,86.8,29.9,86.8,29.9,86.8c0,8.4,0,16.8,0,25.2c0,2.3,0,4.6,0,6.9c0,1.9,0.1,2.1,2.1,2.1   c0.1,0,0.2,0,0.2,0c5.7,0,11.4,0,17.1,0c3.9,0,7.9,0.2,11.7-1.1c1.4-0.5,2.9-0.9,4.4-1.3c0.1,0,0.2-0.1,0.2-0.1   c1.1-0.6,2.2-1.1,3.2-1.8c1.7-1.1,3.4-2.2,4.9-3.5c2.6-2.3,4.6-5.1,6.2-8.2c1.1-2.2,2-4.5,2.6-6.8c0.9-3.6,1.5-7.2,1.3-11   c0-0.7,0-1.5,0-2.2c0-2.3,0-4.7-0.8-6.9c-0.1-0.3-0.1-0.7-0.2-1c-0.4-1.6-0.7-3.3-1.3-4.9c-0.8-2-1.7-4-2.8-5.8   c-2.1-3.3-4.7-6.1-8-8.2c-2.3-1.5-4.7-2.6-7.3-3.4c-3.2-1-6.3-1.7-9.7-1.7c-7.4,0-14.7,0-22.1-0.1c-0.2,0-0.3,0-0.5,0   c-1.1,0.1-1.3,0.3-1.3,1.4C29.9,65.1,29.9,75.9,29.9,86.8z"></path>		<path class="st0" d="M440.2,60.5c-1.6,0.3-2.7,1.3-3.5,2.6c-0.1,0.2,0,0.6,0.1,0.9c0.1,0.2,0.3,0.4,0.4,0.6   c0.3,0.4,0.3,0.8-0.2,1.1c-0.4,0.3-0.9,0.2-1.2-0.2c-0.1-0.1-0.2-0.4-0.3-0.6c-0.1-1.2-1-1.5-1.9-1.9c-0.7-0.3-1.6,0.1-1.9,0.9   c-0.5,1.4-0.9,2.8-1.3,4.3c-0.2,0.7-0.3,1.4-0.5,2c-0.4,1-0.4,1.9,0.4,2.6c0,0,0.1,0.1,0.1,0.1c0.3,0.4,0.9,0.8,0.7,1.5   c-0.1,0.4-1.3,0.9-1.9,0.7c-1.6-0.6-2.6,0.1-3.6,1.2c-0.1,0.1-0.1,0.1-0.2,0.2c-1.1,0.9-1.1,1.2-0.3,2.3c0.4,0.5,0.8,1,1.4,1.6   c-0.3,0.7-0.7,1.5-1.1,2.3c-0.9-0.2-1.3-0.7-1.5-1.4c-0.1-0.7-0.6-1.1-1.1-1.4c-1.6-0.9-2.7-2.2-2.7-4.2c0-1.1-0.7-1.6-1.6-2   c-1.3-0.6-2.5-1.2-3.8-1.9c-0.3-0.1-0.6-0.4-0.8-0.6c-0.8-0.8-1.6-1.5-2.6-2c-0.5-0.2-0.9-0.6-1.4-0.2c-0.4,0.4-0.8,1-0.7,1.5   c0.1,1.3,0.5,2.4,1.6,3.2c1.3,1,2.7,1.7,4.3,2.3c0.9,0.3,1.8,0.7,2.6,1.4c-1.1,0.7-1,1.6-0.9,2.7c0,0.4-0.2,0.7-0.3,1.1   c-0.1,0-0.2,0-0.2,0c-0.1-0.2-0.2-0.4-0.2-0.7c0-1-0.6-1.7-1.3-2.3c-1.6-1.1-3.2-2.3-4.8-3.4c-1.3-0.9-2.5-1.7-3.8-2.6   c-0.9-0.7-1.9-0.6-2.8,0.1c-0.6,0.5-1.2,1-1.6,1.5c-0.7,0.8-1.4,0.9-2.3,0.6c-0.2-0.1-0.4-0.2-0.6-0.2c-1.1-0.4-2.1,0.1-2.4,1.2   c-0.1,0.2-0.1,0.4-0.1,0.6c-0.1,1-0.5,1.6-1.5,1.9c-0.3,0.1-0.6,0.2-0.8,0.4c-1.2,1.2-2.4,2.5-2.3,4.5c0,0.6-0.2,1.1-0.6,1.6   c-1,0.9-1.9,1.8-2.9,2.7c-0.3,0.3-0.7,0.5-1.1,0.6c-1,0.2-2.1,0.2-3,0.7c-0.2,0.1-0.5,0-0.7-0.1c-0.9-0.7-1.9-0.9-2.9-1.1   c-0.9-0.2-1.3-0.7-1.5-1.5c-0.4-1.4-0.5-2.7-0.1-4.2c0.3-1.2,0.1-2.6,0.1-4c-0.1-1.8,0.9-2.7,2.7-2.1c2.2,0.7,4.4,0.4,6.6,0.2   c1-0.1,1.8-0.7,1.9-1.9c0.1-0.8,0.3-1.6,0.3-2.3c0-1.6-1-2.7-2.4-3.4c-0.7-0.4-1.5-0.7-2.3-1c-0.4-0.2-0.7-0.3-0.6-0.8   c0.1-0.5,0.4-0.7,0.9-0.7c0.4,0,0.7,0,1.1,0.1c1.4,0.2,1.4,0.1,2-1.1c0.1-0.2,0.2-0.4,0.3-0.5c1.9,0.1,3.2-0.8,4-2.4   c0.4-0.7,0.8-1.3,1.6-1.6c0.7-0.2,1-0.8,1.3-1.4c0.9-1.8,2.2-3.1,4.2-3.6c0.3-0.1,0.7-0.2,0.9-0.3c0.8-0.5,0.8-1.2,0.4-2.1   c-0.4-0.8-0.8-1.6-1.1-2.4c-0.5-1.3-0.4-1.5,0.7-2.4c0.3-0.2,0.5-0.4,0.8-0.6c0.6,0.5,0.6,1.1,0.5,1.7c0,0.9-0.1,1.7-0.1,2.6   c0,0.8,0.4,1.3,1.3,1.6c0.9,0.3,1.7,0.5,2.5-0.2c0.4-0.3,0.8-0.4,1.4-0.1c0.6,0.4,1.3,0.2,1.9-0.2c0.3-0.2,0.6-0.4,0.9-0.7   c0.8-0.7,1.8-0.9,2.9-0.9c1.7,0.1,2.5-0.9,2.4-2.6c-0.1-0.6-0.3-1.2-0.5-1.8c-0.1-0.2-0.2-0.5-0.2-0.7c-0.1-0.7,0.2-0.9,0.8-0.9   c0.2,0,0.3,0,0.5,0c0.5,0.1,1,0.3,1.3-0.3c0.3-0.6,0.1-1.5-0.4-1.9c-0.4-0.3-0.7-0.7-1.1-1c-0.1-0.1-0.1-0.2-0.1-0.4   c0.8-0.6,1.7-1.1,2.7-1.2c0.8-0.1,1.4-0.5,1.9-1.1c0.4-0.6,0.3-0.9-0.4-1.2c-0.9-0.3-1.7-0.2-2.3,0.4c-1.5,1.4-3.2,1.2-4.9,0.4   c-1.3-0.6-2.2-3.7-1.7-5c0.5-1.2,0.7-2.5,0.9-3.7c0.1-0.9-0.6-1.4-1.6-1.4c-1.4,0-2,0.7-1.6,2c0.2,0.6,0.2,1.2-0.1,1.8   c-0.4,0.7-0.8,1.4-1.1,2.1c-0.5,1.1-0.9,2.2-0.5,3.5c0.3,0.9,0.8,1.6,1.7,2.1c0.9,0.4,1.1,1,0.8,2c-0.5,1.6-0.7,3.1-0.3,4.8   c0.1,0.5-0.1,0.9-0.6,1.3c-0.5,0.3-0.9,0.7-1.3,1.2c-0.5,0.6-1,0.7-1.4,0c-0.5-0.9-1-1.8-1.4-2.7c-0.4-0.9-0.7-1.8-1.2-2.6   c-0.8-1.3-1.8-1.4-2.9-0.3c-0.4,0.4-0.8,0.8-1.2,1.2c-1,0.9-2.3,0.7-2.8-0.5c-0.6-1.5-1-3-1.5-4.5c-0.2-0.7-0.1-1.3,0.5-1.8   c1-1,1.9-2,2.9-3c1.3-1.4,2.3-2.9,2.4-4.9c0.1-0.9,0.5-1.8,0.6-2.8c0.2-0.8,0.1-1.6,0.3-2.4c0.3-1.1,0.4-2.4,1.7-3   c0.3-0.1,0.6-0.3,0.8-0.6c0.8-1.2,2.1-1.4,3.3-1.8c0.8-0.3,1.5-0.1,2,0.7c0.4,0.6,0.9,0.8,1.6,0.8c0.1,0,0.2,0,0.4,0   c2.2,0,4.3,0.6,6.4,1.3c0.8,0.3,1.5,0.6,2.3,1c0.2,0.1,0.4,0.3,0.6,0.5c0.4,0.4,0.6,0.8,0.4,1.3c-0.2,0.5-0.7,0.6-1.2,0.6   c-0.6-0.1-1.2-0.3-1.8-0.5c-0.7-0.2-1.5-0.5-2.3,0.3c0.5,0.5,0.9,1,1.4,1.4c1.2,0.9,2.4,1.8,3.7,2.7c0.4,0.3,0.8,0.4,1.3,0.5   c0.6,0.1,1.1,0,1.3-0.6c0.1-0.3,0.3-0.6,0.5-0.9c0.4-0.6,0.4-1.1-0.1-1.7c-0.6-0.8-0.5-1.2,0.2-2c0.5-0.6,1-1.3,1.3-2.1   c0.1-0.3,0-0.7-0.1-1.1c-0.3-1.2-0.1-1.7,1.1-2c1.2-0.3,1.3-1.4,1.9-2.2c0.1-0.1-0.2-0.6-0.3-1c0.8,0,1.5,0,2.2,0   c0.2-0.5,0.3-0.9,0.5-1.4c0.9,0,1.9,0,2.8,0c0.4,0,0.7,0,0.7-0.4c0-0.2-0.3-0.5-0.5-0.6c-0.3-0.2-0.7-0.3-1.1-0.3   c-1-0.1-2,0-2.9-0.5c-0.1,0-0.3,0.1-0.6,0.2c0.4,0.3,0.7,0.6,1,0.8c-0.4,0.5-0.8,0.4-1.2,0.2c-1.1-0.6-2.1-1.3-3.3-2.3   c0.4-0.1,0.7-0.2,1.1-0.4c-0.4-0.5-0.6-0.7-0.7-0.8c-0.2-0.3-0.6-0.6-0.7-1c-0.2-1.1-0.9-1.5-1.7-2c-1-0.6-2-1.1-3.1-1.6   c-0.3-0.2-0.7-0.4-1-0.5c-2-0.4-3.7-1.5-5.5-2.2c-0.1,0-0.1-0.2-0.3-0.4c0.8-0.3,1.5-0.2,2.2,0.1c0.3,0.1,0.6,0.4,0.9,0.4   c2,0,3.8,0.8,5.6,1.5c2.1,0.7,4.1,1.7,6,2.6c1.7,0.8,3.4,1.5,5,2.5c2.3,1.3,4.6,2.8,6.9,4.3c2.2,1.5,4.3,3.1,6.4,4.7   c1.2,0.9,2.3,2,3.4,3.1c2.2,2.2,4.5,4.4,6.6,6.6c1.5,1.6,2.8,3.5,4.2,5.2c2.4,2.9,4.4,6.1,6.2,9.4c1,1.8,2,3.6,2.9,5.5   c0.9,1.9,1.8,3.8,2.6,5.8c0.6,1.3,0.8,2.8,1.4,4.1c0.5,1.2,0.8,2.4,1.1,3.7c0.7,2.4,1.5,4.8,1.8,7.3c0.1,1,0.5,1.9,0.7,2.9   c0.2,1.4,0.3,2.7,0.4,4.1c0.3,2.5,0.6,4.9,0.8,7.4c0.2,3.2-0.2,6.4-0.5,9.6c-0.1,1.4-0.2,2.8-0.4,4.2c-0.2,1.4-0.4,2.7-0.7,4   c-0.1,0.6-0.2,1.2-0.3,1.8c-0.1,1-0.3,1.9-0.7,2.7c-0.3,0.6-0.4,1.4-0.8,2.1c0.1-0.8,0.1-1.6,0.2-2.4c0.1-0.9,0.4-1.9,0.4-2.8   c0.1-2.3,0.1-4.7,0.1-7c0-0.8-0.2-1.5-0.7-2.2c-0.9-1.3-1.6-2.7-2.4-4c-0.3-0.5-0.7-0.6-1.2-0.4c-0.5,0.2-1.1,0.4-1.5,0.8   c-0.7,0.7-1.6,0.9-2.4,1.2c-0.7,0.2-1.4,0.1-1.7-0.6c-0.4-0.8-1-1-1.8-0.7c-1.3,0.4-2.2-0.1-3-1c-0.5-0.5-1-1-1.4-1.6   c-0.9-0.9-1.7-0.9-2.4,0.2c-0.7,1.1-0.8,2.2-0.2,3.3c0.5,1,1,1.9,1.5,2.8c0.2,0.3,0.5,0.7,0.9,0.8c0.6,0.2,1,0.5,1.3,1.1   c0.5,0.8,1.4,0.8,1.9,0c0.4-0.6,0.7-1.3,1.1-1.9c0.4-0.6,0.7-0.6,1.1,0c0.4,0.7,0.9,1.3,1.6,1.8c1.1,0.9,1.1,1.6,0.6,2.9   c-0.5,1.2-0.9,2.4-1.4,3.6c-1.6,3.8-4,7.1-6.8,10.1c-1.5,1.6-3.1,3-5,4.1c-1.1,0.6-1.3,0.5-1.4-0.7c-0.1-1.2-0.4-2.3-0.5-3.5   c-0.1-1.6-1.1-2.8-1.6-4.2c-0.5-1.4-1.1-2.7-1.7-4c-0.6-1.3-1.3-2.6-2.1-3.8c-1.2-1.8-2.5-3.5-3.8-5.3c-0.4-0.5-0.7-0.8-1.3-0.5   c-0.3,0.2-0.8,0.1-1.4,0.1c0,0.3-0.1,0.6,0,0.9c0.3,0.9,0.7,1.7,1,2.5c0.4,1,0.9,2,1.3,3.1c0.6,1.4,1.2,2.8,1.8,4.2   c0.4,0.9,0.7,1.8,1.1,2.8c0.6,1.5,1.3,3,1.9,4.5c0.5,1.3,1.2,2.4,2.2,3.3c0.3,0.3,0.6,0.7,1,1c0.7,0.6,1.1,1.3,1.1,2.2   c0,1.2,0.5,1.7,1.7,1.3c1.2-0.4,2.3-1,3.3-1.6c0.6-0.3,1.2-0.8,1.8-1.2c0.6,0.5,0.4,1.1,0.2,1.5c-0.4,1.1-0.9,2.2-1.4,3.2   c-2,4.3-4.8,8-8.2,11.2c-2.2,2.1-4.1,4.4-5.9,6.7c-1.2,1.6-2,3.4-2.4,5.4c-0.4,2.1-1.3,4-2.2,5.9c-0.8,1.6-2.3,2.6-3.8,3.5   c-2,1.2-3.9,2.3-5.4,4.1c-0.1,0.2-0.3,0.3-0.4,0.5c-0.5,1.8-2,2.6-3.5,3.4c-0.6,0.3-1.1,0.8-1.7,1.3c-1.9,1.6-3.9,2.9-6.2,3.8   c-0.3,0.1-0.5,0.3-0.7,0.4c-0.2,0.1-0.4,0.3-0.6,0.3c-1.8,0.3-3.6,0.2-5.4,0.1c-0.1-0.5-0.3-0.8-0.3-1.2c-0.1-0.6-0.2-1.3,0-1.8   c0.4-1.5,0.4-2.9-0.4-4.3c-0.8-1.4-0.6-2.8,0.3-4.1c0.5-0.7,1.1-1.5,1.7-2.1c0.5-0.6,0.7-1.2,0.7-1.9c0-0.7,0-1.3-0.1-2   c-0.1-0.6-0.3-1.3-0.4-1.9c-0.5-2.3-2.4-3.5-3.8-5.2c-0.5-0.6-0.6-1.1-0.3-1.9c0.4-1.3,0.6-2.6,0.9-4c0.1-0.8-0.3-1.3-1-1.7   c-0.8-0.3-1.5-0.5-2.3-0.3c-1.8,0.6-3.3,0.1-4.7-0.9c-1.8-1.3-3.6-1.3-5.4-0.1c-2.2,1.4-4.6,2.1-7.1,2.4c-1.4,0.2-2.8,0.2-4.2,0.3   c-1.5,0-2.7-0.6-4-1.2c-3.1-1.6-5.8-3.5-8-6.2c-0.8-1-1.6-1.9-2.2-3c-0.5-1-0.8-2.1-1-3.2c-0.5-3.4-0.9-6.7-1.3-10.1   c-0.1-1.3-0.1-2.5,0.7-3.7c0.5-0.7,0.7-1.7,1.1-2.5c0.5-1.1,1.1-2.1,1.7-3.2c0.7-1.2,1.8-2.1,2.9-2.8c0.4-0.3,0.7-0.5,1.1-0.8   c1.1-0.7,1.6-1.7,1.7-3c0-0.6,0.1-1.2,0.2-1.7c0.2-1.1,0.6-2.1,1.3-2.9c1.1-1.2,2.1-2.5,3.1-3.7c0.6-0.8,1.4-0.9,2.2-0.7   c0.3,0.1,0.6,0.1,0.8,0.3c2.1,1,4.1,0.7,5.8-0.8c1.8-1.6,3.9-2.1,6.1-2.6c0.8-0.2,1.6-0.5,2.4-0.7c1.9-0.4,3.9-0.9,5.9-1.1   c1.7-0.2,2.3,0.5,2.8,2.1c0.1,0.2,0.1,0.4,0.2,0.6c0.5,0.7,0.3,1.2-0.2,1.8c-0.7,1-0.5,1.7,0.7,2.2c0.3,0.1,0.6,0.1,0.8,0.3   c0.8,0.9,1.9,1,3,0.9c1.7-0.2,3.1,0.4,4.5,1.2c0.6,0.4,1.4,0.5,2.1,0.8c0.4,0.1,0.8,0.2,1.2,0.4c1.2,0.5,2.2,0.1,2.4-1.3   c0.1-0.4,0.1-0.7,0.1-1.1c0.1-1.1,0.7-1.8,1.8-2.1c1.7-0.5,3.3-0.2,4.9,0.5c1.3,0.5,2.6,0.8,3.9,1.2c0.2,0.1,0.4,0,0.6,0   c2.2-0.5,4.3-0.8,6.4-1.7c0.8-0.3,1.2-1.1,1.3-1.9c0.4-1.9,0.7-3.9,0.9-5.9c0.1-1-0.3-1.8-0.8-2.6c-0.3-0.5-0.8-0.7-1.3-0.4   c-0.6,0.3-1.1,0.5-1.6,0.9c-0.6,0.5-1.3,0.8-2.1,0.7c-1.4,0-2.8-0.1-4.2-0.2c-0.3,0-0.8-0.2-1-0.4c-0.6-0.7-1.1-1.5-1.7-2.3   c-0.2-0.4-0.4-0.8-0.6-1.2c-0.6-1-0.3-1.5,0.8-1.9c0.5-0.1,1-0.4,1.2-0.7c0.6-0.7,1.3-1.2,2-1.6c1.3-0.7,2.7-1.6,4.1-2.1   c0.7-0.3,1.6-0.2,2.3,0.1c1.4,0.5,2.7,0.6,4.1,0.3c2.2-0.4,2.6-2.3,1.5-3.8c-0.9-1.2-2-1.9-3.5-2.3c-0.3-0.1-0.6-0.2-1-0.3   c-1.1-0.5-1.2-0.7-1.2-2C440.7,62.4,441,61.4,440.2,60.5z M459.7,67.2c-0.5-0.6-1-1.1-1.5-1.5c-1-0.7-2.1-1.2-3-2   c-1.2-1.2-1.9-2-0.5-3.3c0.8-0.8,0.3-2-0.3-2.8c-0.6-0.8-1.4-1-2.2-0.4c-0.6,0.5-1.1,1.1-1.5,1.8c-0.4,0.7-0.6,1.4-0.9,2.2   c-0.4,1-0.3,1.9,0.4,2.7c0.3,0.4,0.7,0.8,0.9,1.2c0.6,1.4,1.6,2.4,2.6,3.4c0.9,0.8,1.2,1.8,1.2,3c0,0.5,0,0.9,0,1.4   c0.1,1.2,0.7,1.9,1.9,2.3c0.3,0.1,0.6,0.2,0.8,0.4c0.7,0.6,1.4,0.8,2.2,0.3c0.9-0.5,1.3-1.3,1.1-2.3c-0.1-1.1-0.4-2.1-1.2-3   c-0.3-0.3-0.5-0.6-0.7-0.9c-0.5-0.8-0.4-1.2,0.2-1.9C459.3,67.7,459.4,67.5,459.7,67.2z M459.7,56.6c-0.9,0-1.4,0.6-1.1,1.3   c0.3,0.7,0.8,1.4,1.3,1.9c0.5,0.5,1.4,0.3,1.7-0.3c0.4-0.9-0.7-2.8-1.7-3C459.9,56.6,459.8,56.6,459.7,56.6z"></path>		<path class="st0" d="M274.7,51.8c-0.7,0-1.4,0.1-2.1,0.1c-13.7,0-27.4,0-41.1,0c-5.6,0-11.2,0-16.7,0c-0.4,0-0.8,0-1.1,0   c-1,0.1-1,0.1-1.2,1.1c-0.1,0.9-0.2,1.9-0.2,2.9c0,4.7,0,9.5,0,14.2c0,0.2,0,0.5,0,0.7c0.1,1.7,0.4,2,2.1,2c18.2,0,36.4,0,54.6,0   c2.2,0,2.3,0.1,2.3,2.3c0,7.3,0,14.6,0,21.9c0,0.5,0,1-0.1,1.5c-0.1,0.9-0.4,1.2-1.3,1.2c-1.2,0-2.3,0-3.5,0   c-16.9,0-33.7,0-50.6,0c-0.6,0-1.2,0-1.7,0c-1.5,0-1.7,0.2-1.7,1.6c0,0.8-0.1,1.7-0.1,2.5c0,5,0,10,0,15c0,0.6,0.1,1.2,0.1,1.9   c0.1,0.7,0.4,1,1.2,1c0.7,0,1.5,0,2.2,0c19.3,0,38.6,0,57.8,0c0.3,0,0.6,0,0.9,0c0.8,0.1,1,0.3,1.1,1.1c0,1,0,2.1,0,3.1   c0,6.5,0,13,0,19.6c0,0.6,0,1.2,0,1.9c-0.1,1-0.2,1.1-1.2,1.2c-0.5,0.1-1.1,0.1-1.6,0.1c-29.6,0-59.2,0-88.8,0   c-0.7,0-1.5-0.1-2.2-0.1c-0.6,0-0.8-0.3-0.8-0.8c0-0.4,0-0.7,0-1.1c0-35.6,0-71.2,0-106.8c0-4.6,0-9.2,0.1-13.8c0-0.2,0-0.4,0-0.8   c0.7-0.1,1.4-0.2,2.1-0.2c2.4,0,4.8,0,7.2,0c27.7,0,55.3,0,83,0c0,0,0.1,0,0.1,0c1.5,0,1.5,0,1.5,1.5c0,8.2,0,16.4,0,24.6   C274.8,51.2,274.8,51.4,274.7,51.8z"></path>		<path class="st0" d="M956.5,53c0,0.4-0.1,0.6-0.1,0.9c0,15,0,30-0.1,45c0,13.5,0,27,0,40.5c0,2.7,0,5.3,0,8c0,1.3-0.1,1.3-1.4,1.3   c-2.7,0-5.3,0-8,0c-6.5,0-13,0-19.5,0c-2.3,0-2.3,0-2.3-2.3c0-28.8,0-57.7,0-86.5c0-1.5,0-3,0-4.5c0-0.4,0-0.8-0.1-1.1   c-0.2-1-0.5-1.4-1.6-1.4c-0.5,0-0.9,0-1.4,0c-10.3,0-20.7,0-31,0c-0.1,0-0.2,0-0.4,0c-1.2,0-1.4-0.2-1.4-1.4c-0.1-1.2,0-2.4,0-3.6   c0-7,0-14,0-21.1c0-1.7,0.1-1.8,1.8-1.9c0.8,0,1.7,0,2.5,0c31.9,0,63.9,0,95.8,0c0.6,0,1.2,0.1,1.9,0.1c0.6,0.1,0.9,0.4,0.9,1   c0,0.8,0,1.6,0,2.4c0,7.4,0,14.8,0,22.2c0,2-0.1,2.2-2.2,2.3c-4.7,0-9.5,0-14.2,0c-6,0-11.9,0-17.9,0   C957.5,52.9,957,52.9,956.5,53z"></path>		<path class="st0" d="M823.1,86.8c0-14.2,0-28.4,0-42.6c0-4.6,0-9.2,0-13.8c0-1.3,0.1-2.7,0.2-4c0.1-1.1,0.2-1.2,1.3-1.4   c0.3,0,0.6,0,0.9,0c8.9,0,17.8,0,26.7,0c2.3,0,2.3,0,2.3,2.3c0,29.1,0,58.2,0,87.4c0,1.4,0,2.7,0,4.1c0,0.5,0,0.9,0.1,1.4   c0.1,0.2,0.4,0.5,0.7,0.6c0.4,0.1,0.9,0.1,1.4,0.1c15.7,0,31.3,0,47,0c0.6,0,1.2,0,1.7,0.1c0.9,0.1,1.1,0.3,1.1,1.2   c0,1,0,1.9,0,2.9c0,7.2,0,14.5,0,21.7c0,2.1,0,2.1-2,2.1c-1,0-2.1,0-3.1,0c-25.3,0-50.6,0-75.9,0c-2,0-2,0-2.1-2   c0-0.7-0.1-1.3-0.1-2c0-13.6,0-27.2,0-40.8C823.1,98.2,823.1,92.5,823.1,86.8z"></path>		<path class="st0" d="M161.6,25.2c0,0.7,0.1,1.2,0.1,1.6c0,5.4-0.1,10.7-0.1,16.1c0,33.6,0,67.1,0,100.7c0,1.2,0,2.4,0.1,3.6   c0,1.1-0.1,1.3-1.2,1.4c-0.7,0.1-1.5,0.1-2.2,0.1c-8.7,0-17.5,0-26.2,0c-0.6,0-1.2-0.1-2-0.1c-0.1-0.5-0.2-1-0.2-1.5c0-1,0-2,0-3   c0-38.2,0-76.5,0-114.7c0-1.2,0-2.3,0.1-3.5c0-0.6,0.3-0.9,0.9-0.9c0.3,0,0.6,0,0.9,0c9.2,0,18.4,0,27.6,0   C160,25,160.8,25.1,161.6,25.2z"></path>		<path class="st0" d="M312.5,120.6c0.1,0.1,0.4,0.1,0.4,0.2c0.8,1.1,2.2,1.7,3.2,2.7c0.5,0.6,1.2,1,2.1,1.1c0.7,0,1.2,0.4,1.6,1.1   c0.7,1.2,1.6,2.3,2.8,3.2c0.8,0.5,1.4,1.3,2,2.1c0.7,0.9,1.5,1.5,2.5,1.8c1.6,0.5,2.9,1.4,4,2.7c0.9,1.1,1.8,2.2,2.7,3.2   c0.5,0.6,1,1.2,1,2.1c0,0.5,0.4,0.8,0.9,0.9c0.3,0.1,0.7,0.1,0.8,0.3c0.5,1,1.5,0.8,2.3,1c1.1,0.3,2.2,0.9,2.9,1.9   c0.4,0.5,0.8,0.7,1.4,0.8c1.5,0.3,2.9,0.7,4.3,1.1c0.3,0.1,0.6,0.3,0.9,0.5c1.2,1,2.5,1.7,3.9,2.2c2.1,0.9,3.1,3,2.5,5.2   c-0.1,0.4-0.1,0.9-0.3,1.3c-0.5,1.1,0,1.9,0.6,2.6c1.3,1.4,2.3,3,3.3,4.6c0.5,0.7,0.4,0.8-0.3,1.4c-0.8,0.6-0.7,1.3,0.1,1.9   c0.8,0.5,1.6,1.2,2.4,1.7c0.5,0.3,1.1,0.6,1.5,0.9c-1.3,0.5-2.4-0.6-3.6-0.9c-1.1-0.3-2.2-1-3.3-1.5c-2.2-1.1-4.5-2.2-6.6-3.4   c-2.4-1.4-4.6-2.9-6.9-4.4c-3-2-5.7-4.3-8.4-6.7c-3.7-3.3-7-6.9-10-10.7c-2.5-3.1-4.7-6.3-6.6-9.8c-1.6-2.7-3.1-5.4-4.2-8.3   c-0.2-0.4-0.3-0.9-0.4-1.3C311.8,121.5,311.8,121,312.5,120.6z"></path>		<path class="st0" d="M363.3,9.4c0.5-0.2,0.9-0.4,1.3-0.5c1.2-0.4,2.4-0.6,3.2-1.8c0.1-0.2,0.6-0.2,0.9-0.3   c0.6-0.1,1.3-0.2,1.9-0.3c0.9-0.2,1.7-0.4,2.5-0.6c0.7-0.1,1.1-0.4,1.2-1.3c-0.3,0-0.6-0.1-0.9-0.1c-0.7,0.1-1.4,0.2-2.1,0.3   c-0.8,0.1-1.5,0.3-2.2,0.8c-0.5,0.4-1.2,0.4-1.9,0.5c-0.6,0.1-1.2,0.1-1.8,0.5c-0.2,0.2-0.6,0.2-0.9,0.3c-0.5,0.2-1.1,0.3-1.6,0.6   c-0.8,0.5-1.6,0.6-2.4-0.1c-0.9-0.7-1.7-0.4-1.9,0.8c-0.2,1.2-0.5,1.5-1.8,1.8c-1,0.2-1.3-0.1-1.1-1.1c0-0.1,0.1-0.2,0.1-0.4   c-0.2-0.2-0.4-0.5-0.6-0.7c0.1-0.1,0.1-0.2,0.1-0.2c1.2-0.3,2.1-1,3.2-1.4c1.1-0.4,2.1-1.1,3.3-1.1c1.2-1.1,2.9-1,4.3-1.6   c1.5-0.6,3.2-0.8,4.8-1.3c2.5-0.8,5.1-0.9,7.7-1.5c0.7-0.2,1.4-0.3,2.1-0.3c1.8-0.1,3.6-0.2,5.4-0.3c0.3,0,0.6,0.1,1.2,0.1   c-0.3,0.4-0.4,0.6-0.6,0.8C386,1.6,385,2.3,384.1,3c-0.2,0.2-0.3,0.6-0.4,0.9c-0.1,0.3-0.1,0.8-0.3,1.1c-0.8,1-1.7,2-2.7,3   c-0.7,0.7-1.4,1.2-1.6,2.3c0,0.3-0.5,0.6-0.8,0.8c-0.5,0.2-0.7,0.5-0.7,1.1c0,0.8-0.3,1.3-0.8,1.9c-0.7,0.7-1.2,1.6-1.9,2.3   c-0.3,0.3-0.7,0.5-1.2,0.6c-1.4,0.3-1.4,0.2-1,1.7c-0.6,0.5-0.7,1.1-0.4,1.9c0,0.1,0,0.2,0,0.2c-0.1,0.4-0.1,0.9-0.4,1.1   c-0.3,0.2-0.8,0-1.1-0.1c-0.3-0.1-0.6-0.3-0.8-0.5c-1.2,1.1-1.2,1.4,0.4,2.3c-0.2,0.2-0.3,0.5-0.5,0.6c-1.4,0.9-2.7,1.7-4.4,1.8   c-1.9,0.2-3.6,0.9-5,2.3c-1.2,1.3-2.4,2-4.2,1.9c-0.6,0-1.2,0.5-1.8,0.8c-1.4,0.8-2.5,1.8-3.3,3.3c-0.3,0.6-1,1.1-1.6,1.5   c-0.6,0.4-0.9,0.8-1.2,1.5c-0.6,1.1-1.3,2.2-2.1,3.2c-0.5,0.7-1.1,0.5-1.7-0.1c-1.8-1.9-1.1-3.9-0.5-5.9c0.2-0.5,0.4-1.1,0.6-1.6   c0.2-0.4,0.3-0.8,0.5-1.1c0.4-0.7,0.8-1.3,1.1-2c0.9-2.7,3-4.3,5.4-5.5c0.4-0.2,0.8-0.6,1.2-0.9c0.5-0.4,0.7-1,0.8-1.6   c0.1-1,0.1-1,1.2-1.2c0.7-0.1,1-0.5,1-1.1c0.1-1.1,0.7-1.8,1.6-2.5c1.2-1,2.3-2.2,3.4-3.3c0.5-0.5,1-1,1.5-1.5   C363.1,11.4,363.8,10.7,363.3,9.4z M363.2,5.3c-0.1,0.1-0.1,0.1-0.2,0.2c0.1,0,0.1,0.1,0.2,0.1c0.1,0,0.2-0.1,0.2-0.2   C363.4,5.4,363.3,5.4,363.2,5.3z"></path>		<path class="st0" d="M305.1,94.2c-0.1-0.5-0.2-0.9-0.2-1.4c0.1-4.7-0.6-9.4,0-14.1c0.2-1.6,0.4-3.1,0.7-4.7   c0.4-2.6,0.9-5.2,1.4-7.8c0.1-0.3,0.1-0.6,0.2-0.9c0.4-1.1,0.8-2.2,1.2-3.3c0.2,0.2,0.5,0.5,0.7,0.7c0.2,0,0.3,0,0.3,0   c1-0.8,1.6-1.7,1.9-3c0.2-0.8,0-1.1-0.6-1.6c-0.8-0.6-1-0.9-0.6-1.8c0.8-1.9,1.6-3.8,2.5-5.7c1.1-2.2,2.2-4.5,3.4-6.6   c1.3-2.3,2.8-4.6,4.2-6.9c0.3-0.4,0.7-0.8,1.2-1c-0.1,1-0.6,1.7-0.9,2.6c-0.3,0.8-0.8,1.7-0.9,2.5c-0.1,0.9-0.7,1.8-0.4,2.8   c1.2-0.1,1.9-0.8,2.5-1.5c1-1.1,1.9-2.4,2.4-3.9c0.4-1.1,1.1-2.1,2.1-2.9c1.1-1,1.9-2.3,2.8-3.5c0.2-0.2,0.3-0.4,0.4-0.6   c0.5-0.6,0.9-0.7,1.4-0.4c0.5,0.3,0.8,1,0.6,1.6c-0.3,0.8-0.5,1.7-0.9,2.5c-0.3,0.5-0.8,1-1.1,1.5c-0.3,0.5-0.7,0.9-0.9,1.4   c-0.1,0.3-0.1,0.7,0,1.1c0.2,0.6,0.7,0.7,1.3,0.3c0.4-0.3,0.7-0.7,1.1-1c0.2-0.2,0.4-0.3,0.6-0.4c0.5,0.4,0.3,0.9,0.1,1.3   c-0.7,1.7-1.3,3.3-2.1,4.9c-0.4,0.8-0.8,1.5-0.7,2.4c0.1,0.5,0.2,1,0.5,1.4c0.3,0.6,0.5,1.2,0.4,1.9c-0.1,0.4-0.1,0.8,0,1.1   c0.5,1.6-0.5,2.7-1.2,3.9c-0.3,0.5-0.9,0.8-1.5,0.7c-0.6,0-1,0.2-1.4,0.6c-0.7,0.7-1.6,0.5-2.5,0.3c-0.3-0.1-0.5-0.2-0.8-0.3   c-1.6-0.8-2.1-0.6-3,1.1c0.2,0.1,0.4,0.3,0.7,0.4c0.2,0.1,0.4,0.2,0.7,0.4c0,0.2,0,0.4-0.1,0.5c-0.7,0.8-1.1,1.9-1.4,2.9   c-0.2,0.6-0.3,1.3-0.3,1.9c0,1.2,0.9,1.6,2,0.9c0.2-0.1,0.3-0.2,0.5-0.3c0.4,0.5,0.3,1-0.1,1.3c-0.6,0.5-1.3,0.9-2,1.2   c-0.6,0.2-1.2,0.3-1.6,0.8c-0.4,0.4-0.8,0.2-0.9-0.4c0-0.4,0.1-1-0.5-1.1c-0.6-0.2-1.2-0.1-1.6,0.4c-0.6,0.8-1.2,1.6-1.6,2.5   c-0.3,0.7-0.7,1.3-1.3,1.8c-2,1.6-2.8,3.8-3,6.2c-0.1,1.2-0.4,2.1-1.1,3.1c-0.6,0.9-1.2,1.9-1.6,2.9c-0.3,0.9-0.4,1.9-0.4,2.8   c0,1.7,0.1,3.3,0.2,5c0,0.8,0.1,1.6,0.1,2.4c0,0.4-0.2,0.9-0.3,1.3C305.4,94.2,305.2,94.2,305.1,94.2z M318.3,44.5   c-1.3,1-1.7,1.9-1.1,2.9c0.5-0.7,1-1.4,1.4-2.1C318.8,45.1,318.8,44.7,318.3,44.5z M311.4,64.6c0-0.1,0-0.3,0-0.4   c-0.3-0.1-0.7-0.4-1-0.4c-0.2,0-0.5,0.3-0.5,0.6c0,0.2,0.3,0.5,0.5,0.5C310.7,64.8,311,64.6,311.4,64.6z M309.4,65.3   c-1,0.1-1,0.1-1.1,0.9C308.9,66.2,309.3,66,309.4,65.3z"></path>		<path class="st0" d="M332.1,27.2c-0.3-0.6-0.5-0.9-0.8-1.3c-1.8,0.5-2.7,2.2-4.3,2.7c0.5-0.6,0.9-1.1,1.4-1.7   c4.1-4.3,8.5-8.1,13.3-11.5c3.5-2.4,7.1-4.7,10.9-6.5c0.3-0.1,0.6-0.4,0.9-0.5c0.4-0.1,0.8-0.2,1.2-0.2c0.1,0.1,0.1,0.2,0.2,0.3   c-0.3,0.4-0.6,0.8-0.9,1.1c-0.6,0.6-1,1.1-0.8,2.1c0.2,0.9-0.1,1.2-1.1,1.3c-1,0.1-1.5,0.4-1.7,1.4c-0.1,0.5-0.5,1-0.8,1.4   c-1.3,1.4-1.8,3.5-3.5,4.6c-0.3,0.2-0.5,0.4-0.8,0.6c-0.7,0.5-1.1,1.2-1.3,2c-0.1,0.8-0.3,1.5-0.5,2.3c-0.4,1.3-1.6,2.2-3,2.2   c0.1-0.3,0.2-0.6,0.2-0.9c0-0.2-0.2-0.5-0.4-0.7c-0.1-0.1-0.5,0.1-0.6,0.2c-0.6,0.6-1.2,1.3-1.4,2.2c-0.3,1.3-1.1,2.3-1.9,3.4   c-0.4-0.1-0.7-0.2-1.1-0.3c-0.3,0.4-0.6,0.7-0.9,1.1c-0.6-0.8-0.6-1.6-0.1-2.4c0.2-0.3,0.4-0.5,0.6-0.8c0.3-0.5,0.3-1,0.1-1.5   c-0.4-1,0-1.5,1.1-1.5c0.8,0,1.4-0.2,2-0.8c0.2-0.2,0.7-0.3,1-0.3c1.3,0.1,1.5,0.1,1.7-1.1c0.2-0.9,1-1.3,1.5-1.9   c0.3-0.4,0.6-0.8,0.9-1.2c0.5-0.6,0.9-1.2,1.4-1.7c0.5-0.4,0.7-0.9,0.6-1.5c0-0.6-0.1-1.2-0.2-1.8c-0.1-0.5-0.4-0.7-0.8-0.4   c-0.4,0.2-0.7,0.5-1,0.8c-0.4,0.3-0.2,0.7-0.1,1.1c0.1,0.7-0.3,1.2-0.8,1.6c-1.2,0.9-2.3,1.8-3.5,2.6c-0.5,0.3-1,0.7-1.5,0.8   c-1.7,0.3-2.5,1.4-3.3,2.8C333.2,25.6,332.7,26.2,332.1,27.2z"></path>		<path class="st0" d="M385,46.2c0,1.3,0,1.3,1.1,1.7c0.5,0.2,0.7,0.4,0.6,0.9c0,0.2-0.1,0.5-0.2,0.7c-0.3,0.7-0.1,1.1,0.5,1.7   c1.1,1.1,2.2,2.3,2.8,3.9c0.4,1,1,1.9,2.2,1.9c0.1,0,0.2,0.1,0.4,0.3c-0.2,0.4-0.5,0.8-0.7,1.2c-0.2,0.5-0.2,1-0.5,1.4   c-0.2,0.3-0.7,0.6-1.1,0.7c-0.5,0.1-1,0.1-1.5,0.1c-0.9,0-1.7,0.1-2.5,0.6c-0.4,0.3-1,0.5-1.6,0.1c0.1-0.2,0.2-0.5,0.4-0.6   c0.9-0.7,0.9-0.7,0.3-1.5c-0.4-0.5-0.5-1.1-0.5-1.7c0-0.7,0.3-1.1,0.9-1.5c1.1-0.6,1.2-1.2,0.5-2.2c-0.4-0.6-0.8-1.2-1.6-1.2   c-0.1,0-0.3,0-0.3-0.1c-0.8-1.2-2-2.4-1.5-4c0.2-0.8,0.8-1.5,1.3-2.2C384.2,46.3,384.6,46.3,385,46.2z"></path>		<path class="st0" d="M367.9,31.4c0.4-0.4,0.8-0.2,1.1,0.1c0.7,0.7,1.2,0.5,2.1,0.2c0.9-0.4,2-0.5,3-0.5c0.5,0,1,0.7,1.3,1.2   c0.3,0.5,0,1-0.5,1.4c-1.1,0.9-2.4,1.5-3.7,2c-0.3,0.1-0.7,0.2-1.1,0.2c-1.4-0.1-2.1-1.1-2-2.5C368.2,32.3,368.2,32.2,367.9,31.4z   "></path>		<path class="st0" d="M434.9,160.7c0.2-0.3,0.3-0.7,0.5-1c0.5-0.5,0.9-1.1,1.5-1.5c1.4-1.2,2.5-2.8,3.7-4.2c0.4-0.5,1-1,1.6-1.3   c1.1-0.7,2.2-1.2,3-2.2c0.3-0.3,0.7-0.6,1.2-0.9c0.4,0.7,0,1.1-0.3,1.5c-3.1,3.2-6,6.5-9.5,9.2c-0.4,0.3-0.9,0.5-1.4,0.8   C435.1,160.9,435,160.8,434.9,160.7z"></path>		<path class="st0" d="M381.1,53.1c1.4,0,1.7,0.4,1.1,1.4c-0.4,0.6-0.5,1.2-0.3,1.9c0.2,0.9-0.2,1.6-1,2.1c-0.6,0.3-1.1,0.7-1.7,1   c-0.2,0.1-0.5,0.2-0.7,0.2c-0.6,0-0.9-0.3-0.8-0.9c0-0.2,0.1-0.4,0.2-0.6c0.6-0.6,0.4-1.2,0.2-1.8c-0.3-1-0.3-1,0.7-1.4   c0.3-0.2,0.7-0.5,0.8-0.8C379.9,53.1,380.6,53.1,381.1,53.1z"></path>		<path class="st0" d="M327.3,64.5c-0.4-0.4-0.7-0.8-1-1.1c-0.4-0.4-0.8-0.8-1.4-0.9c-1.1-0.2-1.4-1-0.6-1.9c0.7-0.8,1.4-1.5,2-2.3   C327.7,59.5,328.2,62.4,327.3,64.5z"></path>		<path class="st0" d="M406.4,80.3c0,0,0,0.2,0,0.4c-0.1,0.4-0.3,0.8-0.8,0.8c-0.5,0-0.6-0.4-0.7-0.8c-0.1-0.3-0.1-0.6-0.1-0.9   c-0.1-0.7,0.2-1,0.7-1c0.6,0,0.9,0.3,0.9,0.9C406.4,79.9,406.4,80,406.4,80.3z"></path>		<path class="st0" d="M412.2,83.1c0.6,0,1.3-0.1,1.9-0.1c0.5,0,0.8,0.5,0.6,1c-0.2,0.5-0.5,0.5-0.9,0.3c-0.6-0.3-1.1-0.6-1.6-0.9   C412.1,83.4,412.2,83.3,412.2,83.1z"></path>		<path class="st0" d="M411.3,7.4c0.8,0.1,1.2,0.8,1.6,1.3C411.9,8.8,411.7,8,411.3,7.4z"></path>		<path class="st0" d="M405.4,75.8c0,0.2-0.1,0.5-0.1,0.7c0,0-0.3,0-0.3,0c-0.3-0.3-0.1-0.6,0.1-0.8   C405.2,75.7,405.3,75.8,405.4,75.8z"></path>		<path class="st0" d="M405.5,50.6c-0.2,0.1-0.3,0.2-0.4,0.3c-0.1-0.2-0.2-0.3-0.3-0.5c0.1-0.1,0.3-0.2,0.4-0.2   C405.3,50.2,405.4,50.4,405.5,50.6z"></path>		<path class="st0" d="M309.4,58.9c0,0.2,0,0.4,0,0.6c-0.1,0-0.1,0-0.2,0c0-0.2,0-0.4-0.1-0.6C309.2,58.9,309.3,58.9,309.4,58.9z"></path>	</g></g></svg>