<svg xmlns:dc="http://purl.org/dc/elements/1.1/" xmlns:rdf="http://www.w3.org/1999/02/22-rdf-syntax-ns#" xmlns:sodipodi="http://sodipodi.sourceforge.net/DTD/sodipodi-0.dtd" xmlns:cc="http://web.resource.org/cc/" xmlns:svg="http://www.w3.org/2000/svg" xmlns:inkscape="http://www.inkscape.org/namespaces/inkscape" xmlns="http://www.w3.org/2000/svg" xmlns:xlink="http://www.w3.org/1999/xlink" id="svg6381" inkscape:version="0.44.1" sodipodi:docbase="I:\Logos\Media\print" sodipodi:docname="Wirtschaftswoche.svg" sodipodi:version="0.32" x="0px" y="0px" viewBox="0 0 626.4 265.8" style="enable-background:new 0 0 626.4 265.8;" xml:space="preserve"><style type="text/css">	.st0{fill:#FFFFFF;}</style><g id="layer1" transform="translate(-150.5555,-398.0498)" inkscape:groupmode="layer" inkscape:label="Ebene 1">	<g id="g6448" transform="translate(7.082139,7.094533)">		<polygon id="_130734048" class="st0" points="650.4,655 767.5,655 767.5,538.3 650.4,538.3   "></polygon>		<polygon id="_131059136" class="st0" points="143.5,655 260.2,655 260.2,538.3 143.5,538.3   "></polygon>		<path id="_130367672" class="st0" d="M748.1,517.6c-6.4,0-12-2.7-15.4-8.4l-1.7,6.7h-9.7v-29.4H737c0,5.7-0.7,20.1,8.4,20.1   c4.3,0,6.4-3.7,6.4-7.7c0-17.4-31.1-22.1-31.1-49.2c0-13.7,8.4-26.1,22.7-26.1c6.4,0,11.4,2.7,15,8l1.7-6.4h7.4v28.4h-14.4   c0-6.4,1.3-18.4-7.7-18.4c-4,0-6,3.3-6,6.7c0,12.9,25.4,18.8,30.5,41.8v16C767.4,510,759.7,517.6,748.1,517.6L748.1,517.6z"></path>		<path id="_129819432" class="st0" d="M699.6,517.6c-13.4,0-17.1-11-17.1-22.4v-58.9h-6.7v-11h6.7v-20.1h24.1v20.1H717v11h-10.4   v61.9c0,1,0.3,2,0.7,3l1.3,0.7c2-0.7,3-2,4.7-3.3l4.7,7.4C713.3,512.3,707.6,517.6,699.6,517.6L699.6,517.6z"></path>		<path id="_130358720" class="st0" d="M668.5,420.3c0-5,1-14.7-6.4-14.7c-5,0-7.4,5-7.4,9.7c0,10,8.7,10,16.4,10v11h-11v68.9h8.7   v10.7H631v-10.7h5v-68.9h-6v-11h6v-9c0-14,11.5-24.3,24.7-25.3h5.2c4.1,0.2,8.2,0.8,12,1.6v27.8L668.5,420.3L668.5,420.3z"></path>		<path id="_129768008" class="st0" d="M530.7,515.9v-67.5c0-6-0.3-9-4.3-9c-3.7,0-6.4,5.7-6.4,9.4v56.5h6.4v10.7h-35.4v-10.7h5   V403.6h-5v-11.4H520v40.1c4-6,9.4-8.7,16.4-8.7c17.4,0,18.4,13.4,18.4,32.8v48.8h5.4v10.7L530.7,515.9L530.7,515.9z"></path>		<path id="_130358232" class="st0" d="M464.2,517.6c-26.8,0-30.4-27.1-30.4-48.2c0-19.4,4.3-45.8,29.1-45.8c5,0,9.7,2.3,13,6.4   l2-4.7h9v31.8h-14.4c0-17.1-1-21.7-7.7-21.7c-5,0-6,6-6,9.7v44.8c0,6,1.7,13.7,9.4,13.7c8,0,9.7-13.7,10.7-19.4l10.7,1.7   C489.2,501.2,481.9,517.6,464.2,517.6L464.2,517.6z"></path>		<path id="_129874072" class="st0" d="M408,517.6c-6.4,0-11.7-2.7-15.4-8.4l-1.7,6.7h-9.4v-29.4H397c0,5.7-0.3,20.1,8.4,20.1   c4.3,0,6.7-3.7,6.7-7.7c0-17.4-31.4-22.1-31.4-49.2c0-13.7,8.4-26.1,22.7-26.1c6.7,0,11.7,2.7,15,8l2-6.4h7v28.4H413   c0-6.4,1.3-18.4-7.7-18.4c-4,0-6,3.3-6,6.7c0,14,31.4,20.1,31.4,50.2C430.7,505.9,422.7,517.6,408,517.6L408,517.6L408,517.6z"></path>		<path id="_129881688" class="st0" d="M360.2,517.6c-13.7,0-17.1-11-17.1-22.4v-58.9h-6.7v-11h6.7v-20.1h24.1v20.1h10.4v11h-10.4   v61.9c0,1,0.3,2,0.7,3l1.3,0.7c2-0.7,3-2,4.3-3.3l4.7,7.4C373.9,512.3,368.2,517.6,360.2,517.6L360.2,517.6z"></path>		<path id="_130412376" class="st0" d="M322.4,454.1c0-5,1.3-15.7-6.4-15.7c-5.4,0-7.4,5-7.4,9.7v57.2h7.4v10.7h-36.5v-10.7h5v-68.9   h-5v-11h26.1l1.7,6.4c3-5,9.7-8,15.7-8c2.7,0,7.4,0.3,9.7,1.3v29.1L322.4,454.1L322.4,454.1z"></path>		<path id="_129767728" class="st0" d="M243.5,392.2h25.7v24.1h-25.7V392.2L243.5,392.2z M239.8,515.9v-10.7h5.4v-68.9h-5.4v-11   h29.4v79.9h6.4v10.7L239.8,515.9L239.8,515.9z"></path>		<polygon id="_129767808" class="st0" points="234.1,404.2 219.7,515.9 198.6,515.9 191.6,451.7 182.6,515.9 162.9,515.9    149.2,404.2 143.5,404.2 143.5,392.2 177.6,392.2 177.6,404.2 171.6,404.2 179.3,463.8 188.3,392.2 208.7,392.2 216.4,463.1    223.7,404.2 218.4,404.2 218.4,392.2 239.4,392.2 239.4,404.2   "></polygon>		<path id="_130809840" class="st0" d="M613,518.9c-6.7,0-11.7-1.7-15-7.4c-3.3,5.4-8.7,7-14.7,7c-16.4,0-21.7-13-21.7-27.4   c0-20.4,14.7-29.4,33.1-29.4V444c0-4.3-0.1-8.7-5.7-8.7c-3.8,0-8,1.8-8,21.7h-15v-31.8h10.4l2,6c4-4.3,9.4-6.7,15.4-6.7   c22.4,0,24.7,12.4,24.7,31.8v43.8c0,1,0.3,2.7,1.7,3.3c1.7-0.3,3.7-3,4.7-4.3l4,9.7C624.7,514.9,620.7,519,613,518.9L613,518.9z    M592.6,472.1c-7,0-8.4,11-8.4,16.1c0,4,0,16.1,6,16.1c3.3,0,4.3-2.3,4.3-7.4v-24.7L592.6,472.1L592.6,472.1z"></path>		<path id="_130358344" class="st0" d="M537.4,655v-67.5c0-6.4-0.7-9-4.3-9c-4,0-6.7,5.4-6.7,9.4v56.5h6.4v10.7h-35.4v-10.7h5V542.7   h-5v-11.4h29.1v40.1c4-6,9.4-8.7,16.4-8.7c17.4,0,18.4,13,18.4,32.8v48.8h5.4v10.7L537.4,655L537.4,655z"></path>		<path id="_130495440" class="st0" d="M470.5,656.7c-26.8,0-30.1-27.1-30.1-48.2c0-19.4,4.3-45.8,28.8-45.8c5,0,9.7,2.3,13,6.4l2-5   h9v32.1h-14.4c0-17.4-1-22.1-7.7-22.1c-4.7,0-6,6.4-6,9.7V629c0,6,2,13.7,9.4,13.7c8,0,10-13.7,10.7-19.4l10.7,1.7   C495.6,640.3,488.2,656.7,470.5,656.7L470.5,656.7z"></path>		<polygon id="_129946616" class="st0" points="371.9,543.4 357.5,655 336.8,655 329.4,590.8 320.4,655 301,655 287.3,543.4    281.6,543.4 281.6,531.3 315.7,531.3 315.7,543.4 309.7,543.4 317,602.5 326.4,531.3 346.5,531.3 354.5,602.2 361.8,543.4    356.5,543.4 356.5,531.3 377.6,531.3 377.6,543.4   "></polygon>		<path id="_129791232" class="st0" d="M598.6,656.7c-26.1,0-30.8-25.4-30.8-46.5c0-18.4,6.4-47.5,29.8-47.5   c21.1,0,28.8,20.1,28.8,38.1c0,5.7-0.3,8-0.7,12h-33.4V630c0,7.4,2.7,13,10.7,13c8,0,12-11.7,13.4-18.4l10.7,1.7   C625,643.3,617.7,656.7,598.6,656.7L598.6,656.7z M602.9,583.2c0-3.3,0-10-5-10s-5.7,7.7-5.7,11.4v18.4h11L602.9,583.2   L602.9,583.2z"></path>		<path id="_129871768" class="st0" d="M403.3,656.7c-25.1,0-31.4-26.4-31.4-46.8c0-20.1,6.4-47.1,31.4-47.1   c25.1,0,31.4,27.1,31.4,47.1C434.7,630.3,428.4,656.7,403.3,656.7L403.3,656.7z M409,583.2c0-3.7-0.7-10-5.7-10   c-5,0-5.7,6.4-5.7,10V636c0,3.7,0.7,10.4,5.7,10.4c5,0,5.7-6.7,5.7-10.4V583.2z"></path>	</g></g></svg>