<svg xmlns="http://www.w3.org/2000/svg" xmlns:xlink="http://www.w3.org/1999/xlink" id="Layer_1" x="0px" y="0px" viewBox="0 0 471.5 275.7" style="enable-background:new 0 0 471.5 275.7;" xml:space="preserve"><style type="text/css">	.st0{fill-rule:evenodd;clip-rule:evenodd;fill:#0C0E0F;}	.st1{fill-rule:evenodd;clip-rule:evenodd;fill:#FFFFFF;}</style><g>	<path class="st0" d="M425.5,98.2h46V76.5h-55.3c-29.8,0-42,16.8-42,42.9v2.5c-5.3-30.8-23.3-45.4-56.9-45.4h-56.3  C238.4,31.4,191.8,0,137.7,0C61.5,0,0,61.9,0,138s61.5,137.7,137.7,137.7c53.8,0,100.4-30.5,123.1-75.5H156.7v-30.8  c0-26.1,12.4-41.6,42-41.6H216c13.4,0,21.4-2.8,21.4-14.3c0-11.8-8.1-15.2-22-15.2h-57.8V76.5H225c34.2,0,39.2,23.9,39.2,37.3  c0,14.3-5.9,37-39.2,37h-16.5c-20.8,0-25.5,7.5-25.5,21.8v6.5h77.7v21.1H318c13.7,0,26.1-0.6,38.5-10.6c9-7.5,14.9-17.4,17.4-30.8  v41.3h26.4v-48.5h61.9v-21.8h-61.9l0.3-8.7C400.6,106.9,404.7,98.2,425.5,98.2z M316.7,178.4h-28.9V98.2h28.9  c22.7,0,31.1,10,31.1,40.1C347.8,168.8,339.4,178.4,316.7,178.4z"></path>	<path class="st1" d="M425.5,98.2h46V76.5h-55.3c-29.8,0-42,16.8-42,42.9v2.5c-5.3-30.8-23.3-45.4-56.9-45.4h-56.3  C238.4,31.4,191.8,0,137.7,0C61.5,0,0,61.9,0,138s61.5,137.7,137.7,137.7c53.8,0,100.4-30.5,123.1-75.5H156.7v-30.8  c0-26.1,12.4-41.6,42-41.6H216c13.4,0,21.4-2.8,21.4-14.3c0-11.8-8.1-15.2-22-15.2h-57.8V76.5H225c34.2,0,39.2,23.9,39.2,37.3  c0,14.3-5.9,37-39.2,37h-16.5c-20.8,0-25.5,7.5-25.5,21.8v6.5h77.7v21.1H318c13.7,0,26.1-0.6,38.5-10.6c9-7.5,14.9-17.4,17.4-30.8  v41.3h26.4v-48.5h61.9v-21.8h-61.9l0.3-8.7C400.6,106.9,404.7,98.2,425.5,98.2z M316.7,178.4h-28.9V98.2h28.9  c22.7,0,31.1,10,31.1,40.1C347.8,168.8,339.4,178.4,316.7,178.4z"></path></g></svg>