<svg xmlns:dc="http://purl.org/dc/elements/1.1/" xmlns:rdf="http://www.w3.org/1999/02/22-rdf-syntax-ns#" xmlns:sodipodi="http://sodipodi.sourceforge.net/DTD/sodipodi-0.dtd" xmlns:cc="http://web.resource.org/cc/" xmlns:svg="http://www.w3.org/2000/svg" xmlns:inkscape="http://www.inkscape.org/namespaces/inkscape" xmlns="http://www.w3.org/2000/svg" xmlns:xlink="http://www.w3.org/1999/xlink" id="svg2168" inkscape:version="0.45pre1" sodipodi:modified="true" sodipodi:version="0.32" x="0px" y="0px" viewBox="0 0 779.5 110.8" style="enable-background:new 0 0 779.5 110.8;" xml:space="preserve"><style type="text/css">	.st0{fill:#FFFFFF;}</style><g id="layer1" transform="translate(-390.14771,-440.55633)" inkscape:groupmode="layer" inkscape:label="Ebene 1">	<g id="g22038" transform="matrix(6.365568,0,0,6.365568,145.18897,-418.70469)">		<path id="path21730" class="st0" d="M87.1,135.6c-0.2,0-0.3,0.1-0.4,0.2c-0.1,0-0.1,0.2-0.1,0.2c0,0-0.1,0-0.1,0   c-0.3,0-0.6,0.2-0.6,0.4c-0.1,0.2-0.1,0.2-0.2,0.2c-0.2,0-0.5,0-0.5,0.4c0,0.2,0.1,0.2,0.1,0.4c0,0.2,0,0.3,0.1,0.5   c0.1,0,0.3,0.2,0.4,0.2c0.1,0,0.1,0,0.1-0.2c0,0,0.1-0.2,0.2,0c0.1,0,0,0.2,0,0.2c0,0-0.1,0.2-0.1,0.2c-0.1,0-0.1,0-0.1,0   c-0.1,0-0.1,0-0.2,0c-0.1,0.4,0,0.5,0.2,0.5c0.1,0,0.2,0.2,0.2,0.2c0,0,0,0,0.1,0c0.1,0,0,0,0,0.2c0,0,0,0,0,0c-0.1,0-0.1,0-0.2,0   c-0.3,0-0.4,0.2-0.6,0.4v0.1c0,0.2-0.3,0.4-0.4,0.7c0,0,0,0,0,0c0.1,0.2,0.1,0.4,0,0.5c0,0-0.1,0.2-0.1,0.2l0,0.2   c0,0.2-0.1,0.4-0.1,0.5l0,0.1c0,0.4,0,0.5,0,0.9c0,0.4,0,0.7-0.1,1.1c0,0.2,0,0.3-0.1,0.5c-0.2,0.4-0.3,0.5-0.5,0.9   c-0.1,0.2-0.2,0.2-0.3,0.5c-0.1,0-0.1,0.2-0.2,0.2c-0.2,0.5-0.3,1.8-1,1.6c-0.6,0-0.5-0.9-0.3-1.2c0.2-0.3,0.5-0.7,0.7-1   c0.3-0.4,0.6-0.9,0.8-1.3c0.1-0.3,0.1-0.7,0-1c-0.1-0.2,0-0.4,0-0.5c0-0.2-0.1-0.5-0.2-0.7c-0.1,0-0.1,0-0.2,0   c-0.1,0-0.1-0.2-0.1-0.2c-0.1,0-0.3-0.2-0.4-0.2c-0.1,0-0.5-0.2-0.5,0c-0.2,0-0.1,0.9,0,1c0,0,0.1,0,0.1,0.2   c0.1,0.2,0.1,0.2,0.2,0.4c0.1,0.2,0.4,0.2,0.5,0.4c0.1,0,0.1,0.4,0,0.5c-0.1,0.5-0.6,0.9-1,1.4c-0.6,0.7-1.2,1.6-0.6,2.5   c0.2,0.4,0.6,0.7,1.1,0.7c0.2,0,0.4,0,0.6-0.2c0.1,0,0.1,0,0.3,0c0,0,0.1,0,0.1,0.2c0.1,0,0.1,0.2,0,0.4c-0.1,0.2-0.2,0.2-0.3,0.2   c-0.1,0.2-0.2,0.9-0.2,1.1c0,0.2,0.2,0.5,0.3,0.9h0c0,0-0.1,0-0.1,0c-0.5-0.2-0.3-0.5-0.5-0.9c-0.1-0.2-0.5-0.4-0.7-0.4   c-0.4,0,0.1,0.7,0.1,0.7c0,0.2-0.1,0.2-0.1,0.2c-0.3,0-0.4,0-0.6,0.1c0,0.2,0.1,0.2,0.1,0.2c0.3,0.4,0.7,0.5,1,0.2c0,0,0,0,0.1,0   c0,0.2-0.1,0.2-0.1,0.4c0.1,0.2,1.7,0.4,1.9,0.4c0.2,0,0.6,0,0.8,0c0,0,0,0,0,0.2c0-0.2-0.2,0-0.2,0.2c-0.1,0,0,0.2,0,0.2   c0.1,0,0.2,0,0.3,0c0.1,0,0.2,0,0.3,0c0.2,0,0.4,0,0.6,0c0.3,0,0.5-0.2,0.7-0.4c0.1-0.2,0.1-0.2,0.2-0.4c0.2,0,0.5,0,0.7-0.2   c0.1,0,0.3,0,0.4,0c0.1,0,0.3,0,0.4-0.2c0,0,0.1,0.2,0.1,0.2c-0.1,0-0.1,0.2-0.2,0.2c0.1,0,0.3,0.2,0.4,0.2c0.2,0,0.4,0,0.5,0   c0.3,0,0.5,0,0.7-0.2c0.1,0,0.1,0,0.3-0.2h0c0,0,0,0,0,0.2c0,0,0,0,0,0c0,0-0.1,0-0.2,0.2c-0.1,0-0.2,0.2-0.2,0.4   c0.1,0,0.2,0,0.3,0c0.3,0,0.6,0.2,0.9,0.2c0.3-0.2,0.5-0.4,0.7-0.4c0,0.2,0,0.4,0.1,0.4c0,0.1,0.1,0.1,0.1,0.2H93   c0.1,0,0.2-0.1,0.3-0.2c0.1,0,0.1,0.1,0.2,0.2h0.3c0.2-0.2,0.4-0.3,0.5-0.3c0.1,0,0.3,0.2,0.5,0.3H95c0.1,0,0.1-0.1,0.1-0.2   c0.1,0,0.3,0.1,0.5,0.2h0.6c0,0,0.1-0.1,0.1-0.2c0.1,0,0.1-0.2,0.1-0.4c0,0,0,0,0,0c0,0,0.1,0,0.1,0.2c0.1,0,0.3,0,0.5,0.2   c0.4,0,0.9,0,1.2-0.2c0.1,0,0.1,0,0.1-0.2c0,0-0.3-0.4-0.4-0.4c0-0.2,0.2,0,0.2,0c0.3,0.2,0.5,0.2,0.8,0.2c0.2,0,0.8,0,0.9-0.2   c0.1,0,0-0.2-0.1-0.2c0,0,0,0,0,0c0,0,0,0,0,0c0.4,0,0.7,0,1,0.2c0,0,0,0,0.1,0c0,0,0,0,0.1,0h0c0.1,0,0.1,0,0.1,0   c0.1,0,0.1,0,0.2,0c0.1,0.2,0.1,0.2,0.1,0.2c0.3,0.4,0.7,0.5,1.2,0.5c0.2,0,0.4,0,0.6,0c0.1,0,0.3,0.2,0.3,0   c0-0.2-0.2-0.4-0.2-0.4c0,0,0,0,0,0c0-0.2,0.3-0.2,0.3,0c0.3,0,2.1-0.4,2.2-0.5c0.1,0,0-0.2,0-0.4c0.1,0,0.2,0.2,0.3,0.2   c0.3,0.2,0.8-0.2,0.9-0.4c0,0-0.2-0.2-0.2-0.2c-0.1-0.2-0.3-0.1-0.5-0.1c0,0,0.1-0.2,0.1-0.2c0.1-0.2,0.2-0.3,0.1-0.7   c-0.4,0-0.8,0.2-0.9,0.5c-0.1,0.2,0,0.4-0.1,0.5c-0.1,0.2-0.4,0.2-0.5,0.2c0.1,0,0.3-0.7,0.3-0.9c0-0.2-0.1-0.7-0.2-0.9   c-0.1,0-0.1,0-0.1-0.2c-0.1,0-0.2,0-0.2,0c-0.1-0.4,0-0.5,0.1-0.7c0.1,0,0.3,0,0.4,0.2c0.2,0,0.5,0,0.7,0c0.4,0,0.7-0.2,0.9-0.5   c0.2-0.2,0.2-0.5,0.2-0.9c0-0.5-0.4-1-0.7-1.6c-0.1-0.2-0.2-0.2-0.4-0.4c-0.2-0.2-0.3-0.4-0.4-0.5c-0.1-0.2-0.1-0.2-0.1-0.4   c-0.1-0.2-0.1-0.2-0.1-0.3c-0.1-0.2,0-0.4,0-0.5c0.2,0,0.3,0,0.5-0.2c0.1-0.2,0.1-0.2,0.2-0.4c0.1-0.2,0.1-0.2,0.2-0.4   c0.1-0.2,0.1-0.7,0.1-0.9c0,0-0.1-0.2-0.2-0.2c-0.2,0-0.6,0.2-0.8,0.4c-0.1,0-0.1,0-0.2,0.1c-0.1,0-0.1,0-0.2,0   c-0.1,0.2-0.2,0.2-0.2,0.4c-0.1,0.2,0,0.5,0,0.7c0,0.2,0,0.2-0.1,0.4c0,0.5,0.1,0.9,0.3,1.4c0.2,0.2,0.4,0.5,0.7,0.9   c0.3,0.4,0.6,0.7,0.8,1.2c0,0,0,0.2,0,0.2c0,0.5,0,0.5-0.4,0.7c-0.1,0-0.2,0-0.4,0c0-0.2,0-0.2-0.1-0.2c-0.4-0.5-0.5-1.1-0.6-1.6   c-0.1-0.2-0.2-0.4-0.4-0.5c-0.2-0.4-0.5-0.9-0.6-1.2c-0.1-0.2,0-0.3-0.1-0.5c-0.1-0.5-0.1-1.1-0.1-1.6c0-0.2,0-0.2,0.1-0.3   c-0.1,0-0.1-0.2-0.1-0.4c0-0.2,0-0.2,0-0.4c0,0-0.1-0.2-0.1-0.4c-0.1-0.2,0.1-0.2,0.1-0.4c-0.1,0-0.2-0.2-0.2-0.2   c-0.1-0.2-0.1-0.4-0.2-0.4c0-0.2,0-0.2,0-0.3c0,0-0.1-0.2-0.2-0.2c-0.2-0.2-0.5-0.2-0.6-0.4c0,0,0,0,0,0c0.3,0,0.7-0.3,0.3-0.7   c0,0,0,0-0.1,0c-0.2,0-0.4-0.4,0-0.4c0,0.2,0,0.2,0.1,0.4c0,0,0.1,0,0.1,0c0.4-0.4,0.4-0.4,0.5-0.9c0-0.1,0-0.2,0-0.2   c0-0.4-0.4-0.4-0.6-0.5c-0.1,0-0.1-0.2-0.2-0.4c-0.1,0-0.3-0.2-0.4,0c-0.1,0-0.1,0-0.2,0c-0.1-0.2-0.2-0.2-0.2-0.4   c-0.2-0.2-0.6-0.2-0.9-0.2c-0.1,0-0.1,0.2-0.2,0.2c-0.3,0-0.2,0-0.4,0.2c-0.2,0-0.4,0-0.5,0.2c-0.1,0-0.1,0.2-0.1,0.2   c-0.1,0-0.1,0.2-0.2,0.2c-0.1,0.2-0.1,0.2-0.2,0.4c0,0,0,0.2-0.1,0.4c-0.1,0-0.2,0-0.3,0c-0.1,0-0.2,0-0.3,0c-0.1,0-0.3,0-0.4,0.1   c-0.1,0-0.2,0.2-0.3,0.2c-0.1,0.2-0.2,0.2-0.3,0.4h0c0,0,0-0.2,0-0.2c0-0.2-0.1-0.4-0.1-0.4c0-0.2,0-0.1,0-0.3   c0-0.2,0-0.9-0.2-0.9c-0.2-0.2-0.5,0.2-0.7,0.2c-0.1,0.2-0.2,0.2-0.3,0.2c-0.1,0.2-0.2,0.2-0.2,0.4c-0.2,0-0.3,0.2-0.4,0.4   c-0.1,0.2,0,0.3-0.1,0.5c-0.1,0-0.1,0.2-0.2,0.2c-0.1,0.2,0,0.4,0,0.4c0,0.2-0.1,0.4-0.1,0.4c0,0.4,0.2,0.4,0.3,0.5   c0,0-0.1,0.2-0.2,0.2c-0.1,0.2-0.1,0.1-0.2,0.1c-0.3,0-0.5-0.1-0.5-0.3c0-0.2,0-0.2,0-0.4c0,0,0.1,0,0.1,0c0.3,0,0.4,0,0.4-0.4   c0,0,0,0,0-0.2c0.1-0.2,0.1-0.2,0.1-0.4c0-0.2-0.1-0.2-0.1-0.4c0-0.2,0.1-0.3,0-0.5c0-0.2-0.1-0.2-0.2-0.4c-0.1,0-0.1-0.2-0.1-0.2   c-0.1-0.2-0.2-0.2-0.3-0.4c-0.1,0-0.3-0.5-0.4-0.5c-0.2,0-0.5,0.5-0.6,0.7c-0.1,0-0.1,0-0.2,0.2c0,0,0,0.2-0.1,0.2   c-0.1,0.2-0.3,0.2-0.3,0.4c-0.1,0.2,0.1,0.3,0.1,0.5c0,0.2-0.1,0.2-0.1,0.4c0,0.2,0.1,0.4,0.1,0.5c0.1,0.2,0,0.4,0.2,0.4   c0.1,0,0.2,0,0.3,0c0.1,0,0.1,0.2,0.1,0.2c0,0.4-0.2,0.4-0.4,0.5c0,0,0,0-0.1,0c-0.2,0-0.5-0.1-0.5-0.3c0,0,0.3-0.2,0.3-0.4   c0-0.2-0.1-0.2-0.1-0.4c0-0.2,0.1-0.4,0.1-0.5c0,0-0.1-0.2-0.1-0.2c0,0-0.1-0.2-0.1-0.2c-0.1-0.2,0-0.3-0.1-0.5   c-0.1-0.2-0.3-0.2-0.4-0.2c-0.1-0.2-0.1-0.2-0.1-0.4c-0.1,0-0.2-0.2-0.4-0.2c-0.2,0-0.3-0.4-0.5-0.4c-0.2,0-0.3,0.7-0.3,0.9   c0,0-0.1,0.2-0.1,0.2c0,0.2,0.1,0.2,0.1,0.3c0,0.2,0,0.4-0.1,0.5c0,0,0,0,0,0c0-0.2-0.3-0.2-0.4-0.4c-0.1,0-0.1-0.2-0.3-0.2   c-0.1-0.2-0.2-0.1-0.2-0.1c-0.1,0-0.2,0-0.3,0c-0.1,0-0.1,0-0.2-0.2c-0.2,0-0.1-0.2-0.1-0.2c-0.1-0.2-0.1-0.4-0.2-0.4   c-0.1-0.2-0.1-0.2-0.2-0.2c0-0.2-0.1-0.2-0.1-0.2c-0.1-0.2-0.4-0.2-0.5-0.4c-0.1,0-0.1,0-0.2-0.2c-0.1,0-0.3,0-0.4,0   c-0.1,0-0.2,0-0.4,0C87.3,135.6,87.2,135.6,87.1,135.6z M87.1,135.8c0.2,0.2,0.1,0.2,0,0.4C86.9,136.2,87,135.8,87.1,135.8z    M87.6,135.8c0.1,0,0.1,0,0.2,0c0,0.2,0,0.2,0,0.2c0.1,0-0.3,0.4-0.5,0.2C87.2,136.2,87.5,136,87.6,135.8z M94.2,136   c0.3,0.2,0.2,0.5,0.2,0.7c0.1,0,0.2,0,0.3,0c0,0,0.1,0,0.1,0c0.1,0.2-0.2,0.4-0.3,0.5c-0.1,0-0.1,0.1-0.1,0.1c0,0.2,0,0.2,0,0.2   c0.2,0.2,0.5-0.5,0.6-0.5c0,0,0,0,0,0.2c0,0.2,0,0.1-0.2,0.3c0,0.2,0.2,0.2,0.2,0.4c0,0.2,0,0.2-0.1,0.2c0,0-0.1,0-0.1,0   c-0.2,0-0.4,0-0.6,0.2c-0.1,0-0.1,0.2-0.2,0.2c0,0,0,0,0-0.2c-0.1,0-0.3-0.2-0.5-0.2c-0.1,0-0.2,0-0.3,0c0-0.2,0-0.4,0.2-0.4   c0-0.2-0.1-0.2-0.1-0.2c-0.1-0.2,0-0.3,0-0.5c0,0,0,0,0,0c0,0,0.1,0.2,0.1,0.2c0.1,0.2,0.2,0.3,0.3,0.3c0,0,0.1,0,0.1,0   c0.1,0,0.1,0,0.1-0.2c0-0.2-0.2-0.3-0.3-0.5c0-0.2-0.1-0.2-0.1-0.2c0,0,0,0,0-0.2c0.1,0,0.2,0.2,0.2,0.2c0,0,0,0.1,0,0.1   c0,0,0-0.1,0-0.1c0.1,0,0,0,0,0c0-0.2,0-0.2,0-0.2C94,136.3,94.1,136.2,94.2,136z M101,136c0.1,0,0.5,0.2,0.4,0.4   C101.3,136.5,100.8,136.2,101,136z M101.5,136c0.1,0,0.4,0,0.2,0.2C101.6,136.3,101.5,136,101.5,136z M88,136.2   C88,136.2,88,136.2,88,136.2c0.2,0,0.3,0,0.4,0c0.1,0-0.1,0.2-0.1,0.2c-0.1,0-0.2,0-0.3,0c-0.1,0-0.1,0-0.2,0   C87.8,136.2,87.9,136.2,88,136.2z M100.4,136.2c0.2,0,0.4,0,0.5,0.2c0,0.2-0.1,0.2-0.2,0.2C100.6,136.5,100.3,136.3,100.4,136.2z    M86.3,136.3c0.2,0,0.6,0,0.7,0.2c0.1,0.2,0,0.2,0.1,0.4c0.1,0,0.1,0.2,0.1,0.2c0.1,0,0,0.2,0,0.2c0.1,0.3-0.1,0.7-0.1,1   c0,0.2,0,0.2-0.1,0.4c-0.1,0-0.2,0.2-0.3,0.2v-0.2c0,0,0.1-0.2,0.1-0.2c0,0,0.1-0.2,0.1-0.2c0.1-0.4-0.1-0.7-0.2-0.9   c-0.1-0.2-0.1-0.1-0.2-0.3c0,0,0.1,0,0.1,0c0.1-0.2,0.1-0.2,0.2-0.2c-0.1-0.2-0.3-0.2-0.5-0.4c0,0.2,0,0.2,0,0.2c0,0,0,0-0.1,0.2   c0,0,0,0.2,0,0.2c0,0.2,0.1,0.2,0.2,0.3c0.1,0,0.1,0.2,0.2,0.4c0,0.2,0,0.2,0,0.4c0,0.5-0.3,0.5-0.7,0.4c0.1,0,0.3,0,0.4-0.2   c0.3-0.2,0-0.9-0.3-0.9c-0.2,0-0.3,0-0.4,0.2c-0.1,0-0.2-0.2-0.2-0.3c0,0,0,0-0.1-0.2c0,0,0-0.2,0.1-0.2c0.1,0,0.2,0,0.3-0.2   c0.1,0,0.2,0,0.3,0C86.3,136.7,86.3,136.5,86.3,136.3z M88.6,136.3c0.1,0.2,0.2,0.2,0.3,0.4c0.1,0,0,0,0,0c-0.1,0-0.2,0-0.3,0   c-0.2,0-0.3,0-0.4,0C88.2,136.5,88.5,136.5,88.6,136.3z M91.3,136.3c0.3,0.2,0.4,0.4,0.4,0.7c0,0,0,0,0.1,0c0.1,0,0.1-0.2,0.1-0.4   h0c0.3,0,0.1,0.7,0.1,0.9c0,0.2,0,0.2,0.1,0.4c0.1,0,0.1,0,0.1,0c0.2-0.4,0.1-0.5,0.1-0.7c0-0.2,0.1,0,0.1,0   c0.2,0.2,0,0.3,0.1,0.5c0.1,0.2,0.3,0.2,0.2,0.4c0,0.2-0.2,0.2-0.3,0.4c-0.1,0-0.2,0.2-0.2,0.2c0,0.2,0,0.2,0,0.2   c-0.1,0-0.2-0.2-0.2-0.2c-0.3-0.2-0.4,0-0.5,0.2c0,0-0.1,0-0.1,0c-0.2-0.2,0-0.5,0-0.7c-0.1,0-0.1,0-0.1,0c-0.2,0-0.2-0.2-0.2-0.4   c0,0,0-0.2,0.1-0.2c0.1,0,0.1,0.2,0.1,0.2c0.2,0.2,0.4,0.4,0.6,0.2c0,0,0,0-0.1-0.2c-0.1,0-0.2-0.2-0.3-0.4c-0.2,0-0.4,0-0.4-0.3   c0,0,0.2,0,0.3,0c0,0-0.1,0-0.1-0.2C91.1,136.7,91.2,136.5,91.3,136.3z M97.1,136.3c0.4,0.2,0,0.7,0,0.9c0.1,0,0.1-0.2,0.2-0.2   c0,0,0,0,0.1,0c0,0.5-0.8,0.5-0.8,1c0.3,0,0.5,0,0.6-0.2c0.1-0.2,0.1-0.2,0.1-0.4c0,0,0.2,0.2,0.1,0.2c0,0-0.1,0.2-0.1,0.2   c0,0,0,0-0.1,0c-0.1,0.2-0.3,0.2-0.3,0.4c0,0,0,0.2,0.1,0.2c0,0,0,0.2-0.1,0.2c-0.2,0-0.3-0.2-0.5-0.2s-0.3,0.2-0.4,0.2   c-0.1,0-0.2-0.2-0.3-0.2c-0.1-0.2-0.1-0.2-0.2-0.2c-0.1,0-0.1,0-0.1-0.2c0-0.2,0.2-0.2,0.2-0.2c0.1-0.2-0.2-0.7,0.2-0.7   c0,0.2-0.1,0.5,0.2,0.7c0.1,0,0,0,0,0c0.4-0.2-0.2-1,0.3-1.2c0,0.2,0,0.2,0,0.4c0,0,0,0,0.1,0C96.7,136.7,96.9,136.5,97.1,136.3z    M102.2,136.3c0.1,0,0.1,0,0.2,0.2c0,0,0,0.2,0,0.4c0,0,0.1,0,0.1,0c0.1,0,0.5,0,0.5,0.2c0,0,0,0.2,0,0.2c0,0.2,0,0.3,0,0.3   c-0.1,0.2-0.4-0.2-0.6,0c-0.2,0.2-0.5,0.7-0.1,0.9c0.1,0,0.3,0,0.4,0c0.1,0,0.1,0,0.1,0c0,0,0,0,0,0.2c-0.1,0-0.1,0-0.1,0   c-0.1,0-0.3,0-0.4,0c-0.5-0.2-0.2-0.9,0-1.2c0.1,0,0.2-0.1,0.2-0.1c0-0.2-0.1-0.4-0.1-0.5c0,0-0.1,0-0.1,0c-0.1,0-0.2,0.2-0.3,0.2   c-0.1,0,0.3,0.2,0.3,0.2c0,0,0,0,0,0c0,0.2-0.2,0.3-0.2,0.3c-0.2,0.4-0.3,0.7-0.1,1.1c0.1,0.2,0.1,0.2,0.2,0.4c0,0,0,0,0,0   c-0.1,0-0.3,0-0.3-0.2c-0.1,0,0-0.2,0-0.4c-0.1-0.4-0.2-0.7-0.1-1c0-0.2,0.1-0.2,0.1-0.4c0-0.2,0-0.2,0.1-0.4   C101.8,136.5,102.1,136.5,102.2,136.3z M87.3,136.5c0.2,0,0.2,0.2,0.2,0.4c0,0,0,0-0.1,0c-0.1,0-0.2,0-0.2,0   C87.3,136.7,87.3,136.7,87.3,136.5z M87.7,136.5c0.1,0,0.5,0.2,0.4,0.4c0,0.2-0.1,0.2-0.1,0.2C87.7,137,87.7,136.9,87.7,136.5z    M100,136.5C100,136.5,100.1,136.5,100,136.5c0.3,0,0.4,0,0.5,0.2c0,0-0.1,0.2-0.1,0c-0.2,0-0.5,0.2-0.7,0   C99.8,136.6,99.9,136.5,100,136.5z M101.2,136.5c0.4,0.2,0.3,0.5-0.1,0.5C101.1,137,101.1,136.7,101.2,136.5z M100.9,136.7   c0.1,0,0.2,0.2,0,0.4c-0.1,0-0.2,0-0.3,0c0,0-0.1,0,0,0C100.6,136.9,100.8,136.7,100.9,136.7z M88.5,136.9L88.5,136.9   c0.2,0,0.5,0,0.6,0.2c0,0,0.1,0,0.1,0.2c0,0-0.6-0.2-0.6-0.2C88.4,137,88.4,136.9,88.5,136.9z M100,136.9c0.1,0,0.2,0,0.3,0.2   c-0.1,0-0.1,0-0.2,0.2H100c-0.1,0-0.2,0-0.3,0c-0.1,0-0.1,0-0.1,0C99.5,137,99.8,137,100,136.9z M87.5,137   c0.1,0.2,0.1,0.2,0.1,0.2c0,0,0.2,0.3,0.1,0.3C87.6,137.5,87.4,137.2,87.5,137z M93.8,137c0.1,0.2,0.2,0.2,0.1,0.3   C93.8,137.4,93.8,137.2,93.8,137z M94.7,137c0.1,0.2,0,0.2-0.1,0.3c0,0,0,0,0,0C94.6,137.2,94.7,137.2,94.7,137z M87.9,137.2   c0.2,0,0.4,0,0.4,0.3c0,0,0,0,0,0c-0.1,0.2-0.4-0.2-0.4-0.2C87.9,137.4,87.9,137.2,87.9,137.2z M88.6,137.2   c0.3,0.2,0.5,0.1,0.6,0.5c0,0,0.1,0.2,0,0.2C89.2,137.7,88.3,137.6,88.6,137.2z M92.2,137.2c0,0.2,0.1,0.1,0.1,0.3   c0,0-0.1,0-0.1,0c0,0,0,0,0,0C92.2,137.4,92.1,137.4,92.2,137.2z M100.6,137.2c0.4,0.2,0,0.5-0.3,0.5c0,0,0-0.2,0-0.2   C100.4,137.4,100.4,137.4,100.6,137.2z M101.1,137.2C101.2,137.2,101.2,137.2,101.1,137.2c0.1,0.2,0.1,0.3-0.2,0.5   C101,137.4,101,137.4,101.1,137.2z M100.1,137.3C100.1,137.3,100.1,137.3,100.1,137.3c0.1,0.2-0.2,0.2-0.3,0.4   c-0.1,0-0.3,0.2-0.3,0.2c0,0,0,0-0.1,0c0-0.2,0.2-0.4,0.4-0.5c0.1,0,0.1,0,0.2,0C100,137.4,100,137.3,100.1,137.3z M89.6,137.4   c0.3,0.2,0.3,0.2,0.4,0.4c0,0.2,0,0.2,0,0.2c0,0,0.1,0,0.1,0c0,0,0,0,0-0.2l0-0.2c0,0,0,0,0.1,0c0,0,0.1,0.2,0.1,0.2   c0,0.4-0.1,0.7,0.1,1.1c0.3,0,0.2-0.5,0.2-0.9c0,0,0,0,0,0c0,0.2,0.1,0.2,0.1,0.2c0,0.2,0,0.4,0,0.5c0.2,0,0.3,0.2,0.3,0.4   c-0.2,0-0.3,0.2-0.4,0.4c0,0,0,0,0,0c-0.1,0-0.1,0-0.1,0c-0.1-0.2-0.1-0.2-0.2-0.4c-0.1-0.2-0.2-0.4-0.2-0.5   c-0.1-0.2-0.1-0.4-0.2-0.5C89.8,137.7,89.6,137.7,89.6,137.4z M96.2,137.4c0.1,0.2,0,0.2,0,0.2C96.1,137.5,96.2,137.4,96.2,137.4z    M99,137.4C99,137.4,99,137.4,99,137.4c0.1,0,0.1,0,0.2,0c0,0,0.1,0,0.1,0c0.1,0-0.1,0.2-0.1,0.2c-0.3,0.4-0.5,0.7-0.7,1.1   c-0.2,0.4-0.3,0.5-0.4,0.7c-0.1,0.2-0.1,0.2-0.1,0c0-0.2-0.3-0.4-0.4-0.7c0,0,0,0,0,0c0,0,0.2,0,0.2,0c0-0.2-0.2-0.3,0.1-0.7   c0,0,0.1,0,0.1,0c0.1,0,0,0,0,0.2c0,0.2,0,0.5,0.2,0.5c0,0,0,0,0,0c0,0,0.1-0.2,0.1-0.2c0-0.2,0-0.2,0-0.4c0-0.2-0.2-0.5,0.1-0.5   h0c0,0.2,0,0.2,0,0.2c0.1,0,0.3-0.2,0.3-0.2C98.8,137.4,98.9,137.4,99,137.4z M91.3,137.5c0.1,0,0.3,0.2,0.3,0.2   C91.5,137.7,91.3,137.7,91.3,137.5z M87.4,137.7c0.1,0,0.2,0,0.2,0c0.1,0,0.2,0.4,0.1,0.4c-0.1,0-0.1,0-0.1,0   C87.4,137.9,87.4,137.9,87.4,137.7z M87.9,137.7c0.3,0,0.4,0.2,0.5,0.5c0,0,0,0.2-0.1,0.2c0,0-0.1,0-0.1-0.2   C88,138.3,87.9,138.1,87.9,137.7z M88.7,137.7c0.3,0.2,0.4,0.4,0.5,0.5c0,0.2,0.1,0.2,0,0.4c0,0-0.1,0-0.1,0c0,0,0-0.2-0.1-0.2   c-0.2,0-0.4-0.2-0.5-0.4C88.6,138.1,88.7,137.9,88.7,137.7z M96.8,137.7c0.1,0,0.1,0,0.1,0c0,0,0.1,0,0.1,0   c-0.1,0.2-0.2,0.2-0.3,0.2C96.8,137.9,96.8,137.9,96.8,137.7z M100.7,137.7c0.2,0.4-0.2,0.7-0.4,0.7h0c0,0,0,0,0-0.2   C100.4,138.1,100.5,137.9,100.7,137.7z M101.2,137.7c0.3,0.2,0.1,0.4-0.1,0.5c0,0,0,0-0.1,0C100.8,137.9,101.2,137.7,101.2,137.7z    M100,137.9c0.2,0.4,0.1,0.4-0.1,0.5c-0.1,0-0.1,0.2-0.2,0.2h-0.1c0,0.2,0,0.2-0.1,0C99.5,138.3,99.6,138.1,100,137.9z    M90.4,138.1c0,0.2,0.1,0.2,0.1,0.4c0,0-0.1,0-0.1,0S90.3,138.3,90.4,138.1z M90.9,138.1c0.1,0.2,0.2,0.4,0.2,0.5h0   c-0.1,0-0.1,0-0.1-0.2C91,138.4,90.9,138.3,90.9,138.1z M97.5,138.1c0.1,0.2,0,0.4-0.1,0.5c-0.1,0.2-0.1,0.2-0.1,0.2   c-0.1,0.2-0.1,0.2-0.2,0.4c-0.2,0.2,0,0.3,0.2,0.3c0.1,0.4-0.1,0.4-0.2,0.4c-0.3,0-0.6,0-0.7-0.4c0,0-0.1-0.1,0-0.1   c0.1-0.2,0.2,0,0.4,0c0.1,0,0.3-0.2,0.3-0.2c0-0.2,0.1-0.2,0.1-0.4c0.1,0,0.2-0.2,0.2-0.2C97.4,138.3,97.3,138.3,97.5,138.1z    M98.1,138.1c0.1,0,0.1,0.2,0.1,0.2c0,0,0,0,0,0c0,0,0,0,0,0h0C98,138.3,98.1,138.1,98.1,138.1z M99.1,138.1   c0.1,0.2,0.1,0.9,0.1,1.1c0,0,0.1,0.2,0.1,0.2c0,0.2,0,0.3,0,0.5c0,0.2,0.1,0.2,0.1,0.4c0,0.2,0,0.4,0,0.5c0,0-0.1,0.2-0.2,0.2   c-0.1,0-0.2-0.2-0.4-0.2c-0.1,0-0.2,0-0.3,0c-0.2,0-0.4,0-0.6,0c-0.1,0-0.2,0-0.3,0c0,0,0.1-0.4,0.1-0.4c0.1-0.2,0-0.4,0.1-0.5   c0.1-0.2,0.3-0.2,0.4-0.4C98.5,139,98.8,138.6,99.1,138.1z M102.4,138.1c0,0.2,0,0.2,0,0.2c0,0,0,0,0,0   C102.4,138.3,102.4,138.3,102.4,138.1z M87.3,138.3c0.3,0,0.4,0.2,0.4,0.5c-0.1,0-0.1,0-0.2,0C87.3,138.6,87.2,138.4,87.3,138.3z    M87.9,138.3c0.3,0.2,0.4,0.5,0.4,0.9c-0.1,0-0.1,0-0.1,0C88,138.8,87.8,138.6,87.9,138.3z M89.6,138.3c0.1,0.2,0.2,0.4,0.4,0.5   c0.1,0.2,0.1,0.4,0.3,0.5c0.1,0.2,0.3,0.3,0.4,0.5c0.1,0,0.1,0.2,0.2,0.2c0,0.2,0,0.2,0,0.4c0,0,0.1,0.2,0.1,0.4c0,0,0,0-0.1,0   c-0.1,0-0.2,0-0.3,0c-0.1,0-0.2,0-0.3,0c-0.1,0-0.2,0-0.3,0c-0.1,0-0.2,0-0.3,0.2c0,0,0,0-0.1,0c-0.1-0.2-0.1-0.2-0.2-0.2   c-0.1-0.2-0.1-0.5-0.1-0.7c0.1,0,0.1-0.2,0.1-0.2c0-0.2,0-0.4,0-0.5c0-0.2,0.1-0.2,0.1-0.2c0-0.2,0-0.4,0.1-0.5   C89.5,138.4,89.6,138.3,89.6,138.3z M93.6,138.3c0.1,0,0.1,0,0.1,0c0.7,0.2,0.5,1.1,0.1,1.4c-0.2,0.2-0.4,0.2-0.6,0.2   c-0.4,0-0.6-0.4-0.7-0.7c0-0.2,0-0.2,0-0.4c0,0,0-0.2,0.1-0.2c0.2-0.2,0.4,0,0.3,0.2c-0.1,0-0.1,0-0.1,0c0,0,0,0-0.1,0   c0,0,0,0,0,0.2c0,0.4,0.2,0.7,0.6,0.7c0.6,0.2,0.9-0.3,0.8-0.9c0-0.2-0.1-0.4-0.2-0.4c-0.1,0.2,0,0.2-0.1,0.2   C93.5,138.6,93.5,138.4,93.6,138.3z M94.6,138.3C94.7,138.3,94.7,138.3,94.6,138.3c0.3,0,0.3,0.2,0.3,0.4c0,0-0.1,0-0.2,0   c0,0,0,0,0-0.2c0,0-0.1,0-0.1,0c-0.2,0.2-0.2,0.2-0.2,0.5c0.1,0.5,0.3,0.7,0.8,0.7c0.1,0,0.3-0.2,0.4-0.2c0.1-0.2,0.1-0.1,0.1-0.3   c0.1-0.2,0.1-0.5,0-0.5c-0.1,0-0.1,0.2-0.2,0.2c-0.1,0-0.1-0.2-0.1-0.2c0.1-0.4,0.5,0,0.5,0.2c0.1,0.2-0.1,0.7-0.3,0.9   c-0.1,0-0.2,0.2-0.3,0.2c-0.2,0-0.3,0-0.5,0c-0.4-0.2-0.6-0.5-0.6-0.9c0-0.2,0-0.4,0.1-0.5C94.5,138.3,94.6,138.3,94.6,138.3z    M101.3,138.3c0.4,0.2-0.1,0.5-0.2,0.5c0,0-0.1,0-0.1,0C100.9,138.6,101.2,138.4,101.3,138.3z M88.7,138.4   c0.3,0.2,0.4,0.5,0.4,0.9c-0.1,0-0.5-0.5-0.5-0.5C88.6,138.8,88.6,138.6,88.7,138.4z M100.7,138.4c0.4,0.2-0.1,0.7-0.2,0.7   c0,0.2-0.1,0.2-0.1,0C100.4,139,100.5,138.6,100.7,138.4z M96.5,138.6c0.2,0,0.2,0,0.3,0.2c0.2,0,0.1,0.4-0.1,0.4   c-0.1,0-0.1,0-0.1,0h0c0-0.2,0-0.2,0.1-0.4h0c-0.3,0-0.5,0.5-0.4,0.9c0.1,0.2,0.2,0.2,0.3,0.4c0.5,0.2,1.3-0.2,1-0.9   c0,0,0,0-0.1,0c0,0.2,0,0.2-0.1,0.2c0,0,0,0-0.1,0c0-0.2,0-0.2,0.1-0.2c0.1-0.2,0.2,0,0.2,0c0,0,0,0,0.1,0.2   c0.1,0.2-0.1,0.7-0.4,0.7c-0.1,0.2-0.2,0.2-0.4,0.2c-0.2,0-0.3,0-0.4-0.2c-0.5-0.2-0.6-0.7-0.2-1.2   C96.3,138.8,96.4,138.8,96.5,138.6z M100,138.6c0.1,0,0.1,0,0.1,0.2c0.1,0.2-0.1,0.2-0.3,0.4c-0.1,0-0.1,0.2-0.1,0.2h0   c0,0-0.1,0-0.1,0c0,0,0-0.2,0-0.2C99.6,139,99.8,138.8,100,138.6z M91.9,138.7C91.9,138.7,92,138.7,91.9,138.7   c0.1,0,0.2,0.2,0.2,0.2c0.2,0.4,0.4,0.7-0.1,1c-0.1,0.2-0.2,0.2-0.4,0.2c-0.4,0-1-0.4-1-0.9c0-0.2,0.3-0.4,0.4,0c0,0,0,0,0,0h-0.1   c-0.1,0-0.1,0-0.1,0c0,0,0,0,0,0c0,0,0,0-0.1,0c0,0.2,0,0.1,0.1,0.1c0.1,0.5,0.7,0.7,1,0.5c0.3-0.4,0.3-0.7,0.1-1c0,0-0.1,0-0.2,0   c0,0,0,0,0,0.2c0,0,0,0,0,0c0,0,0,0-0.1,0C91.7,139,91.7,138.8,91.9,138.7C91.9,138.8,91.9,138.8,91.9,138.7z M91.2,138.8   c0.1,0,0.1,0,0.3,0.2c0,0.5,0.5,0.2,0.6,0.4c0,0.3-0.3,0.5-0.6,0.5c-0.1,0-0.2,0-0.2-0.2c0-0.2,0.2-0.2,0.2-0.3   C91.4,139.2,91.1,139,91.2,138.8z M86.5,139C86.5,139,86.5,139,86.5,139c0.2,0,0.3,0,0.4,0.2c0.1,0,0.1,0,0.2-0.2   c0.2,0,0.4,0.2,0.5,0.2c0,0,0,0.2,0,0.2c0,0-0.1,0-0.1,0c0,0,0,0,0,0c0,0,0,0,0.1,0.1c0.2,0,0.3,0.2,0.3,0.5c-0.1,0-0.1,0-0.1,0   c0,0,0,0,0,0c0,0,0.5,0.9,0,0.5c0,0,0,0,0,0c-0.1,0,0.1,0.4,0.1,0.4c0.1,0.2,0.2,0.4,0.3,0.5c0,0.2,0.1,0.3,0.1,0.3   c0.2,0.5,0.6,0.9,0.9,1.3c0.1,0.2,0.2,0.4,0.4,0.4c0.3,0.2,0.2-0.7,0.5-0.7c0,0,0,0.2-0.1,0.4c0,0,0,0.2,0.1,0.2   c0,0-0.1,0.2-0.1,0.2c0,0.2,0.1,0.2,0.1,0.2h0c-0.1,0,0,0.2-0.1,0.2c0,0-0.1,0.2-0.1,0.3c0,0,0.1,0,0.1,0.2c0,0-0.1,0.2-0.1,0.2   c-0.1,0.2-0.1,0.4-0.4,0.4c0-0.2-0.1-0.2-0.1-0.2c-0.1-0.2,0-0.4-0.1-0.5c-0.1-0.2-0.3-0.2-0.4-0.3c-0.2-0.2-0.5-0.3-0.7-0.7   c-0.2,0-0.3-0.4-0.5-0.4c0,0-0.1,0-0.1,0c-0.1,0-0.3-0.4-0.3-0.5c-0.1,0-0.1,0.2-0.1,0.2c-0.1,0-0.1,0-0.1,0   c-0.2,0,0.1-0.7-0.4-0.7c0,0-0.2-0.7-0.2-0.7c0,0-0.1,0-0.1,0c-0.1,0,0.1,1.2,0.1,1.2c0.1,0.2,0.2,0.2,0.2,0.2   c0.1,0.2,0.1,0.4,0.3,0.5c0,0,0.1,0,0.1,0c0,0,0.4,0.4,0.4,0.4c0.1,0,0.2,0,0.3,0c0,0,0,0.2,0.1,0.2c0,0-0.1,0.2-0.1,0.2   c-0.1,0-0.1,0-0.2,0c0,0,0,0,0,0c0,0.2-0.1,0.7-0.3,0.5c0,0-0.1,0-0.1,0.2c-0.1,0-0.1,0.2-0.1,0.2c-0.1,0.2-0.1,0.2-0.2,0.2   c-0.2,0.2-0.3,0.5-0.5,0.7c-0.1,0.2-0.3,0.4-0.3,0.5c-0.1,0.2-0.1,0.3-0.2,0.5c-0.1,0.2-0.1,0.4-0.2,0.5c-0.1,0.4-0.2,0.5-0.3,0.9   c-0.1,0.2-0.1,0.4-0.2,0.7c-0.2,0.2-0.5,0.5-0.8,0.7c-0.1,0.2-0.3,0.2-0.3,0.4c-0.1,0.2,0,0.4,0.1,0.5c0,0.2-0.1,0.2,0,0.4   c0.1,0,0.1,0,0.2,0c0.1,0,0.8-0.2,0.8,0c-0.1,0-0.1,0-0.1,0c-0.2,0-0.3,0-0.5,0.3c0,0-0.1-0.2-0.1-0.2h-0.1c-0.1,0,0,0.2,0,0.4   c0,0,0-0.2,0,0c-0.1,0-0.3-0.2-0.4-0.2c-0.1,0-0.1,0-0.2,0c-0.1,0-0.1-0.2-0.1-0.2c-0.1-0.2-0.3-0.7-0.3-0.9s0-0.5,0.1-0.5   c0.1-0.2,0.3-0.2,0.3-0.2c0.1-0.4,0.1-0.5,0-0.9c0-0.2-0.1-0.2-0.1-0.4c0,0,0-0.2,0.1-0.2c0-0.2,0.1-0.4,0.1-0.5   c0-0.2,0-0.2-0.1-0.2c0,0,0,0-0.1,0c-0.2,0-0.2,0.5-0.4,0.7c-0.1,0.2-0.2,0.2-0.4,0.4c-0.1,0-0.1,0-0.2,0c-0.4,0-0.7,0-1-0.2   c-0.1-0.2-0.2-0.2-0.2-0.4c-0.5-1.1,0.6-1.9,1.1-2.6c0.3-0.4,0.5-0.9,0.6-1.2c0-0.2,0-0.4,0-0.5c0-0.4-0.3-0.2-0.5-0.4   c-0.1,0,0-0.2-0.1-0.4c-0.1,0-0.2,0-0.3-0.2c0,0,0-0.2,0.2,0c0-0.2-0.2-0.2-0.3-0.5c0,0,0,0,0,0c0-0.2,0.1-0.2,0.1-0.2   c0.3,0.2,0.2,0.3,0.4,0.3v0c0,0,0,0,0,0c0.2,0,0.2,0.2,0.2,0.4c0,0,0,0,0.1,0c0,0,0,0,0.1,0c0.1,0,0.1,0.2,0.1,0.2   c0,0.2-0.1,0.4,0,0.5c0,0,0.1,0.2,0.1,0.2c0.1,0.2,0,0.5,0,0.7c-0.2,0.7-0.8,1.4-1.3,1.9c-0.2,0.4-0.3,0.5-0.4,0.9   c-0.2,0.4,0,1.1,0.5,1.2c0.9,0.2,1.2-1.1,1.4-1.6c0.2-0.7,0.8-1.2,1-1.8c0.1-0.4,0.2-0.7,0.2-1.2c0.1-0.5,0.1-1.1,0.2-1.6   c0.1-0.2,0.4-0.4,0.4-0.5c0,0,0,0,0-0.2c0,0-0.1,0-0.1,0c-0.1,0.2-0.2,0.4-0.4,0.4c0-0.5,0.6-0.5,0.7-1.1c-0.1,0-0.3,0.2-0.4,0.4   c0,0-0.1,0-0.1,0c0-0.5,0.6-0.4,0.6-0.9c-0.1,0-0.1,0.2-0.2,0.2c-0.1,0-0.1,0-0.2,0c0-0.2,0.3-0.4,0.5-0.5c-0.1,0-0.1,0-0.2,0   c0,0,0,0,0,0c0,0,0,0,0-0.2c0.1,0,0.1,0,0.1,0c0.2,0,0.3,0,0.4,0C86.3,139.3,86.5,139,86.5,139z M87.8,139   c0.3,0.2,0.3,0.5,0.2,0.9c-0.1,0-0.1-0.2-0.1-0.4c-0.1,0-0.1-0.1-0.1-0.1C87.8,139.2,87.8,139.2,87.8,139z M102,139   c0.2,0,0.3,0.2,0.3,0.4c0.1,0,0.2-0.2,0.3-0.2c0.1,0,0.3,0.2,0.2,0.2c0,0-0.1,0-0.1,0.1c0,0,0.5,0.4,0.4,0.5   c-0.1,0-0.3-0.2-0.4-0.2c0,0,0,0,0,0c0,0.2,0.3,0.4,0.4,0.4c0.1,0.2,0.2,0.4,0.3,0.5c-0.1,0-0.4-0.4-0.5-0.4c0,0,0,0.2,0,0.2   c0,0.2,0.3,0.2,0.5,0.4c0.1,0.2,0.1,0.4,0.1,0.4c0,0,0,0.2,0,0.2c-0.1,0-0.3-0.4-0.4-0.4c0,0-0.1,0,0,0.2c0.1,0.2,0.2,0.2,0.3,0.4   c0.1,0.2,0.1,0.5,0.1,0.9c0,0.2,0,0.2,0,0.4c0.1,0.5,0.1,1,0.2,1.4c0.1,0.5,0.3,0.7,0.6,1.1c0.1,0.2,0.2,0.4,0.4,0.5   c0.3,0.5,0.3,1.8,1.1,1.9c0.1,0,0.2,0,0.3,0c0.4,0,0.6-0.4,0.7-0.7c0,0,0.1-0.2,0-0.4c-0.1-0.2-0.1-0.4-0.2-0.5   c-0.2-0.3-0.5-0.7-0.8-1c-0.2-0.2-0.2-0.4-0.3-0.5c-0.2-0.4-0.4-0.7-0.4-1.2c0-0.2,0.1-0.4,0.1-0.5c0-0.2-0.1-0.4,0-0.5   c0-0.2,0.1-0.2,0.1-0.2c0,0,0,0,0,0c0,0.2,0.1,0.2,0.1,0.2c0,0,0.1-0.4,0.1-0.4c0.1,0,0.1,0,0.1,0c0,0,0.1,0,0.1,0   c0-0.2,0.4-0.5,0.5-0.3c0,0,0,0,0,0c0,0.3-0.1,0.3-0.3,0.5c0,0,0,0,0,0c0,0.2,0.1,0,0.1,0c0,0.4-0.2,0.4-0.3,0.4   c0.1,0,0.1,0.2,0.1,0.2c0,0,0,0,0,0c0,0.4-0.5,0.2-0.6,0.4c-0.1,0.2-0.1,0.5,0,0.7c0.1,0.3,0.3,0.9,0.5,1c0.6,0.9,2,2.3,0.8,3.2   c-0.1,0-0.1,0-0.3,0.2c-0.8,0-1-0.2-1.3-0.9c0,0-0.1-0.4-0.2-0.2c-0.2,0,0.1,0.7,0,0.9c-0.1,0.2-0.2,0.5-0.1,0.7   c0.1,0.2,0.1,0.4,0.2,0.5c0.1,0,0.1,0,0.2,0c0.1,0.2,0,0.2,0.1,0.4c0.1,0.4,0,0.5-0.1,0.9c0,0.2-0.1,0.3-0.2,0.3   c-0.1,0.2-0.3,0-0.4,0.2c-0.1,0-0.1,0-0.2,0c0,0,0-0.2,0-0.2c-0.1,0-0.1,0-0.1,0c-0.1-0.2-0.1-0.2-0.2-0.2c-0.2-0.2-0.3,0-0.4-0.1   c0,0,0,0,0,0c0-0.2,0.3,0,0.3,0c0.2,0,0.3,0,0.4,0c0.1,0,0.2,0,0.3,0c0.1,0,0.1,0,0.1,0c0-0.2-0.1-0.2,0-0.4   c0-0.2,0.1-0.2,0.1-0.4c0-0.4-0.9-0.9-1.1-1.2c-0.1-0.2-0.1-0.5-0.2-0.7c-0.1-0.4-0.3-0.5-0.3-0.9c-0.1-0.2-0.1-0.5-0.2-0.7   c0-0.2,0-0.3-0.1-0.3c-0.2-0.4-0.4-0.5-0.6-0.9c-0.2-0.2-0.2-0.4-0.4-0.4c-0.1-0.2-0.1-0.4-0.1-0.4c-0.1,0-0.1,0-0.1,0   c0,0,0,0,0,0c0,0,0,0-0.1,0c0-0.2-0.1-0.2-0.1-0.4c0,0,0-0.1-0.1-0.3c0,0,0,0-0.1,0c0,0,0,0.2,0,0.2c-0.1,0-0.1-0.4-0.1-0.4   c0,0,0.1-0.2,0.1-0.2c0,0,0.2,0.2,0.2,0c0.1,0,0.2-0.2,0.3-0.4c0,0,0,0,0.1,0c0,0,0.1,0,0.1,0c0,0,0.2-0.4,0.3-0.5   c0.1,0,0.1,0,0.1,0c0.1,0,0.1,0,0.1-0.2c0-0.2,0.1-0.4,0.1-0.7c0.1-0.2,0.1-0.2,0-0.4c0-0.2,0-0.2-0.1-0.2c-0.1,0-0.1,0.2-0.1,0.2   c0,0.2,0,0.2-0.1,0.4c0,0.2,0,0.2-0.1,0.3c0,0,0,0,0,0c-0.1,0-0.1,0-0.1,0c-0.1,0-0.1,0.5-0.2,0.5c0,0,0,0-0.1,0   c-0.1,0-0.1,0-0.1,0c-0.1,0.2-0.2,0.4-0.2,0.5c-0.1,0-0.1-0.2-0.2-0.2c-0.1,0.2-0.3,0.4-0.4,0.5c-0.2,0.2-0.5,0.4-0.7,0.5   c-0.1,0-0.4,0.2-0.5,0.3c-0.1,0.2-0.1,0.4-0.2,0.5c-0.1,0.2-0.1,0.2-0.1,0.2c-0.2,0-0.4-0.4-0.4-0.5c0-0.2,0.1-0.2,0.1-0.4   c0,0-0.1-0.3,0-0.3c0,0,0,0,0-0.2c-0.1,0,0-0.2,0-0.4c0-0.2,0-0.2,0-0.4h0c0,0,0,0,0,0c0.3,0.2,0.1,0.9,0.5,0.7   c0.2,0,0.3-0.2,0.4-0.4c0.3-0.4,0.6-0.7,0.8-1.1c0.1-0.2,0.1-0.3,0.2-0.5c0.1-0.2,0.3-0.5,0.3-0.7c0-0.2-0.2,0-0.2,0   c-0.1,0-0.1,0-0.1,0c0-0.2,0.2-0.3,0.2-0.7c0,0,0,0,0,0c0,0-0.1,0-0.1,0c0-0.2,0.3-0.4,0.4-0.5c0-0.2,0-0.1-0.1-0.1   c0.1,0,0.2-0.2,0.3-0.2c0.2,0,0.3,0,0.4,0C101.9,139.2,102,139.2,102,139z M88.5,139.2c0.4,0.2,0.4,0.5,0.4,0.9   c-0.1,0-0.1,0-0.1,0c0-0.2-0.3-0.4-0.4-0.5C88.5,139.5,88.5,139.3,88.5,139.2z M100.8,139.2c0.2,0,0,0.2,0,0.3   c-0.1,0.2,0,0.4-0.2,0.4C100.4,139.8,100.6,139.2,100.8,139.2z M100.1,139.3c0.1,0,0,0,0,0.1c0,0.2-0.2,0.4-0.4,0.5h-0.1   c0,0,0,0,0-0.2C99.7,139.5,99.8,139.5,100.1,139.3z M94.2,139.5c0.1,0,0.2,0.2,0.3,0.4c0.5,0.4,1,0.2,1.4-0.2c0.1,0,0.1,0,0.1,0   c0.1,0.2,0.2,0.4,0.3,0.5c0.3,0.2,0.7,0.2,1.1,0c0,0,0,0,0.1,0c0,0.2-0.2,0.2-0.4,0.4c-0.4,0-0.9-0.2-1.1-0.5   c-0.1,0-0.1-0.2-0.2-0.2c-0.1,0-0.2,0.2-0.2,0.2c-0.1,0-0.2,0-0.2,0.2c-0.1,0-0.1,0-0.2,0c-0.4,0-0.8-0.2-0.9-0.5c0,0-0.1,0-0.1,0   c0,0.2-0.4,0.4-0.4,0.4c-0.1,0.2-0.2,0.2-0.3,0.2c-0.2,0-0.5,0-0.6-0.2c-0.1,0-0.2-0.2-0.3-0.2c0,0.2-0.1,0.2-0.1,0.2   c-0.3,0.5-0.7,0.5-1.1,0.4c-0.1,0-0.1,0-0.2,0s-0.1,0-0.1-0.2c0,0,0,0,0,0c0,0,0.2,0,0.2,0c0.1,0.2,0.2,0.2,0.3,0.2   c0.4,0,0.8-0.2,0.9-0.7c0.2,0,0.3,0.2,0.5,0.4C93.4,140.2,94,139.8,94.2,139.5z M88.3,139.7c0.3,0.2,0.6,0.5,0.5,1.1c0,0,0,0,0,0   h0c-0.1,0-0.1-0.2-0.1-0.2c-0.1,0-0.1-0.2-0.2-0.4c-0.1,0-0.2,0-0.2-0.2C88.3,139.8,88.3,139.8,88.3,139.7z M100.3,139.8   c0.1,0,0,0,0.1,0c0,0.2,0,0.2-0.1,0.4c-0.1,0-0.1,0-0.2,0.2c-0.1,0-0.1,0.2-0.2,0.4h-0.1c-0.1,0,0-0.2,0-0.2   C99.9,140.2,100,140,100.3,139.8z M94.1,140c0.2,0,0.3,0.2,0.4,0.2c0.1,0,0.2,0.2,0.4,0.2c-0.5,0-0.9,0-1.3,0   C93.8,140.4,94,140.2,94.1,140z M88.2,140.2c0.3,0.4,0.5,0.5,0.5,1.1c0,0,0,0-0.1,0c0,0-0.1-0.2-0.1-0.2   C88.3,140.9,88,140.6,88.2,140.2z M92.6,140.2c0.1,0,0.2,0,0.3,0.2c0.1,0,0.2,0,0.3,0c0,0.2-0.3,0-0.4,0.2c-0.2,0-0.5,0.2-0.7,0.2   c0,0,0-0.2,0-0.2c0,0,0.2-0.2,0.3-0.2C92.5,140.4,92.6,140.2,92.6,140.2z M95.7,140.2C95.8,140.2,95.8,140.2,95.7,140.2   c0.1,0,0.3,0.2,0.4,0.2c0.2,0.2,0.5,0.4,0.8,0.4c0.1,0,0.2-0.2,0.4-0.2c0,0.2-0.1,0.4-0.3,0.4c-0.2,0-0.4-0.2-0.6-0.2   c-0.2,0-0.3-0.2-0.4-0.2c-0.1,0-0.2,0-0.3,0c-0.1,0-0.2,0-0.3,0c-0.1-0.1-0.3-0.2-0.4-0.2c0.1,0,0.3,0,0.4,0   C95.5,140.2,95.6,140.2,95.7,140.2z M100.4,140.4L100.4,140.4c0.4,0.2-0.2,0.7-0.3,0.9c0,0-0.1,0-0.1,0h0c0-0.4,0.1-0.5,0.3-0.7   C100.3,140.5,100.3,140.4,100.4,140.4z M91.3,140.5c0.2,0.2,0.3,0.2,0.6,0.2C91.8,140.7,91.2,141.1,91.3,140.5z M93.2,140.5   L93.2,140.5c0.2,0,0.3,0.2,0.1,0.4c0.4,0,0.7,0,1.1,0c0.5,0,1,0,1.4,0.2c0.3,0,0.7,0.2,1,0.4c0.1,0,0.2,0,0.2,0c0,0.2-0.3,0-0.4,0   c-0.8-0.2-1.6-0.4-2.5-0.4c-0.2,0-0.5,0-0.8,0c-0.1,0-0.7,0.2-1,0.2c-0.3,0.2-0.5,0.2-0.8,0.2c0,0,0,0,0,0c0-0.2,1.1-0.4,1.3-0.4   c0.2,0,0.3-0.2,0.5-0.2C93.2,140.9,93.1,140.7,93.2,140.5z M93.7,140.5c0.1,0,0.2,0,0.2,0.2c-0.1,0-0.1,0-0.2,0   C93.6,140.7,93.7,140.5,93.7,140.5z M94.2,140.5c0.1,0,0.3,0.2,0.1,0.2C94.1,140.7,94.1,140.5,94.2,140.5z M94.7,140.5   C94.7,140.5,94.7,140.5,94.7,140.5c0.1,0,0.3,0.2,0.2,0.2c-0.1,0.2-0.2,0-0.2,0C94.6,140.6,94.6,140.6,94.7,140.5z M95.1,140.5   c0.1,0,0.2,0.2,0.2,0.2c-0.1,0.2-0.1,0.2-0.1,0.2c-0.1,0-0.1,0-0.2,0c0-0.2-0.1-0.2-0.1-0.2C95,140.7,95.1,140.7,95.1,140.5z    M92.3,140.7c0.2,0,0.2,0.2,0,0.4C92.2,140.9,92.1,140.9,92.3,140.7z M92.8,140.7c0.1,0,0.2,0,0.2,0c0,0.2-0.1,0.2-0.2,0.2   C92.6,140.9,92.7,140.7,92.8,140.7z M95.5,140.7C95.5,140.7,95.5,140.7,95.5,140.7C95.5,140.7,95.6,140.7,95.5,140.7   c0.2,0,0.3,0,0.2,0.2c-0.1,0-0.2,0-0.2,0C95.5,140.8,95.5,140.7,95.5,140.7z M96.1,140.7c0.1,0,0.2,0,0.2,0.2c0,0-0.1,0.2-0.2,0   C96,140.9,96,140.7,96.1,140.7z M88.1,140.9c0.3,0.2,0.5,0.7,0.4,1c-0.1,0-0.1,0-0.1,0c-0.1-0.2-0.1-0.3-0.1-0.5   C88.3,141.3,88.2,141.3,88.1,140.9z M89.1,140.9c0.2,0,0.3,0.4,0.4,0.4c0,0,0.1,0,0.1,0c0.1,0,0.2-0.2,0.4-0.4c0.1,0,0.3,0,0.4,0   c0.2,0,0.4,0,0.5,0c0.1,0,0.5,0.2,0.3,0.4c-0.1,0-0.2,0-0.3,0c-0.2,0-0.4,0-0.6,0c-0.1,0-0.2,0-0.2,0c-0.1,0-0.1,0-0.1,0   c0,0-0.1,0-0.1,0c-0.1,0,0,0.4,0,0.4s-0.1,0-0.1,0c0,0-0.1,0.3-0.2,0.3c-0.1,0-0.1,0-0.1,0c-0.2-0.2,0-0.3,0-0.5   c-0.2,0-0.3,0.2-0.4,0.2s-0.2-0.2-0.1-0.4c0.1,0,0.1,0,0.1,0C89.1,141.1,89.1,141.1,89.1,140.9z M91.8,140.9   c0.2,0,0.2,0.2,0.1,0.2C91.8,141.3,91.7,140.9,91.8,140.9z M96.4,140.9C96.5,140.9,96.5,140.9,96.4,140.9c0.2,0,0.3,0,0.2,0.2   C96.6,141.1,96.5,141.1,96.4,140.9z M97.5,140.9c0.2,0,0.3,0,0.4,0c0.1,0,0.2,0,0.3,0c0.1,0,0.2,0,0.2,0.2c0.1,0,0.2,0,0.2,0   c0.2,0,0.3,0.2,0.5,0.2c0.1,0,0.3-0.2,0.4-0.4c0,0,0.1,0,0.1,0l0,0.2c0,0.2,0.1,0.4,0.1,0.5c0,0-0.1,0.2-0.3,0   c0,0-0.2-0.2-0.2-0.2c-0.1,0-0.1,0-0.1,0c0,0.2,0.2,0.5-0.1,0.5c-0.2,0-0.2-0.2-0.2-0.2c0-0.2,0-0.1-0.1-0.1c-0.1,0,0-0.2,0-0.2   c0,0,0-0.2-0.1-0.2l-0.2,0.2c0,0-0.1-0.2-0.1-0.2c-0.1,0-0.3,0-0.4,0c-0.2,0-0.3,0-0.4,0c0,0,0,0-0.1,0.2c0,0,0,0,0,0   c0.1,0.2,0,0.3-0.1,0.5c0,0,0,0-0.1,0c0-0.2,0-0.2,0-0.2c0-0.2,0-0.1,0-0.3c0,0,0.1,0,0.1,0c0,0-0.1,0-0.1-0.2   C97.3,141.1,97.4,141.1,97.5,140.9z M91.5,141.1c0.1,0,0.1,0,0.1,0l0,0.2c0,0-0.1,0-0.1,0C91.5,141.3,91.4,141.1,91.5,141.1z    M96.9,141.1C97,141.1,97,141.1,96.9,141.1c0.1,0,0.1,0.2,0.1,0.2c0,0,0,0,0,0c-0.1,0-0.1,0-0.1,0   C96.9,141.3,96.9,141.1,96.9,141.1z M100.4,141.1c0.1,0,0.1,0,0.1,0.2c-0.1,0-0.1,0.2-0.1,0.2c-0.1,0.2-0.1,0.3-0.2,0.5   c-0.1,0.2-0.1,0.2-0.1,0c0-0.2,0-0.3,0-0.5C100.2,141.3,100.3,141.3,100.4,141.1z M93.3,141.3c0.1,0,0.2,0,0.3,0   c0.4,0,0.9,0,1.3,0c0.5,0,1,0.2,1.2,0.2c0,0.2,0,0.2,0,0.2c-0.1,0-2.9,0-3.7,0h0c0,0,0.2-0.2,0.3-0.2   C93,141.3,93.1,141.3,93.3,141.3z M90.3,141.4c0.3,0.2,0.2,0.2,0.1,0.5c0,0,0,0-0.1,0v-0.2C90.3,141.8,90.3,141.4,90.3,141.4z    M90.8,141.4L90.8,141.4c0.2,0.2,0.1,0.2,0.1,0.3c0,0.2,0,0.2-0.1,0C90.8,141.8,90.7,141.6,90.8,141.4z M91.1,141.4   c0.2,0.2,0.2,0.2,0.1,0.3c-0.1,0.2,0,0.2-0.1,0C91.2,141.8,91.1,141.6,91.1,141.4z M97.7,141.4c0.2,0.2,0.1,0.3,0.1,0.5   C97.7,141.9,97.7,141.6,97.7,141.4z M98.3,141.4c0.1,0.2,0.1,0.3,0,0.5c-0.1,0-0.2-0.2-0.1-0.3C98.2,141.6,98.2,141.6,98.3,141.4z    M88.9,141.8c0.1,0,0.2,0.2,0.3,0.2c0.1,0,0.2,0.2,0.3,0.2c0.1,0,0.2,0.2,0.3,0.2h0c0,0-0.1,0-0.1,0.2c-0.1,0-0.2,0-0.2,0.2   c0,0.2-0.1,0.4-0.2,0.4c0-0.2-0.1-0.2-0.1-0.2C89,142.5,88.6,142.3,88.9,141.8z M99.6,141.9c0.1,0,0.2,0.1,0.2,0.3   c0,0.5-0.3,0.5-0.5,0.9c-0.1,0-0.1-0.2-0.1-0.4c-0.1-0.2-0.2-0.2-0.3-0.2c0-0.2,0-0.2,0.1-0.2c0.1,0,0.2,0,0.3,0   C99.4,142.1,99.4,141.9,99.6,141.9C99.6,141.9,99.6,141.9,99.6,141.9z M89.9,141.9c0.1,0,0.2,0,0.3,0.2c0,0,0,0,0,0   C90.1,142.1,89.7,142.1,89.9,141.9z M90.5,141.9c0.1,0,0.1,0.2,0.2,0.2c0.1,0,0.2-0.2,0.3-0.2c0,0.2,0.1,0.2,0.1,0.2   c0,0.2,0.3-0.2,0.4-0.2h5.6c0.2,0,0.2,0.2,0.4,0.2c0.1,0,0.1,0,0.1-0.2c0.1,0,0.2,0.2,0.3,0.2c0,0.2,0.1,0,0.1-0.2   c0,0,0.1,0,0.1,0c0,0.2,0.1,0.2,0.1,0.2c0,0,0,0.2,0,0.2c0.1,0,0.1,0,0.1,0.2c0.2,0.2-0.1,0.4-0.1,0.5c-0.1,0.2-0.1,0.2,0,0.4   c0,0,0.1,0.2,0.2,0c0,0,0,0.2,0,0.2s-0.1,0-0.1,0c-0.1,0.2-0.5,0.5-0.3,0.7c0.1,0,0.2,0,0.3,0c0,0,0,0,0,0.2   c-0.1,0-0.2,0.2-0.2,0.2c-0.1,0.2,0.1,0.4,0.3,0.4l-0.1,0.2c0,0.2,0,0.2,0,0.4c0,0.5,0,2.1,0,2.3c-0.1,0.7-0.4,1.2-0.9,1.6   c-0.2,0.2-0.4,0.4-0.6,0.5c-0.2,0-0.4,0.2-0.6,0.2c-0.3,0.2-0.4,0.2-0.6,0.2c-0.1,0-0.2,0-0.3,0c-0.2,0-0.3,0-0.4,0.2   c-0.1,0-0.1,0-0.3,0c-1.9,0-3.8-0.2-4.5-2.1c-0.1-0.2-0.1-0.3-0.1-0.5c-0.1-0.4,0-1.9-0.1-2.3c0-0.2,0.1-0.2,0.1-0.4   c0,0,0-0.2-0.1-0.2c0-0.2,0.3,0,0.4-0.2c0-0.2-0.2-0.4-0.2-0.5c0.1,0,0.1,0,0.1,0c0.4-0.2,0-0.5-0.1-0.7c0,0-0.1,0-0.1-0.2   c0.1,0,0.1,0,0.1,0c0.1,0,0.1-0.2,0.1-0.4c-0.1-0.2-0.3-0.4-0.2-0.7c0,0,0.1,0,0.1,0C90.5,142.1,90.5,142.1,90.5,141.9z    M98.7,141.9c0.1,0,0.1,0,0.1,0c0,0.2-0.1,0.2-0.2,0.4c-0.1,0-0.1,0-0.1-0.2C98.6,142.1,98.7,141.9,98.7,141.9z M93.2,142.1   c-0.3,0.2-1.3,1.2-1.2,1.6c0.1,0,0.2,0.3,0.4,0.1c0.1,0,0.1,0,0.2,0c0-0.2,0-0.1,0.1-0.1c0,0,0,0.1,0,0.1c-0.5,0.9-1-0.7-1.5-0.3   c-0.1,0-0.2,0-0.2,0.2c0,0.2,0,0.2,0,0.3c0.1,0.2,0.3,0.2,0.4,0.4c0.2,0.2,0.4,0.4,0.6,0.7c0.3,0.2,0.5,0.3,0.7,0.7   c0.2,0.2,0.6,0.3,0.7,0.7c0.1,0.2-0.1,0.2,0,0.4c0.1,0,0.2,0,0.2,0.2c0.1,0,0.1,0.2,0.1,0.2c0,0.2,0,0.4-0.1,0.5   c-0.1,0-0.1,0.4-0.1,0.5c0.1,0.9,0.9,1.4,1.7,1.6c0.1,0,0.3,0,0.4,0c0.1,0,0.1,0,0.2,0c0.1,0,0.2,0,0.3-0.2c0.2,0,0.4,0,0.7-0.4   c0.7-0.7,0.7-1.9,0.1-2.6c-0.1,0-0.3-0.2-0.4-0.2c-0.3-0.4-0.7-0.4-1.2-0.4c-0.2,0-0.4,0-0.5,0c-0.1,0-0.2,0-0.3-0.2   c-0.1,0-0.1-0.2-0.2-0.2c-0.1,0-0.2,0-0.2,0c-0.2,0-1.3-1.1-1.2-1.1c0-0.2,0.3-0.4,0.3-0.4c0,0,0.1,0,0.1,0c0.1,0,0,0,0.1,0   c0,0,0,0.2,0,0.2c-0.1,0.2-0.2,0.2,0,0.4c0.1,0.2,0.2,0.2,0.3,0.2c0.2,0,1.3-1.1,1.3-1.3c0-0.2-0.6-0.7-0.8-0.7   c-0.1,0-0.3,0.2-0.3,0.4c0,0,0,0-0.1,0c0.1,0.2,0.2,0.3,0.5,0.3c0.1,0-0.1,0.2-0.2,0.2c-0.2,0-0.9-0.7-0.9-0.9c0,0,0-0.2,0.1-0.2   c0,0,0,0,0,0.2c0,0,0,0.2,0.1,0.2c0.2,0.2,0.4-0.2,0.5-0.2c0-0.2,0.1-0.2,0.1-0.2C93.9,142.7,93.5,142.3,93.2,142.1z M93.2,142.5   c0.2,0,0.4,0.2,0.5,0.5c0,0-0.1,0.2-0.2,0.2h-0.1c0-0.2,0-0.2,0-0.4c0,0-0.1-0.2-0.1-0.2c0,0-0.1,0-0.1,0   c-0.1,0.2-0.4,0.5-0.4,0.5c0.2,0.2,1,1.2,1.2,1.2c0.2,0,0.4-0.4,0.4-0.5c0,0,0-0.1-0.1-0.1c0,0-0.1,0-0.1-0.2   c-0.1,0-0.1,0.2-0.2,0.2c0-0.2,0-0.2,0-0.2c0.1,0,0.2-0.2,0.2-0.2c0.1,0.2,0.2,0.2,0.3,0.2c0.1,0.2,0.2,0.2,0.1,0.3   c0,0.2-0.9,1.1-1,1.1c-0.1-0.4,0.3-0.3-0.1-0.7c-0.1,0-0.1-0.2-0.2-0.2c-0.1,0.2-0.6,0.5-0.6,0.7c0,0,0,0,0.1,0.2   c0.1,0,0.2,0.2,0.3,0.2c0.2,0.2,0.3,0.4,0.5,0.5c0.1,0.2,0.4,0.4,0.5,0.5c0,0-0.2,0.2-0.2,0.2c0,0-0.5-0.5-0.7-0.7   c-0.4-0.4-0.8-0.7-1.2-1.2c-0.2-0.2-0.4-0.4-0.5-0.5c0,0,0-0.1,0-0.1c0.4-0.2,0.8,0.9,1.1,0.7c0.1,0,0.2-0.2,0.3-0.2   c0.2-0.2,0.5-0.5,0.1-0.7c-0.2-0.2-0.3,0.2-0.5,0.2C92.2,143.4,93,142.8,93.2,142.5z M90,142.8c0.1,0,0.2,0.2,0.3,0.2   c0,0.2,0,0.2,0,0.2s0,0-0.1,0C90.2,143,90,143,90,142.8z M98.5,142.8c0.1,0,0.1,0,0.1,0.2c0,0-0.2,0.2-0.2,0.2s0,0-0.1,0h0   C98.3,143,98.5,142.8,98.5,142.8z M88.1,143.5c0.2,0,0.4,0.2,0.5,0.3c0.1,0.2,0.2,0.2,0.3,0.2c0,0,0.1,0.2,0.1,0.2   c0.1,0.2,0.1,0.5,0.2,0.7c0.2,0.2,0.5,0.2,0.5,0.4c0.1,0.4,0,1.8,0,1.9c0,0.4,0.1,0.5,0.1,0.9c0.2,0.5,0.4,1,0.9,1.6   c0.1,0,0.1,0.2,0.2,0.2c0.1,0,0.2,0.2,0.3,0.2c0.1,0,0.3,0.2,0.4,0.2h0c0,0-0.2,0.3-0.2,0.3c0-0.3-0.8-0.9-1-0.7c0,0,0,0.2,0,0.2   c-0.1,0-0.4-0.7-0.7-0.7c-0.2,0.2,0,0.7,0,0.9c0,0,0,0,0,0c0-0.2-0.2-0.4-0.2-0.5c0-0.2,0.1-0.4,0.2-0.4c0.1-0.2,0.1-0.5,0.1-0.7   c0-0.2-0.1-0.9-0.2-0.9c-0.1,0-0.3,0.5-0.3,0.5c0,0-0.1,0-0.1,0c-0.1,0-0.1,0-0.1,0c-0.1-0.2-0.1-0.2,0-0.3   c0.1-0.2,0.2-0.3,0.3-0.7c0.2-0.2,0.1-0.5,0.1-1.1c0-0.2,0-0.3-0.2-0.3c-0.1,0-0.1,0-0.1,0.2c-0.1,0-0.1,0.2-0.1,0.2   c0,0-0.1,0-0.1,0c-0.1,0-0.1-0.2,0-0.2c0-0.2,0.1-0.2,0.1-0.4c0.1-0.5-0.1-1.1-0.4-1.4c-0.1,0-0.2,0.2-0.2,0.2   c-0.2,0.5-0.2,0.9,0,1.4c0.1,0,0.2,0.2,0.2,0.3c0,0-0.1,0-0.1,0c-0.1-0.2-0.4-0.9-0.7-0.5c-0.1,0-0.1,0.2-0.1,0.4   c0,0.3,0.2,0.7,0.4,1c0.1,0,0.3,0.2,0.4,0.4c0,0.2,0.1,0.2,0.1,0.2c0,0,0,0.2,0,0.2c0,0,0,0-0.1,0c0,0,0,0-0.1,0   c-0.1-0.4-0.4-0.4-0.5-0.4c-0.1,0,0,0.5,0,0.7c0.1,0.2,0.2,0.5,0.4,0.7c0.2,0.2,0.5,0.4,0.5,0.7c-0.2,0-0.4-0.4-0.7-0.4   c-0.2,0.2,0.2,0.7,0.3,0.9c0.1,0.2,0.3,0.4,0.3,0.4c0,0-0.1,0.2-0.2,0c0,0-0.1,0-0.1,0c-0.2-0.4-0.3-0.7-0.7-0.5   c-0.1,0-0.3,0-0.3,0c-0.2,0-0.2,0-0.3-0.2c-0.1-0.4,0-0.5,0.1-0.9c0,0,0.1-0.2,0.1-0.2c0-0.2,0-0.4-0.1-0.5c0-0.2,0-0.2,0-0.4   c-0.1-0.4-0.1-0.7-0.2-1.1c-0.1-0.4-0.2-0.4-0.3-0.5c-0.1-0.2-0.1-0.3-0.2-0.5c-0.1,0-0.1-0.2-0.1-0.4c0,0,0.3-0.2,0.3-0.2   c0.1-0.2,0.1-0.4,0.2-0.4c0.1,0,0.1,0,0.2,0c0.1-0.2,0.2-0.4,0.3-0.5c0,0,0.1,0,0.1,0C88,143.9,88,143.7,88.1,143.5z M100.4,143.5   c0,0,0.1,0,0.1,0c0.1,0,0.1,0.5,0.2,0.7c0,0,0,0,0,0c0.3,0.2,0.2,0.4,0.4,0.5c0.1,0.2,0.2,0,0.2,0.2c0.1,0,0.1,0.2,0.1,0.4   c0,0,0.1,0,0.1,0c0,0,0.2,0,0.2,0.2c0,0.2-0.1,0.2-0.2,0.4c-0.2,0.2-0.4,0.5-0.5,0.9c-0.1,0-0.1,0.2-0.1,0.4c0,0.2,0,0.2-0.1,0.4   c-0.1,0.4-0.1,0.7-0.1,1c-0.1,0.4,0.2,0.5,0.3,0.9c0,0.2-0.1,0.4-0.1,0.5c0,0-0.2,0-0.2,0c-0.2,0-0.4,0-0.5,0   c-0.1,0-0.2,0.2-0.2,0.2c-0.2,0.2-0.3,0.5-0.5,0.4c0.1,0,0.2-0.2,0.2-0.2c0.1-0.2,0.5-0.7,0.4-0.9c-0.1-0.2-0.5,0-0.7,0.2   c0,0,0,0-0.1,0c0,0-0.1-0.2,0.1-0.2c0.1-0.2,0.1-0.2,0.2-0.2c0.1-0.2,0.2-0.2,0.3-0.2c0.3-0.4,0.4-0.7,0.5-1.2c0,0,0-0.2,0-0.4   c-0.2,0-0.4,0.2-0.5,0.4c0,0-0.1,0-0.1,0c0-0.4,0.3-0.5,0.5-0.7c0.2-0.4,0.5-0.9,0.4-1.4c0,0-0.1,0-0.1,0c-0.2,0-0.5,0.5-0.6,0.7   c0,0-0.1,0-0.1,0c0-0.2,0.2-0.3,0.2-0.5c0.2-0.4,0.2-0.9,0.1-1.2c0-0.2,0-0.2-0.1-0.4c-0.1,0-0.2,0.2-0.2,0.4   c-0.2,0.2-0.3,0.5-0.2,1.1c0,0,0,0.2,0.1,0.2c0,0.2,0.2,0.3,0.1,0.5c0,0,0,0-0.1,0c0-0.2-0.3-0.5-0.4-0.5c0,0-0.1,0.2-0.1,0.2   c-0.1,0.2-0.1,0.5-0.1,0.7c0,0.2,0.1,0.5,0.1,0.7c0.1,0,0.1,0.2,0.1,0.2c0.1,0.2,0.2,0.2,0.2,0.4c0,0.2,0,0.3-0.1,0.5   c-0.2,0-0.1-0.7-0.4-0.7c-0.1,0.2-0.1,0.4-0.1,0.5c-0.1,0.2-0.1,0.5-0.1,0.7c0,0.4,0.3,0.5,0.2,0.9c0,0.2-0.2,0.4-0.3,0.5   c0,0,0,0,0,0c0,0-0.1,0-0.1,0c0-0.2,0.1-0.2,0.1-0.4c0.1,0,0.1-0.2,0.1-0.4c0-0.2,0-0.2,0-0.2c-0.1,0-0.2,0-0.2,0   c-0.2,0.2-0.4,0.3-0.5,0.7c-0.1,0-0.1-0.4-0.1-0.4c0,0,0,0,0,0c-0.1,0-0.2,0-0.2,0c-0.2,0.2-0.3,0.2-0.5,0.4   c-0.1,0.2-0.2,0.2-0.3,0.3h-0.1c-0.1,0-0.1-0.1-0.1-0.1c-0.4,0-0.8,0.1-1,0.5c-0.1,0-0.2,0.2-0.3,0.4c-0.2,0-0.3-0.2-0.5-0.2   c-0.1,0-0.3-0.2-0.4-0.2c0,0,0,0-0.1-0.2c0,0,0,0,0.1,0c0,0,0.1,0,0.1,0c0.3,0,0.6,0,0.9-0.2c0.9-0.2,1.7-0.5,2.3-1.2   c0.3-0.4,0.6-0.9,0.6-1.4c0-0.4,0-2.3,0-2.6c0.1-0.2,0.4-0.2,0.5-0.4c0.2-0.2,0.2-0.5,0.3-0.7C99.9,143.9,100.2,143.9,100.4,143.5   z M90.1,143.7c0,0,0.2,0.1,0.2,0.1C90.3,144.1,90.1,143.9,90.1,143.7z M98.5,143.8c0,0,0.1,0,0.1,0.1c0.1,0-0.1,0.2-0.1,0.2   c0,0-0.2,0-0.2-0.2c0,0,0.1,0,0.2,0C98.4,143.8,98.5,143.8,98.5,143.8z M90,144.4c0.1,0,0.2,0,0.2,0.2   C90.3,144.8,89.9,144.6,90,144.4z M98.5,144.4c0.4,0,0.1,0.4-0.1,0.4h0C98.3,144.6,98.4,144.4,98.5,144.4z M88.7,144.8   c0.2,0,0.2,0.7,0.2,1.1c0,0-0.2-0.2-0.2-0.4S88.6,144.9,88.7,144.8z M89.7,144.8c0.1,0.2,0.1,0.2,0.2,0.2c0,0,0,0.2,0,0.2h0   c-0.1,0-0.1,0-0.2-0.2C89.7,144.9,89.7,144.9,89.7,144.8z M99.9,144.8c0.2,0.2,0.1,0.7,0,0.9c0,0-0.1,0.2-0.1,0.2   C99.6,145.8,99.8,144.9,99.9,144.8z M98.9,144.9C98.9,144.8,98.9,144.9,98.9,144.9c0,0.2-0.1,0.3-0.2,0.3c0-0.2,0.1-0.2,0.1-0.2   L98.9,144.9C98.9,144.9,98.9,144.9,98.9,144.9z M86.5,145.8c0.2,0,0.2,0.2,0.3,0.2c0.1,0.2,0.3,0.3,0.4,0.5   c0.1,0.4,0.1,0.7,0.2,1.1c0.1,0.2,0.1,0.5,0.1,0.9c0,0.2-0.1,0.4-0.2,0.4c-0.1,0.4-0.1,0.5,0,0.9c0,0.2,0,0.4,0.1,0.4   c0.2,0.2,0.6,0,0.8,0c0,0,0,0.2,0,0.2c0,0,0,0-0.1,0c-0.1,0-0.1,0-0.2,0c-0.2,0.2-0.2,0.2-0.3,0.3c-0.1,0-0.1,0-0.1,0   c-0.1,0-0.1,0.2-0.3,0.2c-0.3,0-0.6-1-0.6-1.4c0,0,0.1-0.2,0.1-0.4c0-0.2-0.1-0.5-0.1-0.7c-0.1-0.2-0.1-0.2-0.2-0.3   c-0.1,0-0.2,0-0.2,0c-0.1-0.2-0.3-0.4-0.3-0.5s0.1-0.4,0.2-0.5c0.1-0.4,0.2-0.5,0.2-0.9C86.4,146,86.4,145.8,86.5,145.8z    M102,145.8c0.1,0,0.2,0,0.2,0.2c0.1,0.2,0.2,0.5,0.3,0.7c0.1,0.2,0.1,0.4,0.1,0.5c0,0,0,0,0.1,0.2c0,0,0,0.2,0,0.2   c-0.1,0.2-0.2,0.4-0.3,0.4c-0.1,0-0.2,0-0.3,0.2c-0.2,0.2-0.2,0.5-0.3,0.7c0,0.2,0,0.4,0,0.4c0,0.2,0.1,0.2,0.1,0.4   c0,0-0.1,0-0.1,0.2c-0.1,0.4-0.2,1-0.7,1.2c0-0.2,0-0.2,0-0.2c-0.1,0-0.1,0-0.1-0.2c-0.1,0-0.1,0-0.2,0c0,0-0.1-0.1-0.1-0.1   c-0.2-0.2-0.3,0-0.4-0.2h0c0-0.2,0.1,0,0.1,0c0.3,0,0.7,0.2,0.8-0.2c0.1-0.4,0.2-0.7,0.1-0.9c-0.1-0.4-0.2-0.5-0.2-0.9   c0-0.3,0.1-0.5,0.1-0.9c0.1-0.2,0-0.5,0.1-0.7C101.6,146.3,101.9,146.2,102,145.8z M88.3,146c0.2,0.2,0.4,0.5,0.5,0.9c0,0,0,0,0,0   C88.5,147,88.2,146.2,88.3,146z M94.3,146.2c0.1,0,0.3,0.2,0.3,0.2c-0.1,0.2-0.5,0.7-0.5,0.7c-0.1-0.2-0.2-0.4-0.3-0.4   C93.9,146.5,94.1,146.3,94.3,146.2z M100.3,146.2L100.3,146.2c0.2,0.2-0.2,0.7-0.3,0.9c0,0-0.1,0-0.1,0   C99.9,146.7,100.1,146.2,100.3,146.2z M89.2,146.3c0.2,0.2-0.1,1.1-0.2,1.1H89C88.9,147.1,89.1,146.7,89.2,146.3z M95.2,146.3   L95.2,146.3c1.1,0,1.9,0.7,1.9,1.8c0,0.3-0.2,0.7-0.5,1c-0.2,0.2-0.5,0.4-0.8,0.4c-0.3,0-0.6,0-0.8-0.2c-1.2-0.4-1.3-1.8-0.4-2.6   C94.8,146.5,95,146.5,95.2,146.3z M99.3,146.3c0.1,0.2,0.1,0.2,0.2,0.4c0.1,0,0.2,0.7,0.1,0.9c0-0.2,0-0.2-0.1-0.4   C99.4,147.1,99.2,146.7,99.3,146.3z M95.3,146.7c-0.3,0-0.6,0.2-0.8,0.4c-0.2,0.2-0.3,0.5-0.3,0.7c-0.1,0.7,0.3,1.2,0.9,1.6   c0.2,0,0.4,0,0.6,0c0.1,0,0.2,0,0.2-0.2c0.2,0,0.5-0.2,0.6-0.4c0.5-0.7,0.3-1.8-0.5-2.1C95.8,146.7,95.6,146.7,95.3,146.7z    M95.2,146.9C95.2,146.9,95.2,146.9,95.2,146.9c0.2,0,0.3,0,0.4,0c0.1,0,0.1,0,0.2,0v0.2c0,0-0.1,0-0.1,0   C95.7,147,95.2,147,95.2,146.9z M96,147c0.1,0,0.2,0.2,0.2,0.2c0.2,0.2,0,0.5,0,0.9c0,0.2,0.2,0.3,0.1,0.5h-0.1   c-0.2,0.2-0.5,0-0.7,0c-0.2,0-0.5,0.2-0.7,0.2c-0.1,0-0.1-0.2-0.1-0.2c-0.1-0.2,0-0.4,0-0.7c0-0.2-0.2-0.3-0.1-0.7c0,0,0,0,0,0   c0.1-0.2,0.4,0,0.5,0c0.1,0,0.2,0,0.3,0C95.7,147.2,95.9,147.2,96,147z M95.4,147.4c-0.1,0.2-0.2,0.2-0.2,0.2   c-0.3,0.5,0,0.9,0.5,0.9c0.2,0,0.2,0,0.3,0c0.1-0.2,0.2-0.3,0.2-0.5C96,147.6,95.8,147.4,95.4,147.4z M96.5,147.6   c0.1,0.2,0.1,0.4,0.1,0.5c0,0,0,0.2-0.1,0.2h0C96.5,148.1,96.4,147.9,96.5,147.6z M95.5,147.7c0.2,0,0.3,0.2,0.2,0.4   c0,0-0.1,0-0.1,0.2c-0.2,0-0.4,0-0.4-0.3c0,0,0-0.2,0.1-0.2C95.4,147.7,95.5,147.7,95.5,147.7z M94.5,147.8   c0.1,0.2,0.1,0.2,0.1,0.4c-0.1,0.2-0.1,0.2-0.1,0.3c-0.1,0-0.1,0-0.1,0C94.4,148.3,94.4,147.9,94.5,147.8z M100.1,147.9   C100.1,147.9,100.1,147.9,100.1,147.9c0,0.4-0.2,0.9-0.5,0.9h0c0,0,0,0,0-0.2C99.7,148.4,99.9,148.1,100.1,147.9   C100.1,147.9,100.1,147.9,100.1,147.9z M85.7,147.9c0.1,0,0.2,0,0.3,0.2c0.2,0.2,0.3,0,0.4,0.3h0c0,0,0,0,0,0.2c0,0,0.1,0.2,0,0.4   c0,0.2-0.1,0.2-0.1,0.4c0,0,0,0.2,0.1,0.4c0.1,0.2,0.1,0.5,0.3,0.9c0.1,0,0.1,0.2,0,0.2c-0.1,0-0.2,0-0.2,0   c-0.1-0.2-0.1-0.2-0.1-0.3c-0.1-0.2-0.6-0.5-0.8-0.5c-0.1,0-0.1,0.2-0.1,0.2c0,0.2,0.2,0.5,0.3,0.7c0.1,0,0.1,0,0.1,0.2   c0,0-0.1,0-0.1,0c0,0,0,0-0.1,0c-0.2-0.2-0.3-0.9-0.8-0.9c-0.1,0-0.2,0-0.3,0c-0.1,0-0.2,0-0.2-0.2c0,0-0.1-0.2,0-0.4   c0.1,0,0.3-0.2,0.4-0.4c0.2-0.2,0.4-0.4,0.6-0.5C85.6,148.4,85.7,148.1,85.7,147.9z M88.5,147.9c0.2,0,0.5,0.5,0.5,0.7   c0,0,0,0.2-0.1,0.2c-0.1,0-0.4-0.5-0.4-0.7C88.5,148.1,88.4,147.9,88.5,147.9z M102.8,147.9C102.9,147.9,102.9,147.9,102.8,147.9   c0.1,0.5,0.5,0.9,0.8,1.2c0.1,0.2,0.5,0.4,0.5,0.5v0.2c0,0,0,0.2-0.1,0.2c0,0-0.1,0-0.2,0c-0.5,0-0.6,0-0.8,0.5   c-0.1,0-0.1,0.2-0.1,0.2c0,0-0.1,0.2-0.1,0.2h0v-0.2c0,0,0.1,0,0.1,0c0.2-0.2,0.3-0.5,0.3-0.7c-0.3,0-0.7,0.2-0.9,0.4   c-0.1,0.2-0.1,0.3-0.2,0.3c0,0,0,0,0,0.2c-0.1,0-0.2-0.2-0.2-0.2c-0.1,0,0.2-0.2,0.2-0.3c0.1-0.2,0.2-0.4,0.2-0.7   c0.1-0.2,0.1-0.2,0.1-0.4c0-0.2-0.1-0.2-0.1-0.4c-0.1-0.2,0.1-0.5,0.2-0.7c0.1,0,0.2,0,0.3-0.2   C102.7,148.1,102.8,147.9,102.8,147.9z M89.4,148.3c0.3,0.2,0.1,0.9,0,0.9C89.2,149.2,89.3,148.3,89.4,148.3z M99.1,148.3   c0.1,0.2,0.1,0.2,0.1,0.2c0.1,0.2,0.1,0.7,0,0.7c0,0,0,0,0,0.2c0,0,0,0-0.1,0c0-0.2-0.1-0.2-0.1-0.2   C99.1,148.8,99,148.6,99.1,148.3z M95.4,149c0.2,0,0.3,0,0.5,0C95.7,149,95.7,149.2,95.4,149z M88.8,149.5   c0.3,0.2,0.8,0.5,0.8,0.9c0,0,0,0,0,0c0,0,0,0,0,0c-0.1,0,0,0-0.1,0c-0.2-0.2-0.4-0.4-0.5-0.5C88.9,149.7,88.8,149.7,88.8,149.5z    M99.8,149.6c0,0,0,0,0.1,0.1c0,0.2-0.5,0.7-0.8,0.7c0,0,0,0,0,0c0-0.2,0.7-0.7,0.7-0.7C99.7,149.6,99.7,149.6,99.8,149.6z    M98.7,149.8C98.7,149.8,98.7,149.9,98.7,149.8c0,0.1-0.2,0.6-0.4,0.6c0,0,0,0,0,0.1c0,0-0.1,0-0.1,0   C98.3,150.2,98.5,150,98.7,149.8C98.7,149.8,98.7,149.8,98.7,149.8z M82.3,149.9c0.2,0,0.4,0.2,0.4,0.4c0,0-0.1,0-0.1,0   C82.5,150.2,82.3,150,82.3,149.9z M89.9,149.9c0.2,0,0.4,0.4,0.4,0.5C90.1,150.4,89.9,150,89.9,149.9z M106.2,149.9   C106.2,149.9,106.2,149.9,106.2,149.9c0.2,0.2-0.1,0.4-0.2,0.4c0,0,0,0,0,0.2c-0.1,0-0.1-0.2-0.1-0.2   C105.8,150,106.1,149.9,106.2,149.9z M97.7,150.2C97.8,150.1,97.8,150.2,97.7,150.2c0.1,0.2-0.2,0.6-0.4,0.6c0,0.2,0,0.2,0,0.2   c0-0.2,0-0.2,0-0.2C97.3,150.6,97.5,150.4,97.7,150.2C97.7,150.2,97.7,150.2,97.7,150.2z M85.8,150.2c0.2,0,0.6,0.3,0.6,0.5   C86.2,150.7,85.8,150.4,85.8,150.2z M89.8,150.2c0.1,0,0.1,0.2,0.1,0.2c0,0-0.1,0-0.1,0L89.8,150.2z M90.8,150.2   c0.2,0,0.6,0.3,0.5,0.5C91.1,150.7,90.8,150.4,90.8,150.2z M102.8,150.2c0.1,0.3-0.3,0.5-0.4,0.7c-0.1,0-0.1,0-0.1,0   C102.3,150.6,102.7,150.4,102.8,150.2z M88.4,150.4c0.1,0,0.1,0,0.1,0c0.1,0,0.2,0.1,0.1,0.1C88.6,150.7,88.4,150.4,88.4,150.4z    M90.6,150.4c0.1,0,0.1,0,0.1,0c0,0,0,0,0,0.1C90.6,150.6,90.6,150.4,90.6,150.4z M92,150.4C92,150.4,92,150.4,92,150.4   C92,150.4,92,150.4,92,150.4c0.2,0,0.3,0.1,0.4,0.1c0.4,0,0.9,0.2,1.4,0.2c0,0,0,0.2-0.1,0.2c0,0,0,0,0,0.2c-0.1,0-0.2-0.2-0.2,0   c-0.2,0-0.4,0.2-0.5,0c-0.1,0-0.4-0.4-0.5-0.4C92.3,150.7,92.2,150.6,92,150.4C92,150.4,92,150.4,92,150.4z M98,150.4L98,150.4   c0.1,0,0.1,0,0,0.1C98,150.6,98,150.4,98,150.4z M100.2,150.4c0.1,0,0.1,0,0.1,0c0,0-0.3,0.1-0.3,0.3c0,0-0.1,0-0.1,0   C99.9,150.6,100.1,150.4,100.2,150.4z M82.7,150.5C82.7,150.5,82.7,150.5,82.7,150.5c0.1,0.1,0.1,0.1,0,0.2   C82.7,150.7,82.7,150.6,82.7,150.5C82.7,150.6,82.7,150.5,82.7,150.5C82.7,150.5,82.7,150.5,82.7,150.5z M82.2,150.6   C82.2,150.6,82.3,150.6,82.2,150.6c0.3,0,0.4,0,0.3,0.4c-0.1,0-0.2,0-0.3-0.2c-0.1,0-0.2,0-0.2,0C82,150.6,82.1,150.6,82.2,150.6z    M84.8,150.6c0.1,0,0.3,0.2,0.2,0.4C84.9,150.9,84.8,150.7,84.8,150.6z M85.3,150.6c0.2,0.2,0.2,0.2,0.3,0.4c0,0,0,0,0,0   c0,0,0,0,0,0C85.4,150.9,85.3,150.7,85.3,150.6z M88,150.6c0,0,0.3,0,0.2,0.2C88,150.7,88,150.6,88,150.6z M89.3,150.6   c0.8,0,1.4,0.2,2.1,0.5c0.2,0,0.4,0,0.5,0.2c0.3,0,0.7,0.2,1,0.2c0,0,0,0,0,0c0,0.2-0.1,0.2-0.2,0.2c-0.2,0-0.5-0.2-0.6-0.2   c-0.1,0-0.3,0-0.4-0.2c-0.6-0.2-1.3-0.5-2.1-0.5c-0.1,0-0.3,0-0.4,0.2c-0.1,0-0.2,0-0.4,0C88.9,150.7,89.2,150.7,89.3,150.6z    M100.6,150.6c0.1,0,0,0.2-0.1,0.2h0c0,0-0.1,0-0.1,0c0,0,0,0,0,0C100.5,150.7,100.6,150.6,100.6,150.6z M105.8,150.6   C105.8,150.6,105.8,150.6,105.8,150.6c0.1,0,0.1,0,0.1,0c0,0,0,0,0,0c-0.1,0.2-0.1,0.2-0.1,0.2h0c0,0,0,0-0.1,0h0   C105.8,150.6,105.8,150.6,105.8,150.6z M106.2,150.6c0.2,0,0.3,0,0.4,0.2c0,0,0,0-0.1,0c-0.1,0.2-0.2,0.2-0.3,0.2   C106,150.9,106.1,150.7,106.2,150.6z M99.3,150.7c0.2,0,0.4,0,0.4,0.2h0c0,0-0.1,0-0.1,0c-0.2,0-0.6-0.2-0.8,0c-0.1,0-0.2,0-0.2,0   c-0.4,0-0.8,0.2-1.2,0.4c-0.3,0-0.6,0-0.8,0.2c-0.2,0-0.4,0.2-0.6,0.2c-0.1,0-0.2,0-0.3,0c0-0.2,0-0.2,0-0.2c0.2,0,0.4,0,0.6-0.2   c0.6-0.2,1.1-0.4,1.7-0.4c0.1-0.2,0.3-0.2,0.4-0.2c0.1,0,0.3,0,0.4,0C98.9,150.7,99.1,150.7,99.3,150.7z M88.4,150.7   c0.1,0,0.2,0,0.3,0.2c0,0,0,0,0,0C88.6,150.9,88.4,151.1,88.4,150.7z M91.8,150.7c0.1,0,0.6,0.2,0.5,0.4   C92.2,151.3,91.9,150.7,91.8,150.7z M94.1,150.7C94.1,150.7,94.2,150.7,94.1,150.7c0.1,0,0.2,0,0.3,0c0.2,0.2,0.2,0.4,0,0.5   c-0.2,0.2-0.5-0.2-0.4-0.4h0C94,150.8,94.1,150.7,94.1,150.7z M96.6,150.7c0.2,0.2-0.2,0.4-0.3,0.4c-0.1,0-0.1,0-0.1,0   C96.1,150.9,96.5,150.7,96.6,150.7z M100.1,150.7c0.1,0,0.1,0,0.2,0c0,0,0,0,0,0.2c0,0,0,0,0,0c-0.1,0-0.2,0-0.2,0   C100,150.9,100,150.9,100.1,150.7z M103.2,150.7C103.2,150.7,103.2,150.7,103.2,150.7c0.1,0,0.1,0,0.1,0c0.1,0-0.1,0.2-0.1,0.2   c-0.1,0.2-0.1,0-0.1,0C103.1,150.8,103.1,150.7,103.2,150.7z M103.7,150.7C103.7,150.7,103.8,150.7,103.7,150.7   c0.1,0,0,0.2-0.1,0.2c0,0,0,0-0.1,0C103.5,150.9,103.6,150.7,103.7,150.7z M83,150.9C83,150.9,83,150.9,83,150.9   c0.2,0,0.4,0,0.6,0c0.2,0,0.3,0.2,0.4,0.2c0.1,0,0.2,0,0.3,0c0.1,0,0.1,0,0.2,0c0.1,0,0.2-0.2,0.3-0.2c0.1,0,0.2,0.2,0.3,0.2   c0.1,0,0.2,0,0.3,0c0.1,0,0.2,0,0.3,0.2c-0.7,0-1.4,0-2.1-0.2c-0.2,0-0.4,0-0.5,0C83,151,83,150.9,83,150.9z M87.1,150.9   c0.2,0,0.4,0.2,0.5,0c0.2,0,0.3,0,0.6,0c-0.1,0.2-0.2,0.2-0.3,0.2c-0.1,0-0.1,0-0.1,0c-0.2,0-0.7,0-0.7,0.2c-0.1,0-0.3,0-0.4,0   c-0.1,0-0.1,0-0.2,0c-0.1,0-0.2,0-0.3,0c-0.1,0-0.2,0-0.3,0c-0.1,0-0.2,0-0.3,0c0.1,0,0.2-0.2,0.3-0.2c0.2,0,0.4,0,0.6,0   C86.7,151.1,87,150.9,87.1,150.9z M90.1,150.9c0.1,0,0.2,0.2,0.3,0.2c0,0,0,0,0,0c0,0-0.3,0.2-0.4,0.2c-0.2,0.2-0.5,0.2-0.8,0.2   c0,0,0,0,0,0c0,0,0-0.2,0-0.2C89.3,151.1,89.9,151.1,90.1,150.9z M100.4,150.9c0.1,0,0.3,0,0.5,0c0.1,0,0.2,0,0.3,0   c0.1,0.2,0.2,0,0.3,0c0.1,0.2,0.2,0.2,0.3,0.2c0.3,0,0.6,0,0.9,0c0.1,0,0.2,0.2,0.3,0.2c0.1,0,0.2-0.2,0.3-0.2   c0.1,0,0.1,0.2,0.2,0.2c0.1-0.2,0.2-0.2,0.3-0.2c0.1,0,0.2,0,0.2,0c0.1,0,0.2,0,0.3,0c0.1,0,0.3,0,0.4,0c0.3,0,0.6-0.2,0.8-0.2   c0.1,0,0,0.2,0,0.2c-0.1,0-0.1,0-0.2,0c-0.2,0-0.5,0.2-0.6,0.2c-0.1,0-0.2,0-0.2,0c-0.1,0-0.1,0-0.1,0c-0.1,0-0.2,0-0.3,0   c-0.2,0-0.6,0-0.7,0.2c-0.4,0-0.8-0.2-1.1-0.2c-0.7,0-1.4,0-2-0.2C100.4,150.9,100.4,150.9,100.4,150.9z M98.3,151.1   c0,0,0.1,0,0.1,0c0.2,0,1,0,1,0.2c-0.1,0.2-0.7,0-0.8,0C98.4,151.3,98.4,151.3,98.3,151.1z M93.3,151.3   C93.3,151.3,93.3,151.3,93.3,151.3c0.2,0,0.3,0,0.4,0c0.3,0.2,0.5,0.4,0.1,0.5c0,0,0,0-0.1,0c0,0,0,0-0.1-0.2   c-0.1,0-0.1,0-0.1-0.2C93.5,151.4,93.4,151.4,93.3,151.3z M94.9,151.3c0.1,0,0.3,0,0.3,0c0,0.2-0.3,0.2-0.3,0.4   c-0.1,0-0.1,0.2-0.1,0.2c-0.1,0-0.2,0-0.2,0C94.3,151.4,94.7,151.3,94.9,151.3z M86.4,151.4c0.1,0,0.2,0,0.3,0c0,0,0.1,0,0.1,0   c0,0.4-0.8,0.5-1.1,0.4c0,0,0,0-0.1,0C85.8,151.8,86,151.4,86.4,151.4z M91.2,151.4c0.1,0,0.6,0,0.6,0.2c0,0-0.4,0.2-0.5,0.2   c-0.2,0-0.4,0-0.6,0C90.7,151.6,91.1,151.4,91.2,151.4z M96.9,151.4C97,151.4,97,151.4,96.9,151.4c0.3,0,0.7,0,0.9,0.2   c0.1,0,0,0.2,0,0.2c-0.1,0-0.1,0-0.1,0c-0.4,0-0.6,0-0.9-0.2C96.7,151.5,96.8,151.5,96.9,151.4z M101.7,151.4   C101.7,151.4,101.7,151.4,101.7,151.4c0.2,0,1.2,0.2,1.1,0.4c-0.1,0.2-0.9,0-1-0.2c-0.1,0-0.1,0-0.1,0   C101.7,151.6,101.7,151.4,101.7,151.4z M93.4,151.6c0.1,0,0.1,0,0.1,0c0,0,0,0,0,0c0,0.2,0,0.2,0,0.2c0,0,0,0,0,0c0,0,0,0,0,0   c-0.2,0-0.3,0.2-0.4,0.2c-0.2,0-0.3,0-0.5,0.2c-0.1-0.2-0.1-0.2-0.1-0.2c0,0,0-0.2,0-0.2c0.1,0,0.1,0,0.2,0   C92.9,151.8,93.2,151.6,93.4,151.6z M95,151.6c0.2,0,1.4,0.2,0.9,0.5c0,0,0,0-0.1,0c-0.2-0.2-0.8-0.4-0.9-0.4   C95,151.8,95,151.6,95,151.6z"></path>		<path id="path21644" class="st0" d="M86.2,138.1C86.2,138.1,86.2,138.1,86.2,138.1C86.3,138.1,86.3,138.1,86.2,138.1"></path>		<path id="path21339" class="st0" d="M38.5,135.1c-0.1,0.1-0.1,0.3,0,0.4c1.5,0.4,1.9,0.8,1.9,2.2v12.1c0,1.6-0.2,1.8-1.8,2.2   c-0.1,0.1-0.1,0.3,0,0.4h6.6c6,0,10.4-3.4,10.4-8.6c0-3.4-2.1-6.5-5.2-7.7c-1.6-0.7-3.6-0.9-5.9-0.9H38.5L38.5,135.1z M43.6,136   c1.5,0,2.9,0.1,4.2,0.6c2.2,0.9,4.3,3.5,4.3,7.1c0,5-3.1,7.6-8.5,7.6V136z M49,136.3L49,136.3c2.9,1.1,5.1,3.9,5.1,7.5   c0,2.8-1.6,5.9-5.1,7.4L49,151c3.1-1.4,4.7-4.3,4.7-7.3C53.7,140.3,51.5,137.5,49,136.3L49,136.3L49,136.3z M41.8,136h0.4v15.4   h-0.4V136z"></path>		<path id="path21341" class="st0" d="M57.3,135.1c-0.1,0.1-0.1,0.3,0,0.4c1.4,0.3,1.6,0.7,1.6,1.9V150c0,1.2-0.2,1.7-1.6,1.9   c-0.1,0.1-0.1,0.3,0,0.4h6.4c0.1-0.1,0.1-0.3,0-0.4c-1.4-0.3-1.6-0.7-1.6-1.9v-12.6c0-1.2,0.2-1.7,1.6-1.9c0.1-0.1,0.1-0.3,0-0.4   H57.3L57.3,135.1z M60.7,136v15.4h-0.4V136H60.7z"></path>		<path id="path21343" class="st0" d="M79.9,147.9c0-0.2-0.2-0.2-0.3-0.2c-2.1,3-4.4,3.7-8.1,3.7h-1V144h2.3c2,0,3,0.5,4.2,2.1   c0.2,0.1,0.3,0,0.3-0.2l-1.1-2.4l1.1-2.4c0-0.1-0.2-0.2-0.3-0.2c-1.1,1.5-2.2,2.1-4.2,2.1h-2.3v-7h0.9c4,0,5.6,1,7.8,3.7   c0.1,0.1,0.3,0,0.3-0.2c-0.7-1.5-1.4-3-2-4.6c-0.4,0.1-1.7,0.1-2.1,0.1h-9.8c-0.1,0.1-0.1,0.3,0,0.4c1.4,0.3,1.6,0.7,1.6,1.9V150   c0,1.2-0.2,1.7-1.6,1.9c-0.1,0.1-0.1,0.3,0,0.4h10.2c0.5,0,1.6,0,2.1,0.1C78.4,150.9,79.1,149.4,79.9,147.9L79.9,147.9L79.9,147.9   z M68.9,151.4h-0.4V136h0.4V151.4z"></path>		<path id="path21345" class="st0" d="M122.6,147.8c0-0.1-0.2-0.2-0.3-0.1c-1.7,2.5-3.5,3.8-7.7,3.8h-1.7l9.4-16.2v-0.2h-8.6   c-0.7,0-1.9,0-2.6-0.1c-0.5,1.5-1.2,3-1.9,4.6c0,0.1,0.2,0.2,0.3,0.1c1.6-2.3,2.8-3.7,7.4-3.7h1.2l-9.4,16.2v0.1h9   c1,0,1.9,0,2.9,0.1C121.1,150.8,121.8,149.3,122.6,147.8L122.6,147.8L122.6,147.8z M120.1,136l-8.9,15.4h-0.5l8.9-15.4H120.1z"></path>		<path id="path21347" class="st0" d="M138.1,147.9c0-0.2-0.2-0.2-0.3-0.2c-2.1,3-4.4,3.7-8.1,3.7h-1.1V144h2.3c2,0,3,0.5,4.2,2.1   c0.2,0.1,0.3,0,0.3-0.2l-1.1-2.4l1.1-2.4c0-0.1-0.2-0.2-0.3-0.2c-1.1,1.5-2.2,2.1-4.2,2.1h-2.3v-7h0.9c4,0,5.6,1,7.8,3.7   c0.1,0.1,0.3,0,0.3-0.2c-0.7-1.5-1.4-3-2-4.6c-0.4,0.1-1.7,0.1-2.1,0.1h-9.8c-0.1,0.1-0.1,0.3,0,0.4c1.4,0.3,1.6,0.7,1.6,1.9V150   c0,1.2-0.2,1.7-1.6,1.9c-0.1,0.1-0.1,0.3,0,0.4h10.2c0.5,0,1.6,0,2.1,0.1C136.6,150.9,137.3,149.4,138.1,147.9L138.1,147.9   L138.1,147.9z M127.1,151.4h-0.4V136h0.4V151.4z"></path>		<path id="path21349" class="st0" d="M139.4,135.1c-0.1,0.1-0.1,0.3,0,0.4c1.4,0.3,1.6,0.7,1.6,1.9V150c0,1.2-0.2,1.7-1.6,1.9   c-0.1,0.1-0.1,0.3,0,0.4h6.4c0.1-0.1,0.1-0.3,0-0.4c-1.4-0.3-1.6-0.7-1.6-1.9v-12.6c0-1.2,0.2-1.7,1.6-1.9c0.1-0.1,0.1-0.3,0-0.4   H139.4z M142.8,136v15.4h-0.4V136H142.8z"></path>		<path id="path21351" class="st0" d="M148.2,135c-0.5,1.5-1.2,3-2,4.4c0,0.1,0.2,0.2,0.3,0.2c2.1-2.8,3.7-3.6,5.4-3.6v14   c0,1.2-0.2,1.7-1.6,1.9c-0.1,0.1-0.1,0.3,0,0.4h6.5c0.1-0.1,0.1-0.3,0-0.4c-1.4-0.3-1.6-0.7-1.6-1.9v-14c1.7,0,3.3,0.8,5.4,3.6   c0.1,0.1,0.3,0,0.3-0.2c-0.7-1.4-1.4-2.9-2-4.4c-0.9,0.1-2.1,0.1-3.1,0.1h-4.5C150.7,135.1,148.9,135,148.2,135L148.2,135z    M153.8,136v15.4h-0.4V136H153.8z"></path>	</g></g></svg>