<?xml version="1.0" encoding="UTF-8" standalone="no"?>
<!DOCTYPE svg PUBLIC "-//W3C//DTD SVG 1.1//EN" "http://www.w3.org/Graphics/SVG/1.1/DTD/svg11.dtd">
<svg width="100%" height="100%" viewBox="0 0 10407 1736" version="1.1" xmlns="http://www.w3.org/2000/svg" xmlns:xlink="http://www.w3.org/1999/xlink" xml:space="preserve" xmlns:serif="http://www.serif.com/" style="fill-rule:evenodd;clip-rule:evenodd;stroke-linejoin:round;stroke-miterlimit:2;">
    <g transform="matrix(1,0,0,1,0,-1.57496)">
        <g transform="matrix(4.16667,0,0,4.16667,0,0)">
            <path d="M417.186,417C532.39,417 625.781,323.736 625.781,208.689C625.781,93.642 532.39,0.378 417.186,0.378C301.981,0.378 208.59,93.642 208.59,208.689C208.59,323.736 301.981,417 417.186,417Z" style="fill:white;fill-rule:nonzero;"/>
        </g>
        <g transform="matrix(4.16667,0,0,4.16667,0,0)">
            <path d="M208.596,417C93.337,417 0,323.789 0,208.689C0,93.589 93.337,0.378 208.596,0.378" style="fill:white;fill-rule:nonzero;"/>
        </g>
        <g transform="matrix(4.16667,0,0,4.16667,0,0)">
            <clipPath id="_clip1">
                <rect x="810.419" y="69.004" width="1689.58" height="254.291"/>
            </clipPath>
            <g clip-path="url(#_clip1)">
                <path d="M890.159,238.833L892.374,313.292C892.374,315.905 890.159,317.647 887.943,317.647L840.543,317.647C837.885,317.647 836.113,315.469 836.113,313.292L837.885,238.833L837.885,175.696L814.849,175.696C812.19,175.696 810.419,173.519 810.419,171.342L810.419,143.039C810.419,140.427 812.634,138.685 814.849,138.685L837.885,138.685L837.885,126.928C837.885,85.998 867.123,70.758 897.246,70.758C907.878,70.758 919.839,72.064 928.699,73.371C931.356,73.806 933.129,75.983 933.129,78.596L933.129,106.027C933.129,108.205 930.913,109.947 928.699,109.51C924.269,108.64 917.624,108.205 910.093,108.205C898.575,108.205 890.159,113.865 890.159,131.718L890.159,138.685L929.142,138.685C931.8,138.685 933.571,140.862 933.571,143.039L933.571,170.907C933.571,173.519 931.356,175.261 929.142,175.261L890.159,175.261L890.159,238.833Z" style="fill:white;fill-rule:nonzero;"/>
                <path d="M1023.96,322.427C985.42,322.427 961.057,296.736 961.057,252.758L961.057,215.311L959.284,143.03C959.284,140.417 961.499,138.675 963.715,138.675L1008.46,138.675C1011.11,138.675 1012.89,140.852 1012.89,143.03L1011.56,214.875L1011.56,251.887C1011.56,271.481 1023.96,284.109 1039.91,284.109C1058.96,284.109 1079.78,266.692 1079.78,228.373L1079.78,215.311L1078.9,143.03C1078.9,140.417 1081.11,138.675 1083.33,138.675L1128.51,138.675C1131.17,138.675 1132.94,140.852 1132.94,143.03L1130.72,224.455L1132.05,313.283C1132.05,315.896 1129.84,317.637 1127.62,317.637L1085.54,317.637C1082.88,317.637 1081.11,315.459 1081.11,313.283L1082,294.995C1070.03,311.106 1049.21,322.427 1023.96,322.427Z" style="fill:white;fill-rule:nonzero;"/>
                <path d="M1274.23,310.236C1274.23,312.848 1272.46,315.46 1269.8,316.331C1260.05,319.38 1248.54,321.992 1237.9,321.992C1206.89,321.992 1177.66,306.752 1177.66,265.822L1178.1,175.688L1159.05,175.688C1156.39,175.688 1154.62,173.511 1154.62,171.333L1154.62,143.03C1154.62,140.418 1156.83,138.676 1159.05,138.676L1178.1,138.676L1177.22,98.182C1177.22,95.569 1179.42,93.827 1181.64,93.827L1226.83,93.827C1229.49,93.827 1231.26,96.004 1231.26,98.182L1231.26,138.676L1270.24,138.676C1272.9,138.676 1274.67,140.853 1274.67,143.03L1274.67,170.898C1274.67,173.511 1272.46,175.252 1270.24,175.252L1230.82,175.252L1231.26,264.081C1231.26,279.321 1239.23,284.11 1250.75,284.11C1258.73,284.11 1264.92,282.804 1269.8,281.498C1272.46,280.626 1274.23,282.369 1274.23,284.545L1274.23,310.236Z" style="fill:white;fill-rule:nonzero;"/>
                <path d="M1360.61,322.427C1322.08,322.427 1297.72,296.736 1297.72,252.758L1297.72,215.311L1295.94,143.03C1295.94,140.417 1298.16,138.675 1300.38,138.675L1345.11,138.675C1347.77,138.675 1349.55,140.852 1349.55,143.03L1348.22,214.875L1348.22,251.887C1348.22,271.481 1360.61,284.109 1376.57,284.109C1395.61,284.109 1416.43,266.692 1416.43,228.373L1416.43,215.311L1415.55,143.03C1415.55,140.417 1417.76,138.675 1419.98,138.675L1465.16,138.675C1467.82,138.675 1469.59,140.852 1469.59,143.03L1467.38,224.455L1468.71,313.283C1468.71,315.896 1466.49,317.637 1464.28,317.637L1422.19,317.637C1419.54,317.637 1417.76,315.459 1417.76,313.283L1418.65,294.995C1406.69,311.106 1385.87,322.427 1360.61,322.427Z" style="fill:white;fill-rule:nonzero;"/>
                <path d="M1504.62,318.073C1501.96,318.073 1500.19,315.895 1500.19,313.718L1501.96,228.373L1500.19,143.029C1500.19,140.417 1502.41,138.674 1504.62,138.674L1548.92,138.674C1551.58,138.674 1553.35,140.852 1553.35,143.029L1552.46,168.719C1566.64,147.384 1591.01,136.933 1617.59,136.933C1619.8,136.933 1622.01,137.369 1624.22,137.804C1626.88,138.239 1628.66,140.417 1628.66,143.029L1628.66,172.639C1628.66,175.25 1626.88,176.992 1624.22,176.992C1622.45,176.557 1620.69,176.557 1618.92,176.557C1581.26,176.557 1553.35,197.022 1553.79,238.388L1554.68,313.718C1554.68,316.331 1552.46,318.073 1550.25,318.073L1504.62,318.073Z" style="fill:white;fill-rule:nonzero;"/>
                <path d="M1726.45,168.718C1705.18,168.718 1692.33,181.345 1688.34,206.165L1763.21,206.165C1760.55,186.571 1749.48,168.718 1726.45,168.718ZM1810.17,257.546C1812.83,257.546 1814.59,259.723 1814.15,261.902C1809.29,294.123 1777.39,322.425 1726.89,322.425C1665.75,322.425 1632.97,283.236 1632.97,228.808C1632.97,171.766 1667.53,133.883 1726,133.883C1785.37,133.883 1819.03,172.637 1820.36,234.033C1820.36,236.645 1818.14,238.386 1815.92,238.386L1686.57,238.386C1688.79,272.351 1702.08,287.156 1727.77,287.156C1745.05,287.156 1757.9,279.318 1762.76,261.464C1763.65,258.852 1765.87,257.111 1768.97,257.111L1810.17,257.111L1810.17,257.546Z" style="fill:white;fill-rule:nonzero;"/>
                <path d="M1968.79,282.724C2013.54,282.724 2038.35,250.502 2038.35,196.944C2038.35,143.386 2013.99,109.858 1968.35,109.858C1922.72,109.858 1898.8,142.516 1898.8,196.944C1898.8,250.067 1924.05,282.724 1968.79,282.724ZM1968.35,323.655C1892.6,323.655 1843.43,271.838 1843.43,197.379C1843.43,119.873 1892.16,69.364 1968.35,69.364C2043.66,69.364 2093.72,118.566 2093.72,197.379C2093.72,271.838 2044.1,323.655 1968.35,323.655Z" style="fill:white;fill-rule:nonzero;"/>
                <path d="M2119.49,318.431C2116.83,318.431 2115.05,316.254 2115.05,314.078L2117.27,232.651L2115.5,143.388C2115.5,140.775 2117.71,139.034 2119.93,139.034L2162.02,139.034C2164.67,139.034 2166.44,141.21 2166.44,143.388L2165.55,161.676C2177.96,146 2198.78,134.679 2224.47,134.679C2263.02,134.679 2287.38,160.37 2287.38,204.348L2287.38,241.795L2288.71,313.641C2288.71,316.254 2286.5,317.996 2284.28,317.996L2239.54,317.996C2236.88,317.996 2235.11,315.819 2235.11,313.641L2236.44,241.795L2236.44,204.783C2236.44,185.189 2224.03,172.561 2208.09,172.561C2189.04,172.561 2168.21,189.978 2168.21,228.296L2168.21,241.36L2169.1,313.206C2169.1,315.819 2166.88,317.561 2164.67,317.561L2119.49,317.561L2119.49,318.431Z" style="fill:white;fill-rule:nonzero;"/>
                <path d="M2403.16,168.718C2381.89,168.718 2369.04,181.345 2365.05,206.165L2439.93,206.165C2437.71,186.571 2426.63,168.718 2403.16,168.718ZM2487.33,257.546C2489.98,257.546 2491.76,259.723 2491.31,261.902C2486.44,294.123 2454.54,322.425 2404.04,322.425C2342.91,322.425 2310.13,283.236 2310.13,228.808C2310.13,171.766 2344.68,133.883 2403.16,133.883C2462.52,133.883 2496.19,172.637 2497.52,234.033C2497.52,236.645 2495.3,238.386 2493.09,238.386L2364.18,238.386C2366.38,272.351 2379.68,287.156 2405.37,287.156C2422.64,287.156 2435.5,279.318 2440.37,261.464C2441.26,258.852 2443.47,257.111 2446.57,257.111L2487.33,257.111L2487.33,257.546Z" style="fill:white;fill-rule:nonzero;"/>
            </g>
        </g>
    </g>
</svg>
